%TF.GenerationSoftware,KiCad,Pcbnew,9.0.2*%
%TF.CreationDate,2026-02-09T22:24:12+09:00*%
%TF.ProjectId,EMUZ80_RP2040,454d555a-3830-45f5-9250-323034302e6b,Rev001*%
%TF.SameCoordinates,Original*%
%TF.FileFunction,Drillmap*%
%TF.FilePolarity,Positive*%
%FSLAX45Y45*%
G04 Gerber Fmt 4.5, Leading zero omitted, Abs format (unit mm)*
G04 Created by KiCad (PCBNEW 9.0.2) date 2026-02-09 22:24:12*
%MOMM*%
%LPD*%
G01*
G04 APERTURE LIST*
%ADD10C,0.100000*%
%ADD11C,0.200000*%
%ADD12C,0.350000*%
G04 APERTURE END LIST*
D10*
X10338500Y-14227000D02*
X10338500Y-6670500D01*
X20244500Y-6670500D02*
X20244500Y-14227000D01*
X20244500Y-14227000D02*
X10338500Y-14227000D01*
X20244500Y-6670500D02*
X10338500Y-6670500D01*
D11*
D12*
X10671500Y-6940000D02*
X11021500Y-7290000D01*
X11021500Y-6940000D02*
X10671500Y-7290000D01*
X10671500Y-13544000D02*
X11021500Y-13894000D01*
X11021500Y-13544000D02*
X10671500Y-13894000D01*
X19561500Y-6940000D02*
X19911500Y-7290000D01*
X19911500Y-6940000D02*
X19561500Y-7290000D01*
X19561500Y-13594800D02*
X19911500Y-13944800D01*
X19911500Y-13594800D02*
X19561500Y-13944800D01*
D11*
X10594277Y-14543484D02*
X10594277Y-14343484D01*
X10594277Y-14343484D02*
X10641896Y-14343484D01*
X10641896Y-14343484D02*
X10670467Y-14353008D01*
X10670467Y-14353008D02*
X10689515Y-14372055D01*
X10689515Y-14372055D02*
X10699039Y-14391103D01*
X10699039Y-14391103D02*
X10708563Y-14429198D01*
X10708563Y-14429198D02*
X10708563Y-14457769D01*
X10708563Y-14457769D02*
X10699039Y-14495865D01*
X10699039Y-14495865D02*
X10689515Y-14514912D01*
X10689515Y-14514912D02*
X10670467Y-14533960D01*
X10670467Y-14533960D02*
X10641896Y-14543484D01*
X10641896Y-14543484D02*
X10594277Y-14543484D01*
X10794277Y-14543484D02*
X10794277Y-14410150D01*
X10794277Y-14448246D02*
X10803801Y-14429198D01*
X10803801Y-14429198D02*
X10813324Y-14419674D01*
X10813324Y-14419674D02*
X10832372Y-14410150D01*
X10832372Y-14410150D02*
X10851420Y-14410150D01*
X10918086Y-14543484D02*
X10918086Y-14410150D01*
X10918086Y-14343484D02*
X10908563Y-14353008D01*
X10908563Y-14353008D02*
X10918086Y-14362531D01*
X10918086Y-14362531D02*
X10927610Y-14353008D01*
X10927610Y-14353008D02*
X10918086Y-14343484D01*
X10918086Y-14343484D02*
X10918086Y-14362531D01*
X11041896Y-14543484D02*
X11022848Y-14533960D01*
X11022848Y-14533960D02*
X11013324Y-14514912D01*
X11013324Y-14514912D02*
X11013324Y-14343484D01*
X11146658Y-14543484D02*
X11127610Y-14533960D01*
X11127610Y-14533960D02*
X11118086Y-14514912D01*
X11118086Y-14514912D02*
X11118086Y-14343484D01*
X11375229Y-14543484D02*
X11375229Y-14343484D01*
X11375229Y-14343484D02*
X11441896Y-14486341D01*
X11441896Y-14486341D02*
X11508562Y-14343484D01*
X11508562Y-14343484D02*
X11508562Y-14543484D01*
X11689515Y-14543484D02*
X11689515Y-14438722D01*
X11689515Y-14438722D02*
X11679991Y-14419674D01*
X11679991Y-14419674D02*
X11660943Y-14410150D01*
X11660943Y-14410150D02*
X11622848Y-14410150D01*
X11622848Y-14410150D02*
X11603801Y-14419674D01*
X11689515Y-14533960D02*
X11670467Y-14543484D01*
X11670467Y-14543484D02*
X11622848Y-14543484D01*
X11622848Y-14543484D02*
X11603801Y-14533960D01*
X11603801Y-14533960D02*
X11594277Y-14514912D01*
X11594277Y-14514912D02*
X11594277Y-14495865D01*
X11594277Y-14495865D02*
X11603801Y-14476817D01*
X11603801Y-14476817D02*
X11622848Y-14467293D01*
X11622848Y-14467293D02*
X11670467Y-14467293D01*
X11670467Y-14467293D02*
X11689515Y-14457769D01*
X11784753Y-14410150D02*
X11784753Y-14610150D01*
X11784753Y-14419674D02*
X11803801Y-14410150D01*
X11803801Y-14410150D02*
X11841896Y-14410150D01*
X11841896Y-14410150D02*
X11860943Y-14419674D01*
X11860943Y-14419674D02*
X11870467Y-14429198D01*
X11870467Y-14429198D02*
X11879991Y-14448246D01*
X11879991Y-14448246D02*
X11879991Y-14505388D01*
X11879991Y-14505388D02*
X11870467Y-14524436D01*
X11870467Y-14524436D02*
X11860943Y-14533960D01*
X11860943Y-14533960D02*
X11841896Y-14543484D01*
X11841896Y-14543484D02*
X11803801Y-14543484D01*
X11803801Y-14543484D02*
X11784753Y-14533960D01*
X11965705Y-14524436D02*
X11975229Y-14533960D01*
X11975229Y-14533960D02*
X11965705Y-14543484D01*
X11965705Y-14543484D02*
X11956182Y-14533960D01*
X11956182Y-14533960D02*
X11965705Y-14524436D01*
X11965705Y-14524436D02*
X11965705Y-14543484D01*
X11965705Y-14419674D02*
X11975229Y-14429198D01*
X11975229Y-14429198D02*
X11965705Y-14438722D01*
X11965705Y-14438722D02*
X11956182Y-14429198D01*
X11956182Y-14429198D02*
X11965705Y-14419674D01*
X11965705Y-14419674D02*
X11965705Y-14438722D01*
X10133500Y-14772000D02*
X10333500Y-14972000D01*
X10333500Y-14772000D02*
X10133500Y-14972000D01*
X10575229Y-14763484D02*
X10699039Y-14763484D01*
X10699039Y-14763484D02*
X10632372Y-14839674D01*
X10632372Y-14839674D02*
X10660944Y-14839674D01*
X10660944Y-14839674D02*
X10679991Y-14849198D01*
X10679991Y-14849198D02*
X10689515Y-14858722D01*
X10689515Y-14858722D02*
X10699039Y-14877769D01*
X10699039Y-14877769D02*
X10699039Y-14925388D01*
X10699039Y-14925388D02*
X10689515Y-14944436D01*
X10689515Y-14944436D02*
X10679991Y-14953960D01*
X10679991Y-14953960D02*
X10660944Y-14963484D01*
X10660944Y-14963484D02*
X10603801Y-14963484D01*
X10603801Y-14963484D02*
X10584753Y-14953960D01*
X10584753Y-14953960D02*
X10575229Y-14944436D01*
X10784753Y-14944436D02*
X10794277Y-14953960D01*
X10794277Y-14953960D02*
X10784753Y-14963484D01*
X10784753Y-14963484D02*
X10775229Y-14953960D01*
X10775229Y-14953960D02*
X10784753Y-14944436D01*
X10784753Y-14944436D02*
X10784753Y-14963484D01*
X10975229Y-14763484D02*
X10879991Y-14763484D01*
X10879991Y-14763484D02*
X10870467Y-14858722D01*
X10870467Y-14858722D02*
X10879991Y-14849198D01*
X10879991Y-14849198D02*
X10899039Y-14839674D01*
X10899039Y-14839674D02*
X10946658Y-14839674D01*
X10946658Y-14839674D02*
X10965705Y-14849198D01*
X10965705Y-14849198D02*
X10975229Y-14858722D01*
X10975229Y-14858722D02*
X10984753Y-14877769D01*
X10984753Y-14877769D02*
X10984753Y-14925388D01*
X10984753Y-14925388D02*
X10975229Y-14944436D01*
X10975229Y-14944436D02*
X10965705Y-14953960D01*
X10965705Y-14953960D02*
X10946658Y-14963484D01*
X10946658Y-14963484D02*
X10899039Y-14963484D01*
X10899039Y-14963484D02*
X10879991Y-14953960D01*
X10879991Y-14953960D02*
X10870467Y-14944436D01*
X11108563Y-14763484D02*
X11127610Y-14763484D01*
X11127610Y-14763484D02*
X11146658Y-14773008D01*
X11146658Y-14773008D02*
X11156182Y-14782531D01*
X11156182Y-14782531D02*
X11165705Y-14801579D01*
X11165705Y-14801579D02*
X11175229Y-14839674D01*
X11175229Y-14839674D02*
X11175229Y-14887293D01*
X11175229Y-14887293D02*
X11165705Y-14925388D01*
X11165705Y-14925388D02*
X11156182Y-14944436D01*
X11156182Y-14944436D02*
X11146658Y-14953960D01*
X11146658Y-14953960D02*
X11127610Y-14963484D01*
X11127610Y-14963484D02*
X11108563Y-14963484D01*
X11108563Y-14963484D02*
X11089515Y-14953960D01*
X11089515Y-14953960D02*
X11079991Y-14944436D01*
X11079991Y-14944436D02*
X11070467Y-14925388D01*
X11070467Y-14925388D02*
X11060944Y-14887293D01*
X11060944Y-14887293D02*
X11060944Y-14839674D01*
X11060944Y-14839674D02*
X11070467Y-14801579D01*
X11070467Y-14801579D02*
X11079991Y-14782531D01*
X11079991Y-14782531D02*
X11089515Y-14773008D01*
X11089515Y-14773008D02*
X11108563Y-14763484D01*
X11299039Y-14763484D02*
X11318086Y-14763484D01*
X11318086Y-14763484D02*
X11337134Y-14773008D01*
X11337134Y-14773008D02*
X11346658Y-14782531D01*
X11346658Y-14782531D02*
X11356182Y-14801579D01*
X11356182Y-14801579D02*
X11365705Y-14839674D01*
X11365705Y-14839674D02*
X11365705Y-14887293D01*
X11365705Y-14887293D02*
X11356182Y-14925388D01*
X11356182Y-14925388D02*
X11346658Y-14944436D01*
X11346658Y-14944436D02*
X11337134Y-14953960D01*
X11337134Y-14953960D02*
X11318086Y-14963484D01*
X11318086Y-14963484D02*
X11299039Y-14963484D01*
X11299039Y-14963484D02*
X11279991Y-14953960D01*
X11279991Y-14953960D02*
X11270467Y-14944436D01*
X11270467Y-14944436D02*
X11260943Y-14925388D01*
X11260943Y-14925388D02*
X11251420Y-14887293D01*
X11251420Y-14887293D02*
X11251420Y-14839674D01*
X11251420Y-14839674D02*
X11260943Y-14801579D01*
X11260943Y-14801579D02*
X11270467Y-14782531D01*
X11270467Y-14782531D02*
X11279991Y-14773008D01*
X11279991Y-14773008D02*
X11299039Y-14763484D01*
X11451420Y-14963484D02*
X11451420Y-14830150D01*
X11451420Y-14849198D02*
X11460943Y-14839674D01*
X11460943Y-14839674D02*
X11479991Y-14830150D01*
X11479991Y-14830150D02*
X11508563Y-14830150D01*
X11508563Y-14830150D02*
X11527610Y-14839674D01*
X11527610Y-14839674D02*
X11537134Y-14858722D01*
X11537134Y-14858722D02*
X11537134Y-14963484D01*
X11537134Y-14858722D02*
X11546658Y-14839674D01*
X11546658Y-14839674D02*
X11565705Y-14830150D01*
X11565705Y-14830150D02*
X11594277Y-14830150D01*
X11594277Y-14830150D02*
X11613324Y-14839674D01*
X11613324Y-14839674D02*
X11622848Y-14858722D01*
X11622848Y-14858722D02*
X11622848Y-14963484D01*
X11718086Y-14963484D02*
X11718086Y-14830150D01*
X11718086Y-14849198D02*
X11727610Y-14839674D01*
X11727610Y-14839674D02*
X11746658Y-14830150D01*
X11746658Y-14830150D02*
X11775229Y-14830150D01*
X11775229Y-14830150D02*
X11794277Y-14839674D01*
X11794277Y-14839674D02*
X11803801Y-14858722D01*
X11803801Y-14858722D02*
X11803801Y-14963484D01*
X11803801Y-14858722D02*
X11813324Y-14839674D01*
X11813324Y-14839674D02*
X11832372Y-14830150D01*
X11832372Y-14830150D02*
X11860943Y-14830150D01*
X11860943Y-14830150D02*
X11879991Y-14839674D01*
X11879991Y-14839674D02*
X11889515Y-14858722D01*
X11889515Y-14858722D02*
X11889515Y-14963484D01*
X12279991Y-14753960D02*
X12108563Y-15011103D01*
X12537134Y-14763484D02*
X12556182Y-14763484D01*
X12556182Y-14763484D02*
X12575229Y-14773008D01*
X12575229Y-14773008D02*
X12584753Y-14782531D01*
X12584753Y-14782531D02*
X12594277Y-14801579D01*
X12594277Y-14801579D02*
X12603801Y-14839674D01*
X12603801Y-14839674D02*
X12603801Y-14887293D01*
X12603801Y-14887293D02*
X12594277Y-14925388D01*
X12594277Y-14925388D02*
X12584753Y-14944436D01*
X12584753Y-14944436D02*
X12575229Y-14953960D01*
X12575229Y-14953960D02*
X12556182Y-14963484D01*
X12556182Y-14963484D02*
X12537134Y-14963484D01*
X12537134Y-14963484D02*
X12518086Y-14953960D01*
X12518086Y-14953960D02*
X12508563Y-14944436D01*
X12508563Y-14944436D02*
X12499039Y-14925388D01*
X12499039Y-14925388D02*
X12489515Y-14887293D01*
X12489515Y-14887293D02*
X12489515Y-14839674D01*
X12489515Y-14839674D02*
X12499039Y-14801579D01*
X12499039Y-14801579D02*
X12508563Y-14782531D01*
X12508563Y-14782531D02*
X12518086Y-14773008D01*
X12518086Y-14773008D02*
X12537134Y-14763484D01*
X12689515Y-14944436D02*
X12699039Y-14953960D01*
X12699039Y-14953960D02*
X12689515Y-14963484D01*
X12689515Y-14963484D02*
X12679991Y-14953960D01*
X12679991Y-14953960D02*
X12689515Y-14944436D01*
X12689515Y-14944436D02*
X12689515Y-14963484D01*
X12889515Y-14963484D02*
X12775229Y-14963484D01*
X12832372Y-14963484D02*
X12832372Y-14763484D01*
X12832372Y-14763484D02*
X12813325Y-14792055D01*
X12813325Y-14792055D02*
X12794277Y-14811103D01*
X12794277Y-14811103D02*
X12775229Y-14820627D01*
X12956182Y-14763484D02*
X13079991Y-14763484D01*
X13079991Y-14763484D02*
X13013325Y-14839674D01*
X13013325Y-14839674D02*
X13041896Y-14839674D01*
X13041896Y-14839674D02*
X13060944Y-14849198D01*
X13060944Y-14849198D02*
X13070467Y-14858722D01*
X13070467Y-14858722D02*
X13079991Y-14877769D01*
X13079991Y-14877769D02*
X13079991Y-14925388D01*
X13079991Y-14925388D02*
X13070467Y-14944436D01*
X13070467Y-14944436D02*
X13060944Y-14953960D01*
X13060944Y-14953960D02*
X13041896Y-14963484D01*
X13041896Y-14963484D02*
X12984753Y-14963484D01*
X12984753Y-14963484D02*
X12965706Y-14953960D01*
X12965706Y-14953960D02*
X12956182Y-14944436D01*
X13146658Y-14763484D02*
X13279991Y-14763484D01*
X13279991Y-14763484D02*
X13194277Y-14963484D01*
X13384753Y-14849198D02*
X13365706Y-14839674D01*
X13365706Y-14839674D02*
X13356182Y-14830150D01*
X13356182Y-14830150D02*
X13346658Y-14811103D01*
X13346658Y-14811103D02*
X13346658Y-14801579D01*
X13346658Y-14801579D02*
X13356182Y-14782531D01*
X13356182Y-14782531D02*
X13365706Y-14773008D01*
X13365706Y-14773008D02*
X13384753Y-14763484D01*
X13384753Y-14763484D02*
X13422848Y-14763484D01*
X13422848Y-14763484D02*
X13441896Y-14773008D01*
X13441896Y-14773008D02*
X13451420Y-14782531D01*
X13451420Y-14782531D02*
X13460944Y-14801579D01*
X13460944Y-14801579D02*
X13460944Y-14811103D01*
X13460944Y-14811103D02*
X13451420Y-14830150D01*
X13451420Y-14830150D02*
X13441896Y-14839674D01*
X13441896Y-14839674D02*
X13422848Y-14849198D01*
X13422848Y-14849198D02*
X13384753Y-14849198D01*
X13384753Y-14849198D02*
X13365706Y-14858722D01*
X13365706Y-14858722D02*
X13356182Y-14868246D01*
X13356182Y-14868246D02*
X13346658Y-14887293D01*
X13346658Y-14887293D02*
X13346658Y-14925388D01*
X13346658Y-14925388D02*
X13356182Y-14944436D01*
X13356182Y-14944436D02*
X13365706Y-14953960D01*
X13365706Y-14953960D02*
X13384753Y-14963484D01*
X13384753Y-14963484D02*
X13422848Y-14963484D01*
X13422848Y-14963484D02*
X13441896Y-14953960D01*
X13441896Y-14953960D02*
X13451420Y-14944436D01*
X13451420Y-14944436D02*
X13460944Y-14925388D01*
X13460944Y-14925388D02*
X13460944Y-14887293D01*
X13460944Y-14887293D02*
X13451420Y-14868246D01*
X13451420Y-14868246D02*
X13441896Y-14858722D01*
X13441896Y-14858722D02*
X13422848Y-14849198D01*
X13537134Y-14763484D02*
X13537134Y-14801579D01*
X13613325Y-14763484D02*
X13613325Y-14801579D01*
X13908563Y-15039674D02*
X13899039Y-15030150D01*
X13899039Y-15030150D02*
X13879991Y-15001579D01*
X13879991Y-15001579D02*
X13870468Y-14982531D01*
X13870468Y-14982531D02*
X13860944Y-14953960D01*
X13860944Y-14953960D02*
X13851420Y-14906341D01*
X13851420Y-14906341D02*
X13851420Y-14868246D01*
X13851420Y-14868246D02*
X13860944Y-14820627D01*
X13860944Y-14820627D02*
X13870468Y-14792055D01*
X13870468Y-14792055D02*
X13879991Y-14773008D01*
X13879991Y-14773008D02*
X13899039Y-14744436D01*
X13899039Y-14744436D02*
X13908563Y-14734912D01*
X14070468Y-14830150D02*
X14070468Y-14963484D01*
X14022848Y-14753960D02*
X13975229Y-14896817D01*
X13975229Y-14896817D02*
X14099039Y-14896817D01*
X14327610Y-14963484D02*
X14327610Y-14763484D01*
X14413325Y-14963484D02*
X14413325Y-14858722D01*
X14413325Y-14858722D02*
X14403801Y-14839674D01*
X14403801Y-14839674D02*
X14384753Y-14830150D01*
X14384753Y-14830150D02*
X14356182Y-14830150D01*
X14356182Y-14830150D02*
X14337134Y-14839674D01*
X14337134Y-14839674D02*
X14327610Y-14849198D01*
X14537134Y-14963484D02*
X14518087Y-14953960D01*
X14518087Y-14953960D02*
X14508563Y-14944436D01*
X14508563Y-14944436D02*
X14499039Y-14925388D01*
X14499039Y-14925388D02*
X14499039Y-14868246D01*
X14499039Y-14868246D02*
X14508563Y-14849198D01*
X14508563Y-14849198D02*
X14518087Y-14839674D01*
X14518087Y-14839674D02*
X14537134Y-14830150D01*
X14537134Y-14830150D02*
X14565706Y-14830150D01*
X14565706Y-14830150D02*
X14584753Y-14839674D01*
X14584753Y-14839674D02*
X14594277Y-14849198D01*
X14594277Y-14849198D02*
X14603801Y-14868246D01*
X14603801Y-14868246D02*
X14603801Y-14925388D01*
X14603801Y-14925388D02*
X14594277Y-14944436D01*
X14594277Y-14944436D02*
X14584753Y-14953960D01*
X14584753Y-14953960D02*
X14565706Y-14963484D01*
X14565706Y-14963484D02*
X14537134Y-14963484D01*
X14718087Y-14963484D02*
X14699039Y-14953960D01*
X14699039Y-14953960D02*
X14689515Y-14934912D01*
X14689515Y-14934912D02*
X14689515Y-14763484D01*
X14870468Y-14953960D02*
X14851420Y-14963484D01*
X14851420Y-14963484D02*
X14813325Y-14963484D01*
X14813325Y-14963484D02*
X14794277Y-14953960D01*
X14794277Y-14953960D02*
X14784753Y-14934912D01*
X14784753Y-14934912D02*
X14784753Y-14858722D01*
X14784753Y-14858722D02*
X14794277Y-14839674D01*
X14794277Y-14839674D02*
X14813325Y-14830150D01*
X14813325Y-14830150D02*
X14851420Y-14830150D01*
X14851420Y-14830150D02*
X14870468Y-14839674D01*
X14870468Y-14839674D02*
X14879991Y-14858722D01*
X14879991Y-14858722D02*
X14879991Y-14877769D01*
X14879991Y-14877769D02*
X14784753Y-14896817D01*
X14956182Y-14953960D02*
X14975230Y-14963484D01*
X14975230Y-14963484D02*
X15013325Y-14963484D01*
X15013325Y-14963484D02*
X15032372Y-14953960D01*
X15032372Y-14953960D02*
X15041896Y-14934912D01*
X15041896Y-14934912D02*
X15041896Y-14925388D01*
X15041896Y-14925388D02*
X15032372Y-14906341D01*
X15032372Y-14906341D02*
X15013325Y-14896817D01*
X15013325Y-14896817D02*
X14984753Y-14896817D01*
X14984753Y-14896817D02*
X14965706Y-14887293D01*
X14965706Y-14887293D02*
X14956182Y-14868246D01*
X14956182Y-14868246D02*
X14956182Y-14858722D01*
X14956182Y-14858722D02*
X14965706Y-14839674D01*
X14965706Y-14839674D02*
X14984753Y-14830150D01*
X14984753Y-14830150D02*
X15013325Y-14830150D01*
X15013325Y-14830150D02*
X15032372Y-14839674D01*
X15108563Y-15039674D02*
X15118087Y-15030150D01*
X15118087Y-15030150D02*
X15137134Y-15001579D01*
X15137134Y-15001579D02*
X15146658Y-14982531D01*
X15146658Y-14982531D02*
X15156182Y-14953960D01*
X15156182Y-14953960D02*
X15165706Y-14906341D01*
X15165706Y-14906341D02*
X15165706Y-14868246D01*
X15165706Y-14868246D02*
X15156182Y-14820627D01*
X15156182Y-14820627D02*
X15146658Y-14792055D01*
X15146658Y-14792055D02*
X15137134Y-14773008D01*
X15137134Y-14773008D02*
X15118087Y-14744436D01*
X15118087Y-14744436D02*
X15108563Y-14734912D01*
X15470468Y-15039674D02*
X15460944Y-15030150D01*
X15460944Y-15030150D02*
X15441896Y-15001579D01*
X15441896Y-15001579D02*
X15432372Y-14982531D01*
X15432372Y-14982531D02*
X15422849Y-14953960D01*
X15422849Y-14953960D02*
X15413325Y-14906341D01*
X15413325Y-14906341D02*
X15413325Y-14868246D01*
X15413325Y-14868246D02*
X15422849Y-14820627D01*
X15422849Y-14820627D02*
X15432372Y-14792055D01*
X15432372Y-14792055D02*
X15441896Y-14773008D01*
X15441896Y-14773008D02*
X15460944Y-14744436D01*
X15460944Y-14744436D02*
X15470468Y-14734912D01*
X15546658Y-14830150D02*
X15546658Y-14963484D01*
X15546658Y-14849198D02*
X15556182Y-14839674D01*
X15556182Y-14839674D02*
X15575230Y-14830150D01*
X15575230Y-14830150D02*
X15603801Y-14830150D01*
X15603801Y-14830150D02*
X15622849Y-14839674D01*
X15622849Y-14839674D02*
X15632372Y-14858722D01*
X15632372Y-14858722D02*
X15632372Y-14963484D01*
X15756182Y-14963484D02*
X15737134Y-14953960D01*
X15737134Y-14953960D02*
X15727611Y-14944436D01*
X15727611Y-14944436D02*
X15718087Y-14925388D01*
X15718087Y-14925388D02*
X15718087Y-14868246D01*
X15718087Y-14868246D02*
X15727611Y-14849198D01*
X15727611Y-14849198D02*
X15737134Y-14839674D01*
X15737134Y-14839674D02*
X15756182Y-14830150D01*
X15756182Y-14830150D02*
X15784753Y-14830150D01*
X15784753Y-14830150D02*
X15803801Y-14839674D01*
X15803801Y-14839674D02*
X15813325Y-14849198D01*
X15813325Y-14849198D02*
X15822849Y-14868246D01*
X15822849Y-14868246D02*
X15822849Y-14925388D01*
X15822849Y-14925388D02*
X15813325Y-14944436D01*
X15813325Y-14944436D02*
X15803801Y-14953960D01*
X15803801Y-14953960D02*
X15784753Y-14963484D01*
X15784753Y-14963484D02*
X15756182Y-14963484D01*
X15879992Y-14830150D02*
X15956182Y-14830150D01*
X15908563Y-14763484D02*
X15908563Y-14934912D01*
X15908563Y-14934912D02*
X15918087Y-14953960D01*
X15918087Y-14953960D02*
X15937134Y-14963484D01*
X15937134Y-14963484D02*
X15956182Y-14963484D01*
X16175230Y-14830150D02*
X16175230Y-15030150D01*
X16175230Y-14839674D02*
X16194277Y-14830150D01*
X16194277Y-14830150D02*
X16232373Y-14830150D01*
X16232373Y-14830150D02*
X16251420Y-14839674D01*
X16251420Y-14839674D02*
X16260944Y-14849198D01*
X16260944Y-14849198D02*
X16270468Y-14868246D01*
X16270468Y-14868246D02*
X16270468Y-14925388D01*
X16270468Y-14925388D02*
X16260944Y-14944436D01*
X16260944Y-14944436D02*
X16251420Y-14953960D01*
X16251420Y-14953960D02*
X16232373Y-14963484D01*
X16232373Y-14963484D02*
X16194277Y-14963484D01*
X16194277Y-14963484D02*
X16175230Y-14953960D01*
X16384753Y-14963484D02*
X16365706Y-14953960D01*
X16365706Y-14953960D02*
X16356182Y-14934912D01*
X16356182Y-14934912D02*
X16356182Y-14763484D01*
X16546658Y-14963484D02*
X16546658Y-14858722D01*
X16546658Y-14858722D02*
X16537134Y-14839674D01*
X16537134Y-14839674D02*
X16518087Y-14830150D01*
X16518087Y-14830150D02*
X16479992Y-14830150D01*
X16479992Y-14830150D02*
X16460944Y-14839674D01*
X16546658Y-14953960D02*
X16527611Y-14963484D01*
X16527611Y-14963484D02*
X16479992Y-14963484D01*
X16479992Y-14963484D02*
X16460944Y-14953960D01*
X16460944Y-14953960D02*
X16451420Y-14934912D01*
X16451420Y-14934912D02*
X16451420Y-14915865D01*
X16451420Y-14915865D02*
X16460944Y-14896817D01*
X16460944Y-14896817D02*
X16479992Y-14887293D01*
X16479992Y-14887293D02*
X16527611Y-14887293D01*
X16527611Y-14887293D02*
X16546658Y-14877769D01*
X16613325Y-14830150D02*
X16689515Y-14830150D01*
X16641896Y-14763484D02*
X16641896Y-14934912D01*
X16641896Y-14934912D02*
X16651420Y-14953960D01*
X16651420Y-14953960D02*
X16670468Y-14963484D01*
X16670468Y-14963484D02*
X16689515Y-14963484D01*
X16832373Y-14953960D02*
X16813325Y-14963484D01*
X16813325Y-14963484D02*
X16775230Y-14963484D01*
X16775230Y-14963484D02*
X16756182Y-14953960D01*
X16756182Y-14953960D02*
X16746658Y-14934912D01*
X16746658Y-14934912D02*
X16746658Y-14858722D01*
X16746658Y-14858722D02*
X16756182Y-14839674D01*
X16756182Y-14839674D02*
X16775230Y-14830150D01*
X16775230Y-14830150D02*
X16813325Y-14830150D01*
X16813325Y-14830150D02*
X16832373Y-14839674D01*
X16832373Y-14839674D02*
X16841896Y-14858722D01*
X16841896Y-14858722D02*
X16841896Y-14877769D01*
X16841896Y-14877769D02*
X16746658Y-14896817D01*
X17013325Y-14963484D02*
X17013325Y-14763484D01*
X17013325Y-14953960D02*
X16994277Y-14963484D01*
X16994277Y-14963484D02*
X16956182Y-14963484D01*
X16956182Y-14963484D02*
X16937135Y-14953960D01*
X16937135Y-14953960D02*
X16927611Y-14944436D01*
X16927611Y-14944436D02*
X16918087Y-14925388D01*
X16918087Y-14925388D02*
X16918087Y-14868246D01*
X16918087Y-14868246D02*
X16927611Y-14849198D01*
X16927611Y-14849198D02*
X16937135Y-14839674D01*
X16937135Y-14839674D02*
X16956182Y-14830150D01*
X16956182Y-14830150D02*
X16994277Y-14830150D01*
X16994277Y-14830150D02*
X17013325Y-14839674D01*
X17089516Y-15039674D02*
X17099039Y-15030150D01*
X17099039Y-15030150D02*
X17118087Y-15001579D01*
X17118087Y-15001579D02*
X17127611Y-14982531D01*
X17127611Y-14982531D02*
X17137135Y-14953960D01*
X17137135Y-14953960D02*
X17146658Y-14906341D01*
X17146658Y-14906341D02*
X17146658Y-14868246D01*
X17146658Y-14868246D02*
X17137135Y-14820627D01*
X17137135Y-14820627D02*
X17127611Y-14792055D01*
X17127611Y-14792055D02*
X17118087Y-14773008D01*
X17118087Y-14773008D02*
X17099039Y-14744436D01*
X17099039Y-14744436D02*
X17089516Y-14734912D01*
M02*
