G04 #@! TF.GenerationSoftware,KiCad,Pcbnew,9.0.2*
G04 #@! TF.CreationDate,2026-02-09T22:21:52+09:00*
G04 #@! TF.ProjectId,EMUZ80_RP2040,454d555a-3830-45f5-9250-323034302e6b,Rev001*
G04 #@! TF.SameCoordinates,Original*
G04 #@! TF.FileFunction,Soldermask,Top*
G04 #@! TF.FilePolarity,Negative*
%FSLAX46Y46*%
G04 Gerber Fmt 4.6, Leading zero omitted, Abs format (unit mm)*
G04 Created by KiCad (PCBNEW 9.0.2) date 2026-02-09 22:21:52*
%MOMM*%
%LPD*%
G01*
G04 APERTURE LIST*
G04 Aperture macros list*
%AMRoundRect*
0 Rectangle with rounded corners*
0 $1 Rounding radius*
0 $2 $3 $4 $5 $6 $7 $8 $9 X,Y pos of 4 corners*
0 Add a 4 corners polygon primitive as box body*
4,1,4,$2,$3,$4,$5,$6,$7,$8,$9,$2,$3,0*
0 Add four circle primitives for the rounded corners*
1,1,$1+$1,$2,$3*
1,1,$1+$1,$4,$5*
1,1,$1+$1,$6,$7*
1,1,$1+$1,$8,$9*
0 Add four rect primitives between the rounded corners*
20,1,$1+$1,$2,$3,$4,$5,0*
20,1,$1+$1,$4,$5,$6,$7,0*
20,1,$1+$1,$6,$7,$8,$9,0*
20,1,$1+$1,$8,$9,$2,$3,0*%
G04 Aperture macros list end*
%ADD10R,1.800000X1.800000*%
%ADD11C,1.800000*%
%ADD12R,1.700000X1.700000*%
%ADD13C,1.700000*%
%ADD14C,1.600000*%
%ADD15C,3.500000*%
%ADD16R,2.400000X1.200000*%
%ADD17O,2.400000X1.200000*%
%ADD18RoundRect,0.250000X-0.550000X0.550000X-0.550000X-0.550000X0.550000X-0.550000X0.550000X0.550000X0*%
%ADD19C,1.270000*%
%ADD20C,0.400000*%
G04 APERTURE END LIST*
D10*
X150375000Y-69880000D03*
D11*
X150375000Y-72420000D03*
D12*
X144025000Y-99090000D03*
D13*
X144025000Y-101630000D03*
X144025000Y-104170000D03*
X144025000Y-106710000D03*
X144025000Y-109250000D03*
X144025000Y-111790000D03*
D14*
X138945000Y-83850000D03*
X138945000Y-76230000D03*
D15*
X108465000Y-137190000D03*
D10*
X156725000Y-69880000D03*
D11*
X156725000Y-72420000D03*
D16*
X199905000Y-132110000D03*
D17*
X197365000Y-132110000D03*
X199905000Y-129570000D03*
X197365000Y-129570000D03*
X199905000Y-127030000D03*
X197365000Y-127030000D03*
X199905000Y-124490000D03*
X197365000Y-124490000D03*
X199905000Y-121950000D03*
X197365000Y-121950000D03*
X199905000Y-119410000D03*
X197365000Y-119410000D03*
X199905000Y-116870000D03*
X197365000Y-116870000D03*
X199905000Y-114330000D03*
X197365000Y-114330000D03*
X199905000Y-111790000D03*
X197365000Y-111790000D03*
X199905000Y-109250000D03*
X197365000Y-109250000D03*
X199905000Y-106710000D03*
X197365000Y-106710000D03*
X199905000Y-104170000D03*
X197365000Y-104170000D03*
X199905000Y-101630000D03*
X197365000Y-101630000D03*
X199905000Y-99090000D03*
X197365000Y-99090000D03*
X199905000Y-96550000D03*
X197365000Y-96550000D03*
X199905000Y-94010000D03*
X197365000Y-94010000D03*
X199905000Y-91470000D03*
X197365000Y-91470000D03*
X199905000Y-88930000D03*
X197365000Y-88930000D03*
X199905000Y-86390000D03*
X197365000Y-86390000D03*
X199905000Y-83850000D03*
X197365000Y-83850000D03*
D14*
X150375000Y-83850000D03*
X150375000Y-76230000D03*
D15*
X197365000Y-71150000D03*
D12*
X161805000Y-94010000D03*
D13*
X159265000Y-94010000D03*
D15*
X197365000Y-137698000D03*
D14*
X123110000Y-86390000D03*
X125610000Y-86390000D03*
D17*
X169425000Y-83850000D03*
D16*
X171965000Y-83850000D03*
D17*
X169425000Y-86390000D03*
X171965000Y-86390000D03*
X169425000Y-88930000D03*
X171965000Y-88930000D03*
X169425000Y-91470000D03*
X171965000Y-91470000D03*
X169425000Y-94010000D03*
X171965000Y-94010000D03*
X169425000Y-96550000D03*
X171965000Y-96550000D03*
X169425000Y-99090000D03*
X171965000Y-99090000D03*
X169425000Y-101630000D03*
X171965000Y-101630000D03*
X169425000Y-104170000D03*
X171965000Y-104170000D03*
X169425000Y-106710000D03*
X171965000Y-106710000D03*
X169425000Y-109250000D03*
X171965000Y-109250000D03*
X169425000Y-111790000D03*
X171965000Y-111790000D03*
X169425000Y-114330000D03*
X171965000Y-114330000D03*
X169425000Y-116870000D03*
X171965000Y-116870000D03*
X169425000Y-119410000D03*
X171965000Y-119410000D03*
X169425000Y-121950000D03*
X171965000Y-121950000D03*
X169425000Y-124490000D03*
X171965000Y-124490000D03*
X169425000Y-127030000D03*
X171965000Y-127030000D03*
X169425000Y-129570000D03*
X171965000Y-129570000D03*
X169425000Y-132110000D03*
X171965000Y-132110000D03*
X187205000Y-132110000D03*
X189745000Y-132110000D03*
X187205000Y-129570000D03*
X189745000Y-129570000D03*
X187205000Y-127030000D03*
X189745000Y-127030000D03*
X187205000Y-124490000D03*
X189745000Y-124490000D03*
X187205000Y-121950000D03*
X189745000Y-121950000D03*
X187205000Y-119410000D03*
X189745000Y-119410000D03*
X187205000Y-116870000D03*
X189745000Y-116870000D03*
X187205000Y-114330000D03*
X189745000Y-114330000D03*
X187205000Y-111790000D03*
X189745000Y-111790000D03*
X187205000Y-109250000D03*
X189745000Y-109250000D03*
X187205000Y-106710000D03*
X189745000Y-106710000D03*
X187205000Y-104170000D03*
X189745000Y-104170000D03*
X187205000Y-101630000D03*
X189745000Y-101630000D03*
X187205000Y-99090000D03*
X189745000Y-99090000D03*
X187205000Y-96550000D03*
X189745000Y-96540000D03*
X187205000Y-94010000D03*
X189745000Y-94020000D03*
X187205000Y-91470000D03*
X189745000Y-91470000D03*
X187205000Y-88930000D03*
X189745000Y-88930000D03*
X187205000Y-86390000D03*
X189745000Y-86390000D03*
X187205000Y-83850000D03*
X189745000Y-83850000D03*
D14*
X178355000Y-111790000D03*
X180855000Y-111790000D03*
D12*
X151645000Y-99090000D03*
D13*
X151645000Y-101630000D03*
X151645000Y-104170000D03*
X151645000Y-106710000D03*
X151645000Y-109250000D03*
X151645000Y-111790000D03*
X151645000Y-114330000D03*
X151645000Y-116870000D03*
X151645000Y-119410000D03*
X151645000Y-121950000D03*
X151645000Y-124490000D03*
X151645000Y-127030000D03*
X151645000Y-129570000D03*
X151645000Y-132110000D03*
D12*
X144025000Y-124490000D03*
D13*
X144025000Y-127030000D03*
X144025000Y-129570000D03*
X144025000Y-132110000D03*
D17*
X108465000Y-83850000D03*
D16*
X111005000Y-83850000D03*
D17*
X108465000Y-86390000D03*
X111005000Y-86390000D03*
X108465000Y-88930000D03*
X111005000Y-88930000D03*
X108465000Y-91470000D03*
X111005000Y-91470000D03*
X108465000Y-94010000D03*
X111005000Y-94010000D03*
X108465000Y-96550000D03*
X111005000Y-96550000D03*
X108465000Y-99090000D03*
X111005000Y-99090000D03*
X108465000Y-101630000D03*
X111005000Y-101630000D03*
X108465000Y-104170000D03*
X111005000Y-104170000D03*
X108465000Y-106710000D03*
X111005000Y-106710000D03*
X108465000Y-109250000D03*
X111005000Y-109250000D03*
X108465000Y-111790000D03*
X111005000Y-111790000D03*
X108465000Y-114330000D03*
X111005000Y-114330000D03*
X108465000Y-116870000D03*
X111005000Y-116870000D03*
X108465000Y-119410000D03*
X111005000Y-119410000D03*
X108465000Y-121950000D03*
X111005000Y-121950000D03*
X108465000Y-124490000D03*
X111005000Y-124490000D03*
X128785000Y-124490000D03*
X131325000Y-124490000D03*
X128785000Y-121950000D03*
X131325000Y-121950000D03*
X128785000Y-119410000D03*
X131325000Y-119410000D03*
X128785000Y-116870000D03*
X131325000Y-116870000D03*
X128785000Y-114330000D03*
X131325000Y-114330000D03*
X128785000Y-111790000D03*
X131325000Y-111790000D03*
X128785000Y-109250000D03*
X131325000Y-109250000D03*
X128785000Y-106710000D03*
X131325000Y-106710000D03*
X128785000Y-104170000D03*
X131325000Y-104170000D03*
X128785000Y-101630000D03*
X131325000Y-101630000D03*
X128785000Y-99090000D03*
X131325000Y-99090000D03*
X128785000Y-96550000D03*
X131325000Y-96540000D03*
X128785000Y-94010000D03*
X131325000Y-94020000D03*
X128785000Y-91470000D03*
X131325000Y-91470000D03*
X128785000Y-88930000D03*
X131325000Y-88930000D03*
X128785000Y-86390000D03*
X131325000Y-86390000D03*
X128785000Y-83850000D03*
X131325000Y-83850000D03*
D14*
X156725000Y-83850000D03*
X156725000Y-76230000D03*
D15*
X108465000Y-71150000D03*
D10*
X138945000Y-69880000D03*
D11*
X138945000Y-72420000D03*
D18*
X111005000Y-78135000D03*
D14*
X111005000Y-80635000D03*
D19*
X176493500Y-109928500D03*
X123070000Y-134650000D03*
X178315000Y-134650000D03*
X180347000Y-106456000D03*
X147835000Y-134650000D03*
D20*
X136278000Y-101630000D03*
X136278000Y-97185000D03*
X148470000Y-88930000D03*
X148470000Y-111790000D03*
X147200000Y-106710000D03*
X147200000Y-94020000D03*
X147835000Y-109250000D03*
X147835000Y-91470000D03*
X135770000Y-96540000D03*
X135770000Y-104170000D03*
X157995000Y-127030000D03*
X157995000Y-129570000D03*
X173997000Y-131260000D03*
X173997000Y-116108000D03*
X163075000Y-124998000D03*
X163075000Y-96550000D03*
X163075000Y-111790000D03*
X174505000Y-125760000D03*
X195079000Y-125760000D03*
X174505000Y-116870000D03*
X195079000Y-116870000D03*
X162440000Y-121950000D03*
X194215400Y-105236800D03*
X194215400Y-122966000D03*
X162440000Y-117505000D03*
X192564400Y-112679000D03*
X160789000Y-133323000D03*
X160027000Y-102493600D03*
X161576400Y-124490000D03*
X161576400Y-119410000D03*
X160535000Y-99953600D03*
X176664000Y-112806000D03*
X160535000Y-132110000D03*
X176537000Y-132110000D03*
X183395000Y-104170000D03*
X183639500Y-124490000D03*
X161043000Y-120426000D03*
X191319800Y-104728800D03*
X161043000Y-115121500D03*
X175013000Y-127030000D03*
X175013000Y-123698500D03*
X191650000Y-106710000D03*
X182887000Y-128778500D03*
X182887000Y-113568000D03*
X184157000Y-109885000D03*
X184157000Y-103331800D03*
X184157000Y-129570000D03*
X173108000Y-110774000D03*
X192050000Y-107980000D03*
X192050000Y-118140000D03*
X175013000Y-118140000D03*
X194672600Y-83850000D03*
X194672600Y-92740000D03*
X158503000Y-116870000D03*
X195333000Y-122966000D03*
X195383800Y-117682800D03*
X158503000Y-120680000D03*
X182760000Y-78770000D03*
X182760000Y-94010000D03*
X176029000Y-116363000D03*
X167393000Y-99090000D03*
X174378000Y-110901000D03*
X167393000Y-107980000D03*
X183395000Y-79405000D03*
X183395000Y-90835000D03*
X194825000Y-105694000D03*
X195450500Y-115346000D03*
X167393000Y-102900000D03*
X195079000Y-82326000D03*
X195079000Y-84846000D03*
X195536200Y-88980800D03*
X195510800Y-81818000D03*
X194063000Y-87660000D03*
X194063000Y-82834000D03*
X182125000Y-78135000D03*
X182125000Y-96550000D03*
X191777000Y-102925400D03*
X191777000Y-76230000D03*
X191777000Y-100715600D03*
X184030000Y-88295000D03*
X184030000Y-80040000D03*
X193351800Y-90123800D03*
X187205000Y-81310000D03*
X193301000Y-84641500D03*
X181617000Y-99090000D03*
X181617000Y-77500000D03*
X185173000Y-118140000D03*
X185173000Y-103738200D03*
X191370600Y-100145782D03*
X191269000Y-76865000D03*
X175521000Y-120680000D03*
X175267000Y-112806000D03*
X167520000Y-111790000D03*
X167520000Y-115600000D03*
X192793000Y-102900000D03*
X192793000Y-74960000D03*
X192793000Y-108488000D03*
X192285000Y-105948000D03*
X192285000Y-75549420D03*
X192295500Y-102392000D03*
X184665000Y-80675000D03*
X195115497Y-91470000D03*
X195079000Y-86390000D03*
X184665000Y-85755000D03*
X184665000Y-114330000D03*
X184665000Y-100360000D03*
X163583000Y-117378000D03*
X163710000Y-101630000D03*
X163710000Y-110520000D03*
M02*
