M48
; DRILL file {KiCad 9.0.2} date 2026-02-09T22:24:12+0900
; FORMAT={-:-/ absolute / metric / decimal}
; #@! TF.CreationDate,2026-02-09T22:24:12+09:00
; #@! TF.GenerationSoftware,Kicad,Pcbnew,9.0.2
; #@! TF.FileFunction,Plated,1,2,PTH
FMAT,2
METRIC
; #@! TA.AperFunction,Plated,PTH,ViaDrill
T1C0.200
; #@! TA.AperFunction,Plated,PTH,ComponentDrill
T2C0.800
; #@! TA.AperFunction,Plated,PTH,ViaDrill
T3C0.900
; #@! TA.AperFunction,Plated,PTH,ComponentDrill
T4C0.900
; #@! TA.AperFunction,Plated,PTH,ComponentDrill
T5C1.000
%
G90
G05
T1
X135.77Y-96.54
X135.77Y-104.17
X136.278Y-97.185
X136.278Y-101.63
X147.2Y-94.02
X147.2Y-106.71
X147.835Y-91.47
X147.835Y-109.25
X148.47Y-88.93
X148.47Y-111.79
X157.995Y-127.03
X157.995Y-129.57
X158.503Y-116.87
X158.503Y-120.68
X160.027Y-102.494
X160.535Y-99.954
X160.535Y-132.11
X160.789Y-133.323
X161.043Y-115.121
X161.043Y-120.426
X161.576Y-119.41
X161.576Y-124.49
X162.44Y-117.505
X162.44Y-121.95
X163.075Y-96.55
X163.075Y-111.79
X163.075Y-124.998
X163.583Y-117.378
X163.71Y-101.63
X163.71Y-110.52
X167.393Y-99.09
X167.393Y-102.9
X167.393Y-107.98
X167.52Y-111.79
X167.52Y-115.6
X173.108Y-110.774
X173.997Y-116.108
X173.997Y-131.26
X174.378Y-110.901
X174.505Y-116.87
X174.505Y-125.76
X175.013Y-118.14
X175.013Y-123.698
X175.013Y-127.03
X175.267Y-112.806
X175.521Y-120.68
X176.029Y-116.363
X176.537Y-132.11
X176.664Y-112.806
X181.617Y-77.5
X181.617Y-99.09
X182.125Y-78.135
X182.125Y-96.55
X182.76Y-78.77
X182.76Y-94.01
X182.887Y-113.568
X182.887Y-128.779
X183.395Y-79.405
X183.395Y-90.835
X183.395Y-104.17
X183.639Y-124.49
X184.03Y-80.04
X184.03Y-88.295
X184.157Y-103.332
X184.157Y-109.885
X184.157Y-129.57
X184.665Y-80.675
X184.665Y-85.755
X184.665Y-100.36
X184.665Y-114.33
X185.173Y-103.738
X185.173Y-118.14
X187.205Y-81.31
X191.269Y-76.865
X191.32Y-104.729
X191.371Y-100.146
X191.65Y-106.71
X191.777Y-76.23
X191.777Y-100.716
X191.777Y-102.925
X192.05Y-107.98
X192.05Y-118.14
X192.285Y-75.549
X192.285Y-105.948
X192.296Y-102.392
X192.564Y-112.679
X192.793Y-74.96
X192.793Y-102.9
X192.793Y-108.488
X193.301Y-84.641
X193.352Y-90.124
X194.063Y-82.834
X194.063Y-87.66
X194.215Y-105.237
X194.215Y-122.966
X194.673Y-83.85
X194.673Y-92.74
X194.825Y-105.694
X195.079Y-82.326
X195.079Y-84.846
X195.079Y-86.39
X195.079Y-116.87
X195.079Y-125.76
X195.115Y-91.47
X195.333Y-122.966
X195.384Y-117.683
X195.451Y-115.346
X195.511Y-81.818
X195.536Y-88.981
T2
X108.465Y-83.85
X108.465Y-86.39
X108.465Y-88.93
X108.465Y-91.47
X108.465Y-94.01
X108.465Y-96.55
X108.465Y-99.09
X108.465Y-101.63
X108.465Y-104.17
X108.465Y-106.71
X108.465Y-109.25
X108.465Y-111.79
X108.465Y-114.33
X108.465Y-116.87
X108.465Y-119.41
X108.465Y-121.95
X108.465Y-124.49
X111.005Y-78.135
X111.005Y-80.635
X111.005Y-83.85
X111.005Y-86.39
X111.005Y-88.93
X111.005Y-91.47
X111.005Y-94.01
X111.005Y-96.55
X111.005Y-99.09
X111.005Y-101.63
X111.005Y-104.17
X111.005Y-106.71
X111.005Y-109.25
X111.005Y-111.79
X111.005Y-114.33
X111.005Y-116.87
X111.005Y-119.41
X111.005Y-121.95
X111.005Y-124.49
X123.11Y-86.39
X125.61Y-86.39
X128.785Y-83.85
X128.785Y-86.39
X128.785Y-88.93
X128.785Y-91.47
X128.785Y-94.01
X128.785Y-96.55
X128.785Y-99.09
X128.785Y-101.63
X128.785Y-104.17
X128.785Y-106.71
X128.785Y-109.25
X128.785Y-111.79
X128.785Y-114.33
X128.785Y-116.87
X128.785Y-119.41
X128.785Y-121.95
X128.785Y-124.49
X131.325Y-83.85
X131.325Y-86.39
X131.325Y-88.93
X131.325Y-91.47
X131.325Y-94.02
X131.325Y-96.54
X131.325Y-99.09
X131.325Y-101.63
X131.325Y-104.17
X131.325Y-106.71
X131.325Y-109.25
X131.325Y-111.79
X131.325Y-114.33
X131.325Y-116.87
X131.325Y-119.41
X131.325Y-121.95
X131.325Y-124.49
X138.945Y-76.23
X138.945Y-83.85
X150.375Y-76.23
X150.375Y-83.85
X156.725Y-76.23
X156.725Y-83.85
X169.425Y-83.85
X169.425Y-86.39
X169.425Y-88.93
X169.425Y-91.47
X169.425Y-94.01
X169.425Y-96.55
X169.425Y-99.09
X169.425Y-101.63
X169.425Y-104.17
X169.425Y-106.71
X169.425Y-109.25
X169.425Y-111.79
X169.425Y-114.33
X169.425Y-116.87
X169.425Y-119.41
X169.425Y-121.95
X169.425Y-124.49
X169.425Y-127.03
X169.425Y-129.57
X169.425Y-132.11
X171.965Y-83.85
X171.965Y-86.39
X171.965Y-88.93
X171.965Y-91.47
X171.965Y-94.01
X171.965Y-96.55
X171.965Y-99.09
X171.965Y-101.63
X171.965Y-104.17
X171.965Y-106.71
X171.965Y-109.25
X171.965Y-111.79
X171.965Y-114.33
X171.965Y-116.87
X171.965Y-119.41
X171.965Y-121.95
X171.965Y-124.49
X171.965Y-127.03
X171.965Y-129.57
X171.965Y-132.11
X178.355Y-111.79
X180.855Y-111.79
X187.205Y-83.85
X187.205Y-86.39
X187.205Y-88.93
X187.205Y-91.47
X187.205Y-94.01
X187.205Y-96.55
X187.205Y-99.09
X187.205Y-101.63
X187.205Y-104.17
X187.205Y-106.71
X187.205Y-109.25
X187.205Y-111.79
X187.205Y-114.33
X187.205Y-116.87
X187.205Y-119.41
X187.205Y-121.95
X187.205Y-124.49
X187.205Y-127.03
X187.205Y-129.57
X187.205Y-132.11
X189.745Y-83.85
X189.745Y-86.39
X189.745Y-88.93
X189.745Y-91.47
X189.745Y-94.02
X189.745Y-96.54
X189.745Y-99.09
X189.745Y-101.63
X189.745Y-104.17
X189.745Y-106.71
X189.745Y-109.25
X189.745Y-111.79
X189.745Y-114.33
X189.745Y-116.87
X189.745Y-119.41
X189.745Y-121.95
X189.745Y-124.49
X189.745Y-127.03
X189.745Y-129.57
X189.745Y-132.11
X197.365Y-83.85
X197.365Y-86.39
X197.365Y-88.93
X197.365Y-91.47
X197.365Y-94.01
X197.365Y-96.55
X197.365Y-99.09
X197.365Y-101.63
X197.365Y-104.17
X197.365Y-106.71
X197.365Y-109.25
X197.365Y-111.79
X197.365Y-114.33
X197.365Y-116.87
X197.365Y-119.41
X197.365Y-121.95
X197.365Y-124.49
X197.365Y-127.03
X197.365Y-129.57
X197.365Y-132.11
X199.905Y-83.85
X199.905Y-86.39
X199.905Y-88.93
X199.905Y-91.47
X199.905Y-94.01
X199.905Y-96.55
X199.905Y-99.09
X199.905Y-101.63
X199.905Y-104.17
X199.905Y-106.71
X199.905Y-109.25
X199.905Y-111.79
X199.905Y-114.33
X199.905Y-116.87
X199.905Y-119.41
X199.905Y-121.95
X199.905Y-124.49
X199.905Y-127.03
X199.905Y-129.57
X199.905Y-132.11
T3
X123.07Y-134.65
X147.835Y-134.65
X176.493Y-109.928
X178.315Y-134.65
X180.347Y-106.456
T4
X138.945Y-69.88
X138.945Y-72.42
X150.375Y-69.88
X150.375Y-72.42
X156.725Y-69.88
X156.725Y-72.42
T5
X144.025Y-99.09
X144.025Y-101.63
X144.025Y-104.17
X144.025Y-106.71
X144.025Y-109.25
X144.025Y-111.79
X144.025Y-124.49
X144.025Y-127.03
X144.025Y-129.57
X144.025Y-132.11
X151.645Y-99.09
X151.645Y-101.63
X151.645Y-104.17
X151.645Y-106.71
X151.645Y-109.25
X151.645Y-111.79
X151.645Y-114.33
X151.645Y-116.87
X151.645Y-119.41
X151.645Y-121.95
X151.645Y-124.49
X151.645Y-127.03
X151.645Y-129.57
X151.645Y-132.11
X159.265Y-94.01
X161.805Y-94.01
M30
