%TF.GenerationSoftware,KiCad,Pcbnew,9.0.2*%
%TF.CreationDate,2026-02-09T22:24:12+09:00*%
%TF.ProjectId,EMUZ80_RP2040,454d555a-3830-45f5-9250-323034302e6b,Rev001*%
%TF.SameCoordinates,Original*%
%TF.FileFunction,Drillmap*%
%TF.FilePolarity,Positive*%
%FSLAX45Y45*%
G04 Gerber Fmt 4.5, Leading zero omitted, Abs format (unit mm)*
G04 Created by KiCad (PCBNEW 9.0.2) date 2026-02-09 22:24:12*
%MOMM*%
%LPD*%
G01*
G04 APERTURE LIST*
%ADD10C,0.100000*%
%ADD11C,0.200000*%
G04 APERTURE END LIST*
D10*
X10338500Y-14227000D02*
X10338500Y-6670500D01*
X20244500Y-6670500D02*
X20244500Y-14227000D01*
X20244500Y-14227000D02*
X10338500Y-14227000D01*
X20244500Y-6670500D02*
X10338500Y-6670500D01*
D11*
D10*
X13567000Y-9644000D02*
X13587000Y-9664000D01*
X13587000Y-9644000D02*
X13567000Y-9664000D01*
X13567000Y-10407000D02*
X13587000Y-10427000D01*
X13587000Y-10407000D02*
X13567000Y-10427000D01*
X13617800Y-9708500D02*
X13637800Y-9728500D01*
X13637800Y-9708500D02*
X13617800Y-9728500D01*
X13617800Y-10153000D02*
X13637800Y-10173000D01*
X13637800Y-10153000D02*
X13617800Y-10173000D01*
X14710000Y-9392000D02*
X14730000Y-9412000D01*
X14730000Y-9392000D02*
X14710000Y-9412000D01*
X14710000Y-10661000D02*
X14730000Y-10681000D01*
X14730000Y-10661000D02*
X14710000Y-10681000D01*
X14773500Y-9137000D02*
X14793500Y-9157000D01*
X14793500Y-9137000D02*
X14773500Y-9157000D01*
X14773500Y-10915000D02*
X14793500Y-10935000D01*
X14793500Y-10915000D02*
X14773500Y-10935000D01*
X14837000Y-8883000D02*
X14857000Y-8903000D01*
X14857000Y-8883000D02*
X14837000Y-8903000D01*
X14837000Y-11169000D02*
X14857000Y-11189000D01*
X14857000Y-11169000D02*
X14837000Y-11189000D01*
X15789500Y-12693000D02*
X15809500Y-12713000D01*
X15809500Y-12693000D02*
X15789500Y-12713000D01*
X15789500Y-12947000D02*
X15809500Y-12967000D01*
X15809500Y-12947000D02*
X15789500Y-12967000D01*
X15840300Y-11677000D02*
X15860300Y-11697000D01*
X15860300Y-11677000D02*
X15840300Y-11697000D01*
X15840300Y-12058000D02*
X15860300Y-12078000D01*
X15860300Y-12058000D02*
X15840300Y-12078000D01*
X15992700Y-10239360D02*
X16012700Y-10259360D01*
X16012700Y-10239360D02*
X15992700Y-10259360D01*
X16043500Y-9985360D02*
X16063500Y-10005360D01*
X16063500Y-9985360D02*
X16043500Y-10005360D01*
X16043500Y-13201000D02*
X16063500Y-13221000D01*
X16063500Y-13201000D02*
X16043500Y-13221000D01*
X16068900Y-13322300D02*
X16088900Y-13342300D01*
X16088900Y-13322300D02*
X16068900Y-13342300D01*
X16094300Y-11502150D02*
X16114300Y-11522150D01*
X16114300Y-11502150D02*
X16094300Y-11522150D01*
X16094300Y-12032600D02*
X16114300Y-12052600D01*
X16114300Y-12032600D02*
X16094300Y-12052600D01*
X16147640Y-11931000D02*
X16167640Y-11951000D01*
X16167640Y-11931000D02*
X16147640Y-11951000D01*
X16147640Y-12439000D02*
X16167640Y-12459000D01*
X16167640Y-12439000D02*
X16147640Y-12459000D01*
X16234000Y-11740500D02*
X16254000Y-11760500D01*
X16254000Y-11740500D02*
X16234000Y-11760500D01*
X16234000Y-12185000D02*
X16254000Y-12205000D01*
X16254000Y-12185000D02*
X16234000Y-12205000D01*
X16297500Y-9645000D02*
X16317500Y-9665000D01*
X16317500Y-9645000D02*
X16297500Y-9665000D01*
X16297500Y-11169000D02*
X16317500Y-11189000D01*
X16317500Y-11169000D02*
X16297500Y-11189000D01*
X16297500Y-12489800D02*
X16317500Y-12509800D01*
X16317500Y-12489800D02*
X16297500Y-12509800D01*
X16348300Y-11727800D02*
X16368300Y-11747800D01*
X16368300Y-11727800D02*
X16348300Y-11747800D01*
X16361000Y-10153000D02*
X16381000Y-10173000D01*
X16381000Y-10153000D02*
X16361000Y-10173000D01*
X16361000Y-11042000D02*
X16381000Y-11062000D01*
X16381000Y-11042000D02*
X16361000Y-11062000D01*
X16729300Y-9899000D02*
X16749300Y-9919000D01*
X16749300Y-9899000D02*
X16729300Y-9919000D01*
X16729300Y-10280000D02*
X16749300Y-10300000D01*
X16749300Y-10280000D02*
X16729300Y-10300000D01*
X16729300Y-10788000D02*
X16749300Y-10808000D01*
X16749300Y-10788000D02*
X16729300Y-10808000D01*
X16742000Y-11169000D02*
X16762000Y-11189000D01*
X16762000Y-11169000D02*
X16742000Y-11189000D01*
X16742000Y-11550000D02*
X16762000Y-11570000D01*
X16762000Y-11550000D02*
X16742000Y-11570000D01*
X17300800Y-11067400D02*
X17320800Y-11087400D01*
X17320800Y-11067400D02*
X17300800Y-11087400D01*
X17389700Y-11600800D02*
X17409700Y-11620800D01*
X17409700Y-11600800D02*
X17389700Y-11620800D01*
X17389700Y-13116000D02*
X17409700Y-13136000D01*
X17409700Y-13116000D02*
X17389700Y-13136000D01*
X17427800Y-11080100D02*
X17447800Y-11100100D01*
X17447800Y-11080100D02*
X17427800Y-11100100D01*
X17440500Y-11677000D02*
X17460500Y-11697000D01*
X17460500Y-11677000D02*
X17440500Y-11697000D01*
X17440500Y-12566000D02*
X17460500Y-12586000D01*
X17460500Y-12566000D02*
X17440500Y-12586000D01*
X17491300Y-11804000D02*
X17511300Y-11824000D01*
X17511300Y-11804000D02*
X17491300Y-11824000D01*
X17491300Y-12359850D02*
X17511300Y-12379850D01*
X17511300Y-12359850D02*
X17491300Y-12379850D01*
X17491300Y-12693000D02*
X17511300Y-12713000D01*
X17511300Y-12693000D02*
X17491300Y-12713000D01*
X17516700Y-11270600D02*
X17536700Y-11290600D01*
X17536700Y-11270600D02*
X17516700Y-11290600D01*
X17542100Y-12058000D02*
X17562100Y-12078000D01*
X17562100Y-12058000D02*
X17542100Y-12078000D01*
X17592900Y-11626300D02*
X17612900Y-11646300D01*
X17612900Y-11626300D02*
X17592900Y-11646300D01*
X17643700Y-13201000D02*
X17663700Y-13221000D01*
X17663700Y-13201000D02*
X17643700Y-13221000D01*
X17656400Y-11270600D02*
X17676400Y-11290600D01*
X17676400Y-11270600D02*
X17656400Y-11290600D01*
X18151700Y-7740000D02*
X18171700Y-7760000D01*
X18171700Y-7740000D02*
X18151700Y-7760000D01*
X18151700Y-9899000D02*
X18171700Y-9919000D01*
X18171700Y-9899000D02*
X18151700Y-9919000D01*
X18202500Y-7803500D02*
X18222500Y-7823500D01*
X18222500Y-7803500D02*
X18202500Y-7823500D01*
X18202500Y-9645000D02*
X18222500Y-9665000D01*
X18222500Y-9645000D02*
X18202500Y-9665000D01*
X18266000Y-7867000D02*
X18286000Y-7887000D01*
X18286000Y-7867000D02*
X18266000Y-7887000D01*
X18266000Y-9391000D02*
X18286000Y-9411000D01*
X18286000Y-9391000D02*
X18266000Y-9411000D01*
X18278700Y-11346800D02*
X18298700Y-11366800D01*
X18298700Y-11346800D02*
X18278700Y-11366800D01*
X18278700Y-12867850D02*
X18298700Y-12887850D01*
X18298700Y-12867850D02*
X18278700Y-12887850D01*
X18329500Y-7930500D02*
X18349500Y-7950500D01*
X18349500Y-7930500D02*
X18329500Y-7950500D01*
X18329500Y-9073500D02*
X18349500Y-9093500D01*
X18349500Y-9073500D02*
X18329500Y-9093500D01*
X18329500Y-10407000D02*
X18349500Y-10427000D01*
X18349500Y-10407000D02*
X18329500Y-10427000D01*
X18353950Y-12439000D02*
X18373950Y-12459000D01*
X18373950Y-12439000D02*
X18353950Y-12459000D01*
X18393000Y-7994000D02*
X18413000Y-8014000D01*
X18413000Y-7994000D02*
X18393000Y-8014000D01*
X18393000Y-8819500D02*
X18413000Y-8839500D01*
X18413000Y-8819500D02*
X18393000Y-8839500D01*
X18405700Y-10323180D02*
X18425700Y-10343180D01*
X18425700Y-10323180D02*
X18405700Y-10343180D01*
X18405700Y-10978500D02*
X18425700Y-10998500D01*
X18425700Y-10978500D02*
X18405700Y-10998500D01*
X18405700Y-12947000D02*
X18425700Y-12967000D01*
X18425700Y-12947000D02*
X18405700Y-12967000D01*
X18456500Y-8057500D02*
X18476500Y-8077500D01*
X18476500Y-8057500D02*
X18456500Y-8077500D01*
X18456500Y-8565500D02*
X18476500Y-8585500D01*
X18476500Y-8565500D02*
X18456500Y-8585500D01*
X18456500Y-10026000D02*
X18476500Y-10046000D01*
X18476500Y-10026000D02*
X18456500Y-10046000D01*
X18456500Y-11423000D02*
X18476500Y-11443000D01*
X18476500Y-11423000D02*
X18456500Y-11443000D01*
X18507300Y-10363820D02*
X18527300Y-10383820D01*
X18527300Y-10363820D02*
X18507300Y-10383820D01*
X18507300Y-11804000D02*
X18527300Y-11824000D01*
X18527300Y-11804000D02*
X18507300Y-11824000D01*
X18710500Y-8121000D02*
X18730500Y-8141000D01*
X18730500Y-8121000D02*
X18710500Y-8141000D01*
X19116900Y-7676500D02*
X19136900Y-7696500D01*
X19136900Y-7676500D02*
X19116900Y-7696500D01*
X19121980Y-10462880D02*
X19141980Y-10482880D01*
X19141980Y-10462880D02*
X19121980Y-10482880D01*
X19127060Y-10004578D02*
X19147060Y-10024578D01*
X19147060Y-10004578D02*
X19127060Y-10024578D01*
X19155000Y-10661000D02*
X19175000Y-10681000D01*
X19175000Y-10661000D02*
X19155000Y-10681000D01*
X19167700Y-7613000D02*
X19187700Y-7633000D01*
X19187700Y-7613000D02*
X19167700Y-7633000D01*
X19167700Y-10061560D02*
X19187700Y-10081560D01*
X19187700Y-10061560D02*
X19167700Y-10081560D01*
X19167700Y-10282540D02*
X19187700Y-10302540D01*
X19187700Y-10282540D02*
X19167700Y-10302540D01*
X19195000Y-10788000D02*
X19215000Y-10808000D01*
X19215000Y-10788000D02*
X19195000Y-10808000D01*
X19195000Y-11804000D02*
X19215000Y-11824000D01*
X19215000Y-11804000D02*
X19195000Y-11824000D01*
X19218500Y-7544942D02*
X19238500Y-7564942D01*
X19238500Y-7544942D02*
X19218500Y-7564942D01*
X19218500Y-10584800D02*
X19238500Y-10604800D01*
X19238500Y-10584800D02*
X19218500Y-10604800D01*
X19219550Y-10229200D02*
X19239550Y-10249200D01*
X19239550Y-10229200D02*
X19219550Y-10249200D01*
X19246440Y-11257900D02*
X19266440Y-11277900D01*
X19266440Y-11257900D02*
X19246440Y-11277900D01*
X19269300Y-7486000D02*
X19289300Y-7506000D01*
X19289300Y-7486000D02*
X19269300Y-7506000D01*
X19269300Y-10280000D02*
X19289300Y-10300000D01*
X19289300Y-10280000D02*
X19269300Y-10300000D01*
X19269300Y-10838800D02*
X19289300Y-10858800D01*
X19289300Y-10838800D02*
X19269300Y-10858800D01*
X19320100Y-8454150D02*
X19340100Y-8474150D01*
X19340100Y-8454150D02*
X19320100Y-8474150D01*
X19325180Y-9002380D02*
X19345180Y-9022380D01*
X19345180Y-9002380D02*
X19325180Y-9022380D01*
X19396300Y-8273400D02*
X19416300Y-8293400D01*
X19416300Y-8273400D02*
X19396300Y-8293400D01*
X19396300Y-8756000D02*
X19416300Y-8776000D01*
X19416300Y-8756000D02*
X19396300Y-8776000D01*
X19411540Y-10513680D02*
X19431540Y-10533680D01*
X19431540Y-10513680D02*
X19411540Y-10533680D01*
X19411540Y-12286600D02*
X19431540Y-12306600D01*
X19431540Y-12286600D02*
X19411540Y-12306600D01*
X19457260Y-8375000D02*
X19477260Y-8395000D01*
X19477260Y-8375000D02*
X19457260Y-8395000D01*
X19457260Y-9264000D02*
X19477260Y-9284000D01*
X19477260Y-9264000D02*
X19457260Y-9284000D01*
X19472500Y-10559400D02*
X19492500Y-10579400D01*
X19492500Y-10559400D02*
X19472500Y-10579400D01*
X19497900Y-8222600D02*
X19517900Y-8242600D01*
X19517900Y-8222600D02*
X19497900Y-8242600D01*
X19497900Y-8474600D02*
X19517900Y-8494600D01*
X19517900Y-8474600D02*
X19497900Y-8494600D01*
X19497900Y-8629000D02*
X19517900Y-8649000D01*
X19517900Y-8629000D02*
X19497900Y-8649000D01*
X19497900Y-11677000D02*
X19517900Y-11697000D01*
X19517900Y-11677000D02*
X19497900Y-11697000D01*
X19497900Y-12566000D02*
X19517900Y-12586000D01*
X19517900Y-12566000D02*
X19497900Y-12586000D01*
X19501550Y-9137000D02*
X19521550Y-9157000D01*
X19521550Y-9137000D02*
X19501550Y-9157000D01*
X19523300Y-12286600D02*
X19543300Y-12306600D01*
X19543300Y-12286600D02*
X19523300Y-12306600D01*
X19528380Y-11758280D02*
X19548380Y-11778280D01*
X19548380Y-11758280D02*
X19528380Y-11778280D01*
X19535050Y-11524600D02*
X19555050Y-11544600D01*
X19555050Y-11524600D02*
X19535050Y-11544600D01*
X19541080Y-8171800D02*
X19561080Y-8191800D01*
X19561080Y-8171800D02*
X19541080Y-8191800D01*
X19543620Y-8888080D02*
X19563620Y-8908080D01*
X19563620Y-8888080D02*
X19543620Y-8908080D01*
X10886500Y-8385000D02*
G75*
G02*
X10806500Y-8385000I-40000J0D01*
G01*
X10806500Y-8385000D02*
G75*
G02*
X10886500Y-8385000I40000J0D01*
G01*
X10886500Y-8639000D02*
G75*
G02*
X10806500Y-8639000I-40000J0D01*
G01*
X10806500Y-8639000D02*
G75*
G02*
X10886500Y-8639000I40000J0D01*
G01*
X10886500Y-8893000D02*
G75*
G02*
X10806500Y-8893000I-40000J0D01*
G01*
X10806500Y-8893000D02*
G75*
G02*
X10886500Y-8893000I40000J0D01*
G01*
X10886500Y-9147000D02*
G75*
G02*
X10806500Y-9147000I-40000J0D01*
G01*
X10806500Y-9147000D02*
G75*
G02*
X10886500Y-9147000I40000J0D01*
G01*
X10886500Y-9401000D02*
G75*
G02*
X10806500Y-9401000I-40000J0D01*
G01*
X10806500Y-9401000D02*
G75*
G02*
X10886500Y-9401000I40000J0D01*
G01*
X10886500Y-9655000D02*
G75*
G02*
X10806500Y-9655000I-40000J0D01*
G01*
X10806500Y-9655000D02*
G75*
G02*
X10886500Y-9655000I40000J0D01*
G01*
X10886500Y-9909000D02*
G75*
G02*
X10806500Y-9909000I-40000J0D01*
G01*
X10806500Y-9909000D02*
G75*
G02*
X10886500Y-9909000I40000J0D01*
G01*
X10886500Y-10163000D02*
G75*
G02*
X10806500Y-10163000I-40000J0D01*
G01*
X10806500Y-10163000D02*
G75*
G02*
X10886500Y-10163000I40000J0D01*
G01*
X10886500Y-10417000D02*
G75*
G02*
X10806500Y-10417000I-40000J0D01*
G01*
X10806500Y-10417000D02*
G75*
G02*
X10886500Y-10417000I40000J0D01*
G01*
X10886500Y-10671000D02*
G75*
G02*
X10806500Y-10671000I-40000J0D01*
G01*
X10806500Y-10671000D02*
G75*
G02*
X10886500Y-10671000I40000J0D01*
G01*
X10886500Y-10925000D02*
G75*
G02*
X10806500Y-10925000I-40000J0D01*
G01*
X10806500Y-10925000D02*
G75*
G02*
X10886500Y-10925000I40000J0D01*
G01*
X10886500Y-11179000D02*
G75*
G02*
X10806500Y-11179000I-40000J0D01*
G01*
X10806500Y-11179000D02*
G75*
G02*
X10886500Y-11179000I40000J0D01*
G01*
X10886500Y-11433000D02*
G75*
G02*
X10806500Y-11433000I-40000J0D01*
G01*
X10806500Y-11433000D02*
G75*
G02*
X10886500Y-11433000I40000J0D01*
G01*
X10886500Y-11687000D02*
G75*
G02*
X10806500Y-11687000I-40000J0D01*
G01*
X10806500Y-11687000D02*
G75*
G02*
X10886500Y-11687000I40000J0D01*
G01*
X10886500Y-11941000D02*
G75*
G02*
X10806500Y-11941000I-40000J0D01*
G01*
X10806500Y-11941000D02*
G75*
G02*
X10886500Y-11941000I40000J0D01*
G01*
X10886500Y-12195000D02*
G75*
G02*
X10806500Y-12195000I-40000J0D01*
G01*
X10806500Y-12195000D02*
G75*
G02*
X10886500Y-12195000I40000J0D01*
G01*
X10886500Y-12449000D02*
G75*
G02*
X10806500Y-12449000I-40000J0D01*
G01*
X10806500Y-12449000D02*
G75*
G02*
X10886500Y-12449000I40000J0D01*
G01*
X11140500Y-7813500D02*
G75*
G02*
X11060500Y-7813500I-40000J0D01*
G01*
X11060500Y-7813500D02*
G75*
G02*
X11140500Y-7813500I40000J0D01*
G01*
X11140500Y-8063500D02*
G75*
G02*
X11060500Y-8063500I-40000J0D01*
G01*
X11060500Y-8063500D02*
G75*
G02*
X11140500Y-8063500I40000J0D01*
G01*
X11140500Y-8385000D02*
G75*
G02*
X11060500Y-8385000I-40000J0D01*
G01*
X11060500Y-8385000D02*
G75*
G02*
X11140500Y-8385000I40000J0D01*
G01*
X11140500Y-8639000D02*
G75*
G02*
X11060500Y-8639000I-40000J0D01*
G01*
X11060500Y-8639000D02*
G75*
G02*
X11140500Y-8639000I40000J0D01*
G01*
X11140500Y-8893000D02*
G75*
G02*
X11060500Y-8893000I-40000J0D01*
G01*
X11060500Y-8893000D02*
G75*
G02*
X11140500Y-8893000I40000J0D01*
G01*
X11140500Y-9147000D02*
G75*
G02*
X11060500Y-9147000I-40000J0D01*
G01*
X11060500Y-9147000D02*
G75*
G02*
X11140500Y-9147000I40000J0D01*
G01*
X11140500Y-9401000D02*
G75*
G02*
X11060500Y-9401000I-40000J0D01*
G01*
X11060500Y-9401000D02*
G75*
G02*
X11140500Y-9401000I40000J0D01*
G01*
X11140500Y-9655000D02*
G75*
G02*
X11060500Y-9655000I-40000J0D01*
G01*
X11060500Y-9655000D02*
G75*
G02*
X11140500Y-9655000I40000J0D01*
G01*
X11140500Y-9909000D02*
G75*
G02*
X11060500Y-9909000I-40000J0D01*
G01*
X11060500Y-9909000D02*
G75*
G02*
X11140500Y-9909000I40000J0D01*
G01*
X11140500Y-10163000D02*
G75*
G02*
X11060500Y-10163000I-40000J0D01*
G01*
X11060500Y-10163000D02*
G75*
G02*
X11140500Y-10163000I40000J0D01*
G01*
X11140500Y-10417000D02*
G75*
G02*
X11060500Y-10417000I-40000J0D01*
G01*
X11060500Y-10417000D02*
G75*
G02*
X11140500Y-10417000I40000J0D01*
G01*
X11140500Y-10671000D02*
G75*
G02*
X11060500Y-10671000I-40000J0D01*
G01*
X11060500Y-10671000D02*
G75*
G02*
X11140500Y-10671000I40000J0D01*
G01*
X11140500Y-10925000D02*
G75*
G02*
X11060500Y-10925000I-40000J0D01*
G01*
X11060500Y-10925000D02*
G75*
G02*
X11140500Y-10925000I40000J0D01*
G01*
X11140500Y-11179000D02*
G75*
G02*
X11060500Y-11179000I-40000J0D01*
G01*
X11060500Y-11179000D02*
G75*
G02*
X11140500Y-11179000I40000J0D01*
G01*
X11140500Y-11433000D02*
G75*
G02*
X11060500Y-11433000I-40000J0D01*
G01*
X11060500Y-11433000D02*
G75*
G02*
X11140500Y-11433000I40000J0D01*
G01*
X11140500Y-11687000D02*
G75*
G02*
X11060500Y-11687000I-40000J0D01*
G01*
X11060500Y-11687000D02*
G75*
G02*
X11140500Y-11687000I40000J0D01*
G01*
X11140500Y-11941000D02*
G75*
G02*
X11060500Y-11941000I-40000J0D01*
G01*
X11060500Y-11941000D02*
G75*
G02*
X11140500Y-11941000I40000J0D01*
G01*
X11140500Y-12195000D02*
G75*
G02*
X11060500Y-12195000I-40000J0D01*
G01*
X11060500Y-12195000D02*
G75*
G02*
X11140500Y-12195000I40000J0D01*
G01*
X11140500Y-12449000D02*
G75*
G02*
X11060500Y-12449000I-40000J0D01*
G01*
X11060500Y-12449000D02*
G75*
G02*
X11140500Y-12449000I40000J0D01*
G01*
X12351000Y-8639000D02*
G75*
G02*
X12271000Y-8639000I-40000J0D01*
G01*
X12271000Y-8639000D02*
G75*
G02*
X12351000Y-8639000I40000J0D01*
G01*
X12601000Y-8639000D02*
G75*
G02*
X12521000Y-8639000I-40000J0D01*
G01*
X12521000Y-8639000D02*
G75*
G02*
X12601000Y-8639000I40000J0D01*
G01*
X12918500Y-8385000D02*
G75*
G02*
X12838500Y-8385000I-40000J0D01*
G01*
X12838500Y-8385000D02*
G75*
G02*
X12918500Y-8385000I40000J0D01*
G01*
X12918500Y-8639000D02*
G75*
G02*
X12838500Y-8639000I-40000J0D01*
G01*
X12838500Y-8639000D02*
G75*
G02*
X12918500Y-8639000I40000J0D01*
G01*
X12918500Y-8893000D02*
G75*
G02*
X12838500Y-8893000I-40000J0D01*
G01*
X12838500Y-8893000D02*
G75*
G02*
X12918500Y-8893000I40000J0D01*
G01*
X12918500Y-9147000D02*
G75*
G02*
X12838500Y-9147000I-40000J0D01*
G01*
X12838500Y-9147000D02*
G75*
G02*
X12918500Y-9147000I40000J0D01*
G01*
X12918500Y-9401000D02*
G75*
G02*
X12838500Y-9401000I-40000J0D01*
G01*
X12838500Y-9401000D02*
G75*
G02*
X12918500Y-9401000I40000J0D01*
G01*
X12918500Y-9655000D02*
G75*
G02*
X12838500Y-9655000I-40000J0D01*
G01*
X12838500Y-9655000D02*
G75*
G02*
X12918500Y-9655000I40000J0D01*
G01*
X12918500Y-9909000D02*
G75*
G02*
X12838500Y-9909000I-40000J0D01*
G01*
X12838500Y-9909000D02*
G75*
G02*
X12918500Y-9909000I40000J0D01*
G01*
X12918500Y-10163000D02*
G75*
G02*
X12838500Y-10163000I-40000J0D01*
G01*
X12838500Y-10163000D02*
G75*
G02*
X12918500Y-10163000I40000J0D01*
G01*
X12918500Y-10417000D02*
G75*
G02*
X12838500Y-10417000I-40000J0D01*
G01*
X12838500Y-10417000D02*
G75*
G02*
X12918500Y-10417000I40000J0D01*
G01*
X12918500Y-10671000D02*
G75*
G02*
X12838500Y-10671000I-40000J0D01*
G01*
X12838500Y-10671000D02*
G75*
G02*
X12918500Y-10671000I40000J0D01*
G01*
X12918500Y-10925000D02*
G75*
G02*
X12838500Y-10925000I-40000J0D01*
G01*
X12838500Y-10925000D02*
G75*
G02*
X12918500Y-10925000I40000J0D01*
G01*
X12918500Y-11179000D02*
G75*
G02*
X12838500Y-11179000I-40000J0D01*
G01*
X12838500Y-11179000D02*
G75*
G02*
X12918500Y-11179000I40000J0D01*
G01*
X12918500Y-11433000D02*
G75*
G02*
X12838500Y-11433000I-40000J0D01*
G01*
X12838500Y-11433000D02*
G75*
G02*
X12918500Y-11433000I40000J0D01*
G01*
X12918500Y-11687000D02*
G75*
G02*
X12838500Y-11687000I-40000J0D01*
G01*
X12838500Y-11687000D02*
G75*
G02*
X12918500Y-11687000I40000J0D01*
G01*
X12918500Y-11941000D02*
G75*
G02*
X12838500Y-11941000I-40000J0D01*
G01*
X12838500Y-11941000D02*
G75*
G02*
X12918500Y-11941000I40000J0D01*
G01*
X12918500Y-12195000D02*
G75*
G02*
X12838500Y-12195000I-40000J0D01*
G01*
X12838500Y-12195000D02*
G75*
G02*
X12918500Y-12195000I40000J0D01*
G01*
X12918500Y-12449000D02*
G75*
G02*
X12838500Y-12449000I-40000J0D01*
G01*
X12838500Y-12449000D02*
G75*
G02*
X12918500Y-12449000I40000J0D01*
G01*
X13172500Y-8385000D02*
G75*
G02*
X13092500Y-8385000I-40000J0D01*
G01*
X13092500Y-8385000D02*
G75*
G02*
X13172500Y-8385000I40000J0D01*
G01*
X13172500Y-8639000D02*
G75*
G02*
X13092500Y-8639000I-40000J0D01*
G01*
X13092500Y-8639000D02*
G75*
G02*
X13172500Y-8639000I40000J0D01*
G01*
X13172500Y-8893000D02*
G75*
G02*
X13092500Y-8893000I-40000J0D01*
G01*
X13092500Y-8893000D02*
G75*
G02*
X13172500Y-8893000I40000J0D01*
G01*
X13172500Y-9147000D02*
G75*
G02*
X13092500Y-9147000I-40000J0D01*
G01*
X13092500Y-9147000D02*
G75*
G02*
X13172500Y-9147000I40000J0D01*
G01*
X13172500Y-9402000D02*
G75*
G02*
X13092500Y-9402000I-40000J0D01*
G01*
X13092500Y-9402000D02*
G75*
G02*
X13172500Y-9402000I40000J0D01*
G01*
X13172500Y-9654000D02*
G75*
G02*
X13092500Y-9654000I-40000J0D01*
G01*
X13092500Y-9654000D02*
G75*
G02*
X13172500Y-9654000I40000J0D01*
G01*
X13172500Y-9909000D02*
G75*
G02*
X13092500Y-9909000I-40000J0D01*
G01*
X13092500Y-9909000D02*
G75*
G02*
X13172500Y-9909000I40000J0D01*
G01*
X13172500Y-10163000D02*
G75*
G02*
X13092500Y-10163000I-40000J0D01*
G01*
X13092500Y-10163000D02*
G75*
G02*
X13172500Y-10163000I40000J0D01*
G01*
X13172500Y-10417000D02*
G75*
G02*
X13092500Y-10417000I-40000J0D01*
G01*
X13092500Y-10417000D02*
G75*
G02*
X13172500Y-10417000I40000J0D01*
G01*
X13172500Y-10671000D02*
G75*
G02*
X13092500Y-10671000I-40000J0D01*
G01*
X13092500Y-10671000D02*
G75*
G02*
X13172500Y-10671000I40000J0D01*
G01*
X13172500Y-10925000D02*
G75*
G02*
X13092500Y-10925000I-40000J0D01*
G01*
X13092500Y-10925000D02*
G75*
G02*
X13172500Y-10925000I40000J0D01*
G01*
X13172500Y-11179000D02*
G75*
G02*
X13092500Y-11179000I-40000J0D01*
G01*
X13092500Y-11179000D02*
G75*
G02*
X13172500Y-11179000I40000J0D01*
G01*
X13172500Y-11433000D02*
G75*
G02*
X13092500Y-11433000I-40000J0D01*
G01*
X13092500Y-11433000D02*
G75*
G02*
X13172500Y-11433000I40000J0D01*
G01*
X13172500Y-11687000D02*
G75*
G02*
X13092500Y-11687000I-40000J0D01*
G01*
X13092500Y-11687000D02*
G75*
G02*
X13172500Y-11687000I40000J0D01*
G01*
X13172500Y-11941000D02*
G75*
G02*
X13092500Y-11941000I-40000J0D01*
G01*
X13092500Y-11941000D02*
G75*
G02*
X13172500Y-11941000I40000J0D01*
G01*
X13172500Y-12195000D02*
G75*
G02*
X13092500Y-12195000I-40000J0D01*
G01*
X13092500Y-12195000D02*
G75*
G02*
X13172500Y-12195000I40000J0D01*
G01*
X13172500Y-12449000D02*
G75*
G02*
X13092500Y-12449000I-40000J0D01*
G01*
X13092500Y-12449000D02*
G75*
G02*
X13172500Y-12449000I40000J0D01*
G01*
X13934500Y-7623000D02*
G75*
G02*
X13854500Y-7623000I-40000J0D01*
G01*
X13854500Y-7623000D02*
G75*
G02*
X13934500Y-7623000I40000J0D01*
G01*
X13934500Y-8385000D02*
G75*
G02*
X13854500Y-8385000I-40000J0D01*
G01*
X13854500Y-8385000D02*
G75*
G02*
X13934500Y-8385000I40000J0D01*
G01*
X15077500Y-7623000D02*
G75*
G02*
X14997500Y-7623000I-40000J0D01*
G01*
X14997500Y-7623000D02*
G75*
G02*
X15077500Y-7623000I40000J0D01*
G01*
X15077500Y-8385000D02*
G75*
G02*
X14997500Y-8385000I-40000J0D01*
G01*
X14997500Y-8385000D02*
G75*
G02*
X15077500Y-8385000I40000J0D01*
G01*
X15712500Y-7623000D02*
G75*
G02*
X15632500Y-7623000I-40000J0D01*
G01*
X15632500Y-7623000D02*
G75*
G02*
X15712500Y-7623000I40000J0D01*
G01*
X15712500Y-8385000D02*
G75*
G02*
X15632500Y-8385000I-40000J0D01*
G01*
X15632500Y-8385000D02*
G75*
G02*
X15712500Y-8385000I40000J0D01*
G01*
X16982500Y-8385000D02*
G75*
G02*
X16902500Y-8385000I-40000J0D01*
G01*
X16902500Y-8385000D02*
G75*
G02*
X16982500Y-8385000I40000J0D01*
G01*
X16982500Y-8639000D02*
G75*
G02*
X16902500Y-8639000I-40000J0D01*
G01*
X16902500Y-8639000D02*
G75*
G02*
X16982500Y-8639000I40000J0D01*
G01*
X16982500Y-8893000D02*
G75*
G02*
X16902500Y-8893000I-40000J0D01*
G01*
X16902500Y-8893000D02*
G75*
G02*
X16982500Y-8893000I40000J0D01*
G01*
X16982500Y-9147000D02*
G75*
G02*
X16902500Y-9147000I-40000J0D01*
G01*
X16902500Y-9147000D02*
G75*
G02*
X16982500Y-9147000I40000J0D01*
G01*
X16982500Y-9401000D02*
G75*
G02*
X16902500Y-9401000I-40000J0D01*
G01*
X16902500Y-9401000D02*
G75*
G02*
X16982500Y-9401000I40000J0D01*
G01*
X16982500Y-9655000D02*
G75*
G02*
X16902500Y-9655000I-40000J0D01*
G01*
X16902500Y-9655000D02*
G75*
G02*
X16982500Y-9655000I40000J0D01*
G01*
X16982500Y-9909000D02*
G75*
G02*
X16902500Y-9909000I-40000J0D01*
G01*
X16902500Y-9909000D02*
G75*
G02*
X16982500Y-9909000I40000J0D01*
G01*
X16982500Y-10163000D02*
G75*
G02*
X16902500Y-10163000I-40000J0D01*
G01*
X16902500Y-10163000D02*
G75*
G02*
X16982500Y-10163000I40000J0D01*
G01*
X16982500Y-10417000D02*
G75*
G02*
X16902500Y-10417000I-40000J0D01*
G01*
X16902500Y-10417000D02*
G75*
G02*
X16982500Y-10417000I40000J0D01*
G01*
X16982500Y-10671000D02*
G75*
G02*
X16902500Y-10671000I-40000J0D01*
G01*
X16902500Y-10671000D02*
G75*
G02*
X16982500Y-10671000I40000J0D01*
G01*
X16982500Y-10925000D02*
G75*
G02*
X16902500Y-10925000I-40000J0D01*
G01*
X16902500Y-10925000D02*
G75*
G02*
X16982500Y-10925000I40000J0D01*
G01*
X16982500Y-11179000D02*
G75*
G02*
X16902500Y-11179000I-40000J0D01*
G01*
X16902500Y-11179000D02*
G75*
G02*
X16982500Y-11179000I40000J0D01*
G01*
X16982500Y-11433000D02*
G75*
G02*
X16902500Y-11433000I-40000J0D01*
G01*
X16902500Y-11433000D02*
G75*
G02*
X16982500Y-11433000I40000J0D01*
G01*
X16982500Y-11687000D02*
G75*
G02*
X16902500Y-11687000I-40000J0D01*
G01*
X16902500Y-11687000D02*
G75*
G02*
X16982500Y-11687000I40000J0D01*
G01*
X16982500Y-11941000D02*
G75*
G02*
X16902500Y-11941000I-40000J0D01*
G01*
X16902500Y-11941000D02*
G75*
G02*
X16982500Y-11941000I40000J0D01*
G01*
X16982500Y-12195000D02*
G75*
G02*
X16902500Y-12195000I-40000J0D01*
G01*
X16902500Y-12195000D02*
G75*
G02*
X16982500Y-12195000I40000J0D01*
G01*
X16982500Y-12449000D02*
G75*
G02*
X16902500Y-12449000I-40000J0D01*
G01*
X16902500Y-12449000D02*
G75*
G02*
X16982500Y-12449000I40000J0D01*
G01*
X16982500Y-12703000D02*
G75*
G02*
X16902500Y-12703000I-40000J0D01*
G01*
X16902500Y-12703000D02*
G75*
G02*
X16982500Y-12703000I40000J0D01*
G01*
X16982500Y-12957000D02*
G75*
G02*
X16902500Y-12957000I-40000J0D01*
G01*
X16902500Y-12957000D02*
G75*
G02*
X16982500Y-12957000I40000J0D01*
G01*
X16982500Y-13211000D02*
G75*
G02*
X16902500Y-13211000I-40000J0D01*
G01*
X16902500Y-13211000D02*
G75*
G02*
X16982500Y-13211000I40000J0D01*
G01*
X17236500Y-8385000D02*
G75*
G02*
X17156500Y-8385000I-40000J0D01*
G01*
X17156500Y-8385000D02*
G75*
G02*
X17236500Y-8385000I40000J0D01*
G01*
X17236500Y-8639000D02*
G75*
G02*
X17156500Y-8639000I-40000J0D01*
G01*
X17156500Y-8639000D02*
G75*
G02*
X17236500Y-8639000I40000J0D01*
G01*
X17236500Y-8893000D02*
G75*
G02*
X17156500Y-8893000I-40000J0D01*
G01*
X17156500Y-8893000D02*
G75*
G02*
X17236500Y-8893000I40000J0D01*
G01*
X17236500Y-9147000D02*
G75*
G02*
X17156500Y-9147000I-40000J0D01*
G01*
X17156500Y-9147000D02*
G75*
G02*
X17236500Y-9147000I40000J0D01*
G01*
X17236500Y-9401000D02*
G75*
G02*
X17156500Y-9401000I-40000J0D01*
G01*
X17156500Y-9401000D02*
G75*
G02*
X17236500Y-9401000I40000J0D01*
G01*
X17236500Y-9655000D02*
G75*
G02*
X17156500Y-9655000I-40000J0D01*
G01*
X17156500Y-9655000D02*
G75*
G02*
X17236500Y-9655000I40000J0D01*
G01*
X17236500Y-9909000D02*
G75*
G02*
X17156500Y-9909000I-40000J0D01*
G01*
X17156500Y-9909000D02*
G75*
G02*
X17236500Y-9909000I40000J0D01*
G01*
X17236500Y-10163000D02*
G75*
G02*
X17156500Y-10163000I-40000J0D01*
G01*
X17156500Y-10163000D02*
G75*
G02*
X17236500Y-10163000I40000J0D01*
G01*
X17236500Y-10417000D02*
G75*
G02*
X17156500Y-10417000I-40000J0D01*
G01*
X17156500Y-10417000D02*
G75*
G02*
X17236500Y-10417000I40000J0D01*
G01*
X17236500Y-10671000D02*
G75*
G02*
X17156500Y-10671000I-40000J0D01*
G01*
X17156500Y-10671000D02*
G75*
G02*
X17236500Y-10671000I40000J0D01*
G01*
X17236500Y-10925000D02*
G75*
G02*
X17156500Y-10925000I-40000J0D01*
G01*
X17156500Y-10925000D02*
G75*
G02*
X17236500Y-10925000I40000J0D01*
G01*
X17236500Y-11179000D02*
G75*
G02*
X17156500Y-11179000I-40000J0D01*
G01*
X17156500Y-11179000D02*
G75*
G02*
X17236500Y-11179000I40000J0D01*
G01*
X17236500Y-11433000D02*
G75*
G02*
X17156500Y-11433000I-40000J0D01*
G01*
X17156500Y-11433000D02*
G75*
G02*
X17236500Y-11433000I40000J0D01*
G01*
X17236500Y-11687000D02*
G75*
G02*
X17156500Y-11687000I-40000J0D01*
G01*
X17156500Y-11687000D02*
G75*
G02*
X17236500Y-11687000I40000J0D01*
G01*
X17236500Y-11941000D02*
G75*
G02*
X17156500Y-11941000I-40000J0D01*
G01*
X17156500Y-11941000D02*
G75*
G02*
X17236500Y-11941000I40000J0D01*
G01*
X17236500Y-12195000D02*
G75*
G02*
X17156500Y-12195000I-40000J0D01*
G01*
X17156500Y-12195000D02*
G75*
G02*
X17236500Y-12195000I40000J0D01*
G01*
X17236500Y-12449000D02*
G75*
G02*
X17156500Y-12449000I-40000J0D01*
G01*
X17156500Y-12449000D02*
G75*
G02*
X17236500Y-12449000I40000J0D01*
G01*
X17236500Y-12703000D02*
G75*
G02*
X17156500Y-12703000I-40000J0D01*
G01*
X17156500Y-12703000D02*
G75*
G02*
X17236500Y-12703000I40000J0D01*
G01*
X17236500Y-12957000D02*
G75*
G02*
X17156500Y-12957000I-40000J0D01*
G01*
X17156500Y-12957000D02*
G75*
G02*
X17236500Y-12957000I40000J0D01*
G01*
X17236500Y-13211000D02*
G75*
G02*
X17156500Y-13211000I-40000J0D01*
G01*
X17156500Y-13211000D02*
G75*
G02*
X17236500Y-13211000I40000J0D01*
G01*
X17875500Y-11179000D02*
G75*
G02*
X17795500Y-11179000I-40000J0D01*
G01*
X17795500Y-11179000D02*
G75*
G02*
X17875500Y-11179000I40000J0D01*
G01*
X18125500Y-11179000D02*
G75*
G02*
X18045500Y-11179000I-40000J0D01*
G01*
X18045500Y-11179000D02*
G75*
G02*
X18125500Y-11179000I40000J0D01*
G01*
X18760500Y-8385000D02*
G75*
G02*
X18680500Y-8385000I-40000J0D01*
G01*
X18680500Y-8385000D02*
G75*
G02*
X18760500Y-8385000I40000J0D01*
G01*
X18760500Y-8639000D02*
G75*
G02*
X18680500Y-8639000I-40000J0D01*
G01*
X18680500Y-8639000D02*
G75*
G02*
X18760500Y-8639000I40000J0D01*
G01*
X18760500Y-8893000D02*
G75*
G02*
X18680500Y-8893000I-40000J0D01*
G01*
X18680500Y-8893000D02*
G75*
G02*
X18760500Y-8893000I40000J0D01*
G01*
X18760500Y-9147000D02*
G75*
G02*
X18680500Y-9147000I-40000J0D01*
G01*
X18680500Y-9147000D02*
G75*
G02*
X18760500Y-9147000I40000J0D01*
G01*
X18760500Y-9401000D02*
G75*
G02*
X18680500Y-9401000I-40000J0D01*
G01*
X18680500Y-9401000D02*
G75*
G02*
X18760500Y-9401000I40000J0D01*
G01*
X18760500Y-9655000D02*
G75*
G02*
X18680500Y-9655000I-40000J0D01*
G01*
X18680500Y-9655000D02*
G75*
G02*
X18760500Y-9655000I40000J0D01*
G01*
X18760500Y-9909000D02*
G75*
G02*
X18680500Y-9909000I-40000J0D01*
G01*
X18680500Y-9909000D02*
G75*
G02*
X18760500Y-9909000I40000J0D01*
G01*
X18760500Y-10163000D02*
G75*
G02*
X18680500Y-10163000I-40000J0D01*
G01*
X18680500Y-10163000D02*
G75*
G02*
X18760500Y-10163000I40000J0D01*
G01*
X18760500Y-10417000D02*
G75*
G02*
X18680500Y-10417000I-40000J0D01*
G01*
X18680500Y-10417000D02*
G75*
G02*
X18760500Y-10417000I40000J0D01*
G01*
X18760500Y-10671000D02*
G75*
G02*
X18680500Y-10671000I-40000J0D01*
G01*
X18680500Y-10671000D02*
G75*
G02*
X18760500Y-10671000I40000J0D01*
G01*
X18760500Y-10925000D02*
G75*
G02*
X18680500Y-10925000I-40000J0D01*
G01*
X18680500Y-10925000D02*
G75*
G02*
X18760500Y-10925000I40000J0D01*
G01*
X18760500Y-11179000D02*
G75*
G02*
X18680500Y-11179000I-40000J0D01*
G01*
X18680500Y-11179000D02*
G75*
G02*
X18760500Y-11179000I40000J0D01*
G01*
X18760500Y-11433000D02*
G75*
G02*
X18680500Y-11433000I-40000J0D01*
G01*
X18680500Y-11433000D02*
G75*
G02*
X18760500Y-11433000I40000J0D01*
G01*
X18760500Y-11687000D02*
G75*
G02*
X18680500Y-11687000I-40000J0D01*
G01*
X18680500Y-11687000D02*
G75*
G02*
X18760500Y-11687000I40000J0D01*
G01*
X18760500Y-11941000D02*
G75*
G02*
X18680500Y-11941000I-40000J0D01*
G01*
X18680500Y-11941000D02*
G75*
G02*
X18760500Y-11941000I40000J0D01*
G01*
X18760500Y-12195000D02*
G75*
G02*
X18680500Y-12195000I-40000J0D01*
G01*
X18680500Y-12195000D02*
G75*
G02*
X18760500Y-12195000I40000J0D01*
G01*
X18760500Y-12449000D02*
G75*
G02*
X18680500Y-12449000I-40000J0D01*
G01*
X18680500Y-12449000D02*
G75*
G02*
X18760500Y-12449000I40000J0D01*
G01*
X18760500Y-12703000D02*
G75*
G02*
X18680500Y-12703000I-40000J0D01*
G01*
X18680500Y-12703000D02*
G75*
G02*
X18760500Y-12703000I40000J0D01*
G01*
X18760500Y-12957000D02*
G75*
G02*
X18680500Y-12957000I-40000J0D01*
G01*
X18680500Y-12957000D02*
G75*
G02*
X18760500Y-12957000I40000J0D01*
G01*
X18760500Y-13211000D02*
G75*
G02*
X18680500Y-13211000I-40000J0D01*
G01*
X18680500Y-13211000D02*
G75*
G02*
X18760500Y-13211000I40000J0D01*
G01*
X19014500Y-8385000D02*
G75*
G02*
X18934500Y-8385000I-40000J0D01*
G01*
X18934500Y-8385000D02*
G75*
G02*
X19014500Y-8385000I40000J0D01*
G01*
X19014500Y-8639000D02*
G75*
G02*
X18934500Y-8639000I-40000J0D01*
G01*
X18934500Y-8639000D02*
G75*
G02*
X19014500Y-8639000I40000J0D01*
G01*
X19014500Y-8893000D02*
G75*
G02*
X18934500Y-8893000I-40000J0D01*
G01*
X18934500Y-8893000D02*
G75*
G02*
X19014500Y-8893000I40000J0D01*
G01*
X19014500Y-9147000D02*
G75*
G02*
X18934500Y-9147000I-40000J0D01*
G01*
X18934500Y-9147000D02*
G75*
G02*
X19014500Y-9147000I40000J0D01*
G01*
X19014500Y-9402000D02*
G75*
G02*
X18934500Y-9402000I-40000J0D01*
G01*
X18934500Y-9402000D02*
G75*
G02*
X19014500Y-9402000I40000J0D01*
G01*
X19014500Y-9654000D02*
G75*
G02*
X18934500Y-9654000I-40000J0D01*
G01*
X18934500Y-9654000D02*
G75*
G02*
X19014500Y-9654000I40000J0D01*
G01*
X19014500Y-9909000D02*
G75*
G02*
X18934500Y-9909000I-40000J0D01*
G01*
X18934500Y-9909000D02*
G75*
G02*
X19014500Y-9909000I40000J0D01*
G01*
X19014500Y-10163000D02*
G75*
G02*
X18934500Y-10163000I-40000J0D01*
G01*
X18934500Y-10163000D02*
G75*
G02*
X19014500Y-10163000I40000J0D01*
G01*
X19014500Y-10417000D02*
G75*
G02*
X18934500Y-10417000I-40000J0D01*
G01*
X18934500Y-10417000D02*
G75*
G02*
X19014500Y-10417000I40000J0D01*
G01*
X19014500Y-10671000D02*
G75*
G02*
X18934500Y-10671000I-40000J0D01*
G01*
X18934500Y-10671000D02*
G75*
G02*
X19014500Y-10671000I40000J0D01*
G01*
X19014500Y-10925000D02*
G75*
G02*
X18934500Y-10925000I-40000J0D01*
G01*
X18934500Y-10925000D02*
G75*
G02*
X19014500Y-10925000I40000J0D01*
G01*
X19014500Y-11179000D02*
G75*
G02*
X18934500Y-11179000I-40000J0D01*
G01*
X18934500Y-11179000D02*
G75*
G02*
X19014500Y-11179000I40000J0D01*
G01*
X19014500Y-11433000D02*
G75*
G02*
X18934500Y-11433000I-40000J0D01*
G01*
X18934500Y-11433000D02*
G75*
G02*
X19014500Y-11433000I40000J0D01*
G01*
X19014500Y-11687000D02*
G75*
G02*
X18934500Y-11687000I-40000J0D01*
G01*
X18934500Y-11687000D02*
G75*
G02*
X19014500Y-11687000I40000J0D01*
G01*
X19014500Y-11941000D02*
G75*
G02*
X18934500Y-11941000I-40000J0D01*
G01*
X18934500Y-11941000D02*
G75*
G02*
X19014500Y-11941000I40000J0D01*
G01*
X19014500Y-12195000D02*
G75*
G02*
X18934500Y-12195000I-40000J0D01*
G01*
X18934500Y-12195000D02*
G75*
G02*
X19014500Y-12195000I40000J0D01*
G01*
X19014500Y-12449000D02*
G75*
G02*
X18934500Y-12449000I-40000J0D01*
G01*
X18934500Y-12449000D02*
G75*
G02*
X19014500Y-12449000I40000J0D01*
G01*
X19014500Y-12703000D02*
G75*
G02*
X18934500Y-12703000I-40000J0D01*
G01*
X18934500Y-12703000D02*
G75*
G02*
X19014500Y-12703000I40000J0D01*
G01*
X19014500Y-12957000D02*
G75*
G02*
X18934500Y-12957000I-40000J0D01*
G01*
X18934500Y-12957000D02*
G75*
G02*
X19014500Y-12957000I40000J0D01*
G01*
X19014500Y-13211000D02*
G75*
G02*
X18934500Y-13211000I-40000J0D01*
G01*
X18934500Y-13211000D02*
G75*
G02*
X19014500Y-13211000I40000J0D01*
G01*
X19776500Y-8385000D02*
G75*
G02*
X19696500Y-8385000I-40000J0D01*
G01*
X19696500Y-8385000D02*
G75*
G02*
X19776500Y-8385000I40000J0D01*
G01*
X19776500Y-8639000D02*
G75*
G02*
X19696500Y-8639000I-40000J0D01*
G01*
X19696500Y-8639000D02*
G75*
G02*
X19776500Y-8639000I40000J0D01*
G01*
X19776500Y-8893000D02*
G75*
G02*
X19696500Y-8893000I-40000J0D01*
G01*
X19696500Y-8893000D02*
G75*
G02*
X19776500Y-8893000I40000J0D01*
G01*
X19776500Y-9147000D02*
G75*
G02*
X19696500Y-9147000I-40000J0D01*
G01*
X19696500Y-9147000D02*
G75*
G02*
X19776500Y-9147000I40000J0D01*
G01*
X19776500Y-9401000D02*
G75*
G02*
X19696500Y-9401000I-40000J0D01*
G01*
X19696500Y-9401000D02*
G75*
G02*
X19776500Y-9401000I40000J0D01*
G01*
X19776500Y-9655000D02*
G75*
G02*
X19696500Y-9655000I-40000J0D01*
G01*
X19696500Y-9655000D02*
G75*
G02*
X19776500Y-9655000I40000J0D01*
G01*
X19776500Y-9909000D02*
G75*
G02*
X19696500Y-9909000I-40000J0D01*
G01*
X19696500Y-9909000D02*
G75*
G02*
X19776500Y-9909000I40000J0D01*
G01*
X19776500Y-10163000D02*
G75*
G02*
X19696500Y-10163000I-40000J0D01*
G01*
X19696500Y-10163000D02*
G75*
G02*
X19776500Y-10163000I40000J0D01*
G01*
X19776500Y-10417000D02*
G75*
G02*
X19696500Y-10417000I-40000J0D01*
G01*
X19696500Y-10417000D02*
G75*
G02*
X19776500Y-10417000I40000J0D01*
G01*
X19776500Y-10671000D02*
G75*
G02*
X19696500Y-10671000I-40000J0D01*
G01*
X19696500Y-10671000D02*
G75*
G02*
X19776500Y-10671000I40000J0D01*
G01*
X19776500Y-10925000D02*
G75*
G02*
X19696500Y-10925000I-40000J0D01*
G01*
X19696500Y-10925000D02*
G75*
G02*
X19776500Y-10925000I40000J0D01*
G01*
X19776500Y-11179000D02*
G75*
G02*
X19696500Y-11179000I-40000J0D01*
G01*
X19696500Y-11179000D02*
G75*
G02*
X19776500Y-11179000I40000J0D01*
G01*
X19776500Y-11433000D02*
G75*
G02*
X19696500Y-11433000I-40000J0D01*
G01*
X19696500Y-11433000D02*
G75*
G02*
X19776500Y-11433000I40000J0D01*
G01*
X19776500Y-11687000D02*
G75*
G02*
X19696500Y-11687000I-40000J0D01*
G01*
X19696500Y-11687000D02*
G75*
G02*
X19776500Y-11687000I40000J0D01*
G01*
X19776500Y-11941000D02*
G75*
G02*
X19696500Y-11941000I-40000J0D01*
G01*
X19696500Y-11941000D02*
G75*
G02*
X19776500Y-11941000I40000J0D01*
G01*
X19776500Y-12195000D02*
G75*
G02*
X19696500Y-12195000I-40000J0D01*
G01*
X19696500Y-12195000D02*
G75*
G02*
X19776500Y-12195000I40000J0D01*
G01*
X19776500Y-12449000D02*
G75*
G02*
X19696500Y-12449000I-40000J0D01*
G01*
X19696500Y-12449000D02*
G75*
G02*
X19776500Y-12449000I40000J0D01*
G01*
X19776500Y-12703000D02*
G75*
G02*
X19696500Y-12703000I-40000J0D01*
G01*
X19696500Y-12703000D02*
G75*
G02*
X19776500Y-12703000I40000J0D01*
G01*
X19776500Y-12957000D02*
G75*
G02*
X19696500Y-12957000I-40000J0D01*
G01*
X19696500Y-12957000D02*
G75*
G02*
X19776500Y-12957000I40000J0D01*
G01*
X19776500Y-13211000D02*
G75*
G02*
X19696500Y-13211000I-40000J0D01*
G01*
X19696500Y-13211000D02*
G75*
G02*
X19776500Y-13211000I40000J0D01*
G01*
X20030500Y-8385000D02*
G75*
G02*
X19950500Y-8385000I-40000J0D01*
G01*
X19950500Y-8385000D02*
G75*
G02*
X20030500Y-8385000I40000J0D01*
G01*
X20030500Y-8639000D02*
G75*
G02*
X19950500Y-8639000I-40000J0D01*
G01*
X19950500Y-8639000D02*
G75*
G02*
X20030500Y-8639000I40000J0D01*
G01*
X20030500Y-8893000D02*
G75*
G02*
X19950500Y-8893000I-40000J0D01*
G01*
X19950500Y-8893000D02*
G75*
G02*
X20030500Y-8893000I40000J0D01*
G01*
X20030500Y-9147000D02*
G75*
G02*
X19950500Y-9147000I-40000J0D01*
G01*
X19950500Y-9147000D02*
G75*
G02*
X20030500Y-9147000I40000J0D01*
G01*
X20030500Y-9401000D02*
G75*
G02*
X19950500Y-9401000I-40000J0D01*
G01*
X19950500Y-9401000D02*
G75*
G02*
X20030500Y-9401000I40000J0D01*
G01*
X20030500Y-9655000D02*
G75*
G02*
X19950500Y-9655000I-40000J0D01*
G01*
X19950500Y-9655000D02*
G75*
G02*
X20030500Y-9655000I40000J0D01*
G01*
X20030500Y-9909000D02*
G75*
G02*
X19950500Y-9909000I-40000J0D01*
G01*
X19950500Y-9909000D02*
G75*
G02*
X20030500Y-9909000I40000J0D01*
G01*
X20030500Y-10163000D02*
G75*
G02*
X19950500Y-10163000I-40000J0D01*
G01*
X19950500Y-10163000D02*
G75*
G02*
X20030500Y-10163000I40000J0D01*
G01*
X20030500Y-10417000D02*
G75*
G02*
X19950500Y-10417000I-40000J0D01*
G01*
X19950500Y-10417000D02*
G75*
G02*
X20030500Y-10417000I40000J0D01*
G01*
X20030500Y-10671000D02*
G75*
G02*
X19950500Y-10671000I-40000J0D01*
G01*
X19950500Y-10671000D02*
G75*
G02*
X20030500Y-10671000I40000J0D01*
G01*
X20030500Y-10925000D02*
G75*
G02*
X19950500Y-10925000I-40000J0D01*
G01*
X19950500Y-10925000D02*
G75*
G02*
X20030500Y-10925000I40000J0D01*
G01*
X20030500Y-11179000D02*
G75*
G02*
X19950500Y-11179000I-40000J0D01*
G01*
X19950500Y-11179000D02*
G75*
G02*
X20030500Y-11179000I40000J0D01*
G01*
X20030500Y-11433000D02*
G75*
G02*
X19950500Y-11433000I-40000J0D01*
G01*
X19950500Y-11433000D02*
G75*
G02*
X20030500Y-11433000I40000J0D01*
G01*
X20030500Y-11687000D02*
G75*
G02*
X19950500Y-11687000I-40000J0D01*
G01*
X19950500Y-11687000D02*
G75*
G02*
X20030500Y-11687000I40000J0D01*
G01*
X20030500Y-11941000D02*
G75*
G02*
X19950500Y-11941000I-40000J0D01*
G01*
X19950500Y-11941000D02*
G75*
G02*
X20030500Y-11941000I40000J0D01*
G01*
X20030500Y-12195000D02*
G75*
G02*
X19950500Y-12195000I-40000J0D01*
G01*
X19950500Y-12195000D02*
G75*
G02*
X20030500Y-12195000I40000J0D01*
G01*
X20030500Y-12449000D02*
G75*
G02*
X19950500Y-12449000I-40000J0D01*
G01*
X19950500Y-12449000D02*
G75*
G02*
X20030500Y-12449000I40000J0D01*
G01*
X20030500Y-12703000D02*
G75*
G02*
X19950500Y-12703000I-40000J0D01*
G01*
X19950500Y-12703000D02*
G75*
G02*
X20030500Y-12703000I40000J0D01*
G01*
X20030500Y-12957000D02*
G75*
G02*
X19950500Y-12957000I-40000J0D01*
G01*
X19950500Y-12957000D02*
G75*
G02*
X20030500Y-12957000I40000J0D01*
G01*
X20030500Y-13211000D02*
G75*
G02*
X19950500Y-13211000I-40000J0D01*
G01*
X19950500Y-13211000D02*
G75*
G02*
X20030500Y-13211000I40000J0D01*
G01*
X12307000Y-13420000D02*
X12307000Y-13510000D01*
X12262000Y-13465000D02*
X12352000Y-13465000D01*
X14783500Y-13420000D02*
X14783500Y-13510000D01*
X14738500Y-13465000D02*
X14828500Y-13465000D01*
X17649350Y-10947850D02*
X17649350Y-11037850D01*
X17604350Y-10992850D02*
X17694350Y-10992850D01*
X17831500Y-13420000D02*
X17831500Y-13510000D01*
X17786500Y-13465000D02*
X17876500Y-13465000D01*
X18034700Y-10600600D02*
X18034700Y-10690600D01*
X17989700Y-10645600D02*
X18079700Y-10645600D01*
X13926320Y-7019820D02*
X13926320Y-6956180D01*
X13862680Y-6956180D01*
X13862680Y-7019820D01*
X13926320Y-7019820D01*
X13926320Y-7273820D02*
X13926320Y-7210180D01*
X13862680Y-7210180D01*
X13862680Y-7273820D01*
X13926320Y-7273820D01*
X15069320Y-7019820D02*
X15069320Y-6956180D01*
X15005680Y-6956180D01*
X15005680Y-7019820D01*
X15069320Y-7019820D01*
X15069320Y-7273820D02*
X15069320Y-7210180D01*
X15005680Y-7210180D01*
X15005680Y-7273820D01*
X15069320Y-7273820D01*
X15704320Y-7019820D02*
X15704320Y-6956180D01*
X15640680Y-6956180D01*
X15640680Y-7019820D01*
X15704320Y-7019820D01*
X15704320Y-7273820D02*
X15704320Y-7210180D01*
X15640680Y-7210180D01*
X15640680Y-7273820D01*
X15704320Y-7273820D01*
X14402500Y-9959000D02*
X14452500Y-9909000D01*
X14402500Y-9859000D01*
X14352500Y-9909000D01*
X14402500Y-9959000D01*
X14402500Y-10213000D02*
X14452500Y-10163000D01*
X14402500Y-10113000D01*
X14352500Y-10163000D01*
X14402500Y-10213000D01*
X14402500Y-10467000D02*
X14452500Y-10417000D01*
X14402500Y-10367000D01*
X14352500Y-10417000D01*
X14402500Y-10467000D01*
X14402500Y-10721000D02*
X14452500Y-10671000D01*
X14402500Y-10621000D01*
X14352500Y-10671000D01*
X14402500Y-10721000D01*
X14402500Y-10975000D02*
X14452500Y-10925000D01*
X14402500Y-10875000D01*
X14352500Y-10925000D01*
X14402500Y-10975000D01*
X14402500Y-11229000D02*
X14452500Y-11179000D01*
X14402500Y-11129000D01*
X14352500Y-11179000D01*
X14402500Y-11229000D01*
X14402500Y-12499000D02*
X14452500Y-12449000D01*
X14402500Y-12399000D01*
X14352500Y-12449000D01*
X14402500Y-12499000D01*
X14402500Y-12753000D02*
X14452500Y-12703000D01*
X14402500Y-12653000D01*
X14352500Y-12703000D01*
X14402500Y-12753000D01*
X14402500Y-13007000D02*
X14452500Y-12957000D01*
X14402500Y-12907000D01*
X14352500Y-12957000D01*
X14402500Y-13007000D01*
X14402500Y-13261000D02*
X14452500Y-13211000D01*
X14402500Y-13161000D01*
X14352500Y-13211000D01*
X14402500Y-13261000D01*
X15164500Y-9959000D02*
X15214500Y-9909000D01*
X15164500Y-9859000D01*
X15114500Y-9909000D01*
X15164500Y-9959000D01*
X15164500Y-10213000D02*
X15214500Y-10163000D01*
X15164500Y-10113000D01*
X15114500Y-10163000D01*
X15164500Y-10213000D01*
X15164500Y-10467000D02*
X15214500Y-10417000D01*
X15164500Y-10367000D01*
X15114500Y-10417000D01*
X15164500Y-10467000D01*
X15164500Y-10721000D02*
X15214500Y-10671000D01*
X15164500Y-10621000D01*
X15114500Y-10671000D01*
X15164500Y-10721000D01*
X15164500Y-10975000D02*
X15214500Y-10925000D01*
X15164500Y-10875000D01*
X15114500Y-10925000D01*
X15164500Y-10975000D01*
X15164500Y-11229000D02*
X15214500Y-11179000D01*
X15164500Y-11129000D01*
X15114500Y-11179000D01*
X15164500Y-11229000D01*
X15164500Y-11483000D02*
X15214500Y-11433000D01*
X15164500Y-11383000D01*
X15114500Y-11433000D01*
X15164500Y-11483000D01*
X15164500Y-11737000D02*
X15214500Y-11687000D01*
X15164500Y-11637000D01*
X15114500Y-11687000D01*
X15164500Y-11737000D01*
X15164500Y-11991000D02*
X15214500Y-11941000D01*
X15164500Y-11891000D01*
X15114500Y-11941000D01*
X15164500Y-11991000D01*
X15164500Y-12245000D02*
X15214500Y-12195000D01*
X15164500Y-12145000D01*
X15114500Y-12195000D01*
X15164500Y-12245000D01*
X15164500Y-12499000D02*
X15214500Y-12449000D01*
X15164500Y-12399000D01*
X15114500Y-12449000D01*
X15164500Y-12499000D01*
X15164500Y-12753000D02*
X15214500Y-12703000D01*
X15164500Y-12653000D01*
X15114500Y-12703000D01*
X15164500Y-12753000D01*
X15164500Y-13007000D02*
X15214500Y-12957000D01*
X15164500Y-12907000D01*
X15114500Y-12957000D01*
X15164500Y-13007000D01*
X15164500Y-13261000D02*
X15214500Y-13211000D01*
X15164500Y-13161000D01*
X15114500Y-13211000D01*
X15164500Y-13261000D01*
X15926500Y-9451000D02*
X15976500Y-9401000D01*
X15926500Y-9351000D01*
X15876500Y-9401000D01*
X15926500Y-9451000D01*
X16180500Y-9451000D02*
X16230500Y-9401000D01*
X16180500Y-9351000D01*
X16130500Y-9401000D01*
X16180500Y-9451000D01*
D11*
X10594277Y-14543484D02*
X10594277Y-14343484D01*
X10594277Y-14343484D02*
X10641896Y-14343484D01*
X10641896Y-14343484D02*
X10670467Y-14353008D01*
X10670467Y-14353008D02*
X10689515Y-14372055D01*
X10689515Y-14372055D02*
X10699039Y-14391103D01*
X10699039Y-14391103D02*
X10708563Y-14429198D01*
X10708563Y-14429198D02*
X10708563Y-14457769D01*
X10708563Y-14457769D02*
X10699039Y-14495865D01*
X10699039Y-14495865D02*
X10689515Y-14514912D01*
X10689515Y-14514912D02*
X10670467Y-14533960D01*
X10670467Y-14533960D02*
X10641896Y-14543484D01*
X10641896Y-14543484D02*
X10594277Y-14543484D01*
X10794277Y-14543484D02*
X10794277Y-14410150D01*
X10794277Y-14448246D02*
X10803801Y-14429198D01*
X10803801Y-14429198D02*
X10813324Y-14419674D01*
X10813324Y-14419674D02*
X10832372Y-14410150D01*
X10832372Y-14410150D02*
X10851420Y-14410150D01*
X10918086Y-14543484D02*
X10918086Y-14410150D01*
X10918086Y-14343484D02*
X10908563Y-14353008D01*
X10908563Y-14353008D02*
X10918086Y-14362531D01*
X10918086Y-14362531D02*
X10927610Y-14353008D01*
X10927610Y-14353008D02*
X10918086Y-14343484D01*
X10918086Y-14343484D02*
X10918086Y-14362531D01*
X11041896Y-14543484D02*
X11022848Y-14533960D01*
X11022848Y-14533960D02*
X11013324Y-14514912D01*
X11013324Y-14514912D02*
X11013324Y-14343484D01*
X11146658Y-14543484D02*
X11127610Y-14533960D01*
X11127610Y-14533960D02*
X11118086Y-14514912D01*
X11118086Y-14514912D02*
X11118086Y-14343484D01*
X11375229Y-14543484D02*
X11375229Y-14343484D01*
X11375229Y-14343484D02*
X11441896Y-14486341D01*
X11441896Y-14486341D02*
X11508562Y-14343484D01*
X11508562Y-14343484D02*
X11508562Y-14543484D01*
X11689515Y-14543484D02*
X11689515Y-14438722D01*
X11689515Y-14438722D02*
X11679991Y-14419674D01*
X11679991Y-14419674D02*
X11660943Y-14410150D01*
X11660943Y-14410150D02*
X11622848Y-14410150D01*
X11622848Y-14410150D02*
X11603801Y-14419674D01*
X11689515Y-14533960D02*
X11670467Y-14543484D01*
X11670467Y-14543484D02*
X11622848Y-14543484D01*
X11622848Y-14543484D02*
X11603801Y-14533960D01*
X11603801Y-14533960D02*
X11594277Y-14514912D01*
X11594277Y-14514912D02*
X11594277Y-14495865D01*
X11594277Y-14495865D02*
X11603801Y-14476817D01*
X11603801Y-14476817D02*
X11622848Y-14467293D01*
X11622848Y-14467293D02*
X11670467Y-14467293D01*
X11670467Y-14467293D02*
X11689515Y-14457769D01*
X11784753Y-14410150D02*
X11784753Y-14610150D01*
X11784753Y-14419674D02*
X11803801Y-14410150D01*
X11803801Y-14410150D02*
X11841896Y-14410150D01*
X11841896Y-14410150D02*
X11860943Y-14419674D01*
X11860943Y-14419674D02*
X11870467Y-14429198D01*
X11870467Y-14429198D02*
X11879991Y-14448246D01*
X11879991Y-14448246D02*
X11879991Y-14505388D01*
X11879991Y-14505388D02*
X11870467Y-14524436D01*
X11870467Y-14524436D02*
X11860943Y-14533960D01*
X11860943Y-14533960D02*
X11841896Y-14543484D01*
X11841896Y-14543484D02*
X11803801Y-14543484D01*
X11803801Y-14543484D02*
X11784753Y-14533960D01*
X11965705Y-14524436D02*
X11975229Y-14533960D01*
X11975229Y-14533960D02*
X11965705Y-14543484D01*
X11965705Y-14543484D02*
X11956182Y-14533960D01*
X11956182Y-14533960D02*
X11965705Y-14524436D01*
X11965705Y-14524436D02*
X11965705Y-14543484D01*
X11965705Y-14419674D02*
X11975229Y-14429198D01*
X11975229Y-14429198D02*
X11965705Y-14438722D01*
X11965705Y-14438722D02*
X11956182Y-14429198D01*
X11956182Y-14429198D02*
X11965705Y-14419674D01*
X11965705Y-14419674D02*
X11965705Y-14438722D01*
D10*
X10313500Y-14862000D02*
X10333500Y-14882000D01*
X10333500Y-14862000D02*
X10313500Y-14882000D01*
D11*
X10632372Y-14763484D02*
X10651420Y-14763484D01*
X10651420Y-14763484D02*
X10670467Y-14773008D01*
X10670467Y-14773008D02*
X10679991Y-14782531D01*
X10679991Y-14782531D02*
X10689515Y-14801579D01*
X10689515Y-14801579D02*
X10699039Y-14839674D01*
X10699039Y-14839674D02*
X10699039Y-14887293D01*
X10699039Y-14887293D02*
X10689515Y-14925388D01*
X10689515Y-14925388D02*
X10679991Y-14944436D01*
X10679991Y-14944436D02*
X10670467Y-14953960D01*
X10670467Y-14953960D02*
X10651420Y-14963484D01*
X10651420Y-14963484D02*
X10632372Y-14963484D01*
X10632372Y-14963484D02*
X10613324Y-14953960D01*
X10613324Y-14953960D02*
X10603801Y-14944436D01*
X10603801Y-14944436D02*
X10594277Y-14925388D01*
X10594277Y-14925388D02*
X10584753Y-14887293D01*
X10584753Y-14887293D02*
X10584753Y-14839674D01*
X10584753Y-14839674D02*
X10594277Y-14801579D01*
X10594277Y-14801579D02*
X10603801Y-14782531D01*
X10603801Y-14782531D02*
X10613324Y-14773008D01*
X10613324Y-14773008D02*
X10632372Y-14763484D01*
X10784753Y-14944436D02*
X10794277Y-14953960D01*
X10794277Y-14953960D02*
X10784753Y-14963484D01*
X10784753Y-14963484D02*
X10775229Y-14953960D01*
X10775229Y-14953960D02*
X10784753Y-14944436D01*
X10784753Y-14944436D02*
X10784753Y-14963484D01*
X10870467Y-14782531D02*
X10879991Y-14773008D01*
X10879991Y-14773008D02*
X10899039Y-14763484D01*
X10899039Y-14763484D02*
X10946658Y-14763484D01*
X10946658Y-14763484D02*
X10965705Y-14773008D01*
X10965705Y-14773008D02*
X10975229Y-14782531D01*
X10975229Y-14782531D02*
X10984753Y-14801579D01*
X10984753Y-14801579D02*
X10984753Y-14820627D01*
X10984753Y-14820627D02*
X10975229Y-14849198D01*
X10975229Y-14849198D02*
X10860944Y-14963484D01*
X10860944Y-14963484D02*
X10984753Y-14963484D01*
X11108563Y-14763484D02*
X11127610Y-14763484D01*
X11127610Y-14763484D02*
X11146658Y-14773008D01*
X11146658Y-14773008D02*
X11156182Y-14782531D01*
X11156182Y-14782531D02*
X11165705Y-14801579D01*
X11165705Y-14801579D02*
X11175229Y-14839674D01*
X11175229Y-14839674D02*
X11175229Y-14887293D01*
X11175229Y-14887293D02*
X11165705Y-14925388D01*
X11165705Y-14925388D02*
X11156182Y-14944436D01*
X11156182Y-14944436D02*
X11146658Y-14953960D01*
X11146658Y-14953960D02*
X11127610Y-14963484D01*
X11127610Y-14963484D02*
X11108563Y-14963484D01*
X11108563Y-14963484D02*
X11089515Y-14953960D01*
X11089515Y-14953960D02*
X11079991Y-14944436D01*
X11079991Y-14944436D02*
X11070467Y-14925388D01*
X11070467Y-14925388D02*
X11060944Y-14887293D01*
X11060944Y-14887293D02*
X11060944Y-14839674D01*
X11060944Y-14839674D02*
X11070467Y-14801579D01*
X11070467Y-14801579D02*
X11079991Y-14782531D01*
X11079991Y-14782531D02*
X11089515Y-14773008D01*
X11089515Y-14773008D02*
X11108563Y-14763484D01*
X11299039Y-14763484D02*
X11318086Y-14763484D01*
X11318086Y-14763484D02*
X11337134Y-14773008D01*
X11337134Y-14773008D02*
X11346658Y-14782531D01*
X11346658Y-14782531D02*
X11356182Y-14801579D01*
X11356182Y-14801579D02*
X11365705Y-14839674D01*
X11365705Y-14839674D02*
X11365705Y-14887293D01*
X11365705Y-14887293D02*
X11356182Y-14925388D01*
X11356182Y-14925388D02*
X11346658Y-14944436D01*
X11346658Y-14944436D02*
X11337134Y-14953960D01*
X11337134Y-14953960D02*
X11318086Y-14963484D01*
X11318086Y-14963484D02*
X11299039Y-14963484D01*
X11299039Y-14963484D02*
X11279991Y-14953960D01*
X11279991Y-14953960D02*
X11270467Y-14944436D01*
X11270467Y-14944436D02*
X11260943Y-14925388D01*
X11260943Y-14925388D02*
X11251420Y-14887293D01*
X11251420Y-14887293D02*
X11251420Y-14839674D01*
X11251420Y-14839674D02*
X11260943Y-14801579D01*
X11260943Y-14801579D02*
X11270467Y-14782531D01*
X11270467Y-14782531D02*
X11279991Y-14773008D01*
X11279991Y-14773008D02*
X11299039Y-14763484D01*
X11451420Y-14963484D02*
X11451420Y-14830150D01*
X11451420Y-14849198D02*
X11460943Y-14839674D01*
X11460943Y-14839674D02*
X11479991Y-14830150D01*
X11479991Y-14830150D02*
X11508563Y-14830150D01*
X11508563Y-14830150D02*
X11527610Y-14839674D01*
X11527610Y-14839674D02*
X11537134Y-14858722D01*
X11537134Y-14858722D02*
X11537134Y-14963484D01*
X11537134Y-14858722D02*
X11546658Y-14839674D01*
X11546658Y-14839674D02*
X11565705Y-14830150D01*
X11565705Y-14830150D02*
X11594277Y-14830150D01*
X11594277Y-14830150D02*
X11613324Y-14839674D01*
X11613324Y-14839674D02*
X11622848Y-14858722D01*
X11622848Y-14858722D02*
X11622848Y-14963484D01*
X11718086Y-14963484D02*
X11718086Y-14830150D01*
X11718086Y-14849198D02*
X11727610Y-14839674D01*
X11727610Y-14839674D02*
X11746658Y-14830150D01*
X11746658Y-14830150D02*
X11775229Y-14830150D01*
X11775229Y-14830150D02*
X11794277Y-14839674D01*
X11794277Y-14839674D02*
X11803801Y-14858722D01*
X11803801Y-14858722D02*
X11803801Y-14963484D01*
X11803801Y-14858722D02*
X11813324Y-14839674D01*
X11813324Y-14839674D02*
X11832372Y-14830150D01*
X11832372Y-14830150D02*
X11860943Y-14830150D01*
X11860943Y-14830150D02*
X11879991Y-14839674D01*
X11879991Y-14839674D02*
X11889515Y-14858722D01*
X11889515Y-14858722D02*
X11889515Y-14963484D01*
X12279991Y-14753960D02*
X12108563Y-15011103D01*
X12537134Y-14763484D02*
X12556182Y-14763484D01*
X12556182Y-14763484D02*
X12575229Y-14773008D01*
X12575229Y-14773008D02*
X12584753Y-14782531D01*
X12584753Y-14782531D02*
X12594277Y-14801579D01*
X12594277Y-14801579D02*
X12603801Y-14839674D01*
X12603801Y-14839674D02*
X12603801Y-14887293D01*
X12603801Y-14887293D02*
X12594277Y-14925388D01*
X12594277Y-14925388D02*
X12584753Y-14944436D01*
X12584753Y-14944436D02*
X12575229Y-14953960D01*
X12575229Y-14953960D02*
X12556182Y-14963484D01*
X12556182Y-14963484D02*
X12537134Y-14963484D01*
X12537134Y-14963484D02*
X12518086Y-14953960D01*
X12518086Y-14953960D02*
X12508563Y-14944436D01*
X12508563Y-14944436D02*
X12499039Y-14925388D01*
X12499039Y-14925388D02*
X12489515Y-14887293D01*
X12489515Y-14887293D02*
X12489515Y-14839674D01*
X12489515Y-14839674D02*
X12499039Y-14801579D01*
X12499039Y-14801579D02*
X12508563Y-14782531D01*
X12508563Y-14782531D02*
X12518086Y-14773008D01*
X12518086Y-14773008D02*
X12537134Y-14763484D01*
X12689515Y-14944436D02*
X12699039Y-14953960D01*
X12699039Y-14953960D02*
X12689515Y-14963484D01*
X12689515Y-14963484D02*
X12679991Y-14953960D01*
X12679991Y-14953960D02*
X12689515Y-14944436D01*
X12689515Y-14944436D02*
X12689515Y-14963484D01*
X12822848Y-14763484D02*
X12841896Y-14763484D01*
X12841896Y-14763484D02*
X12860944Y-14773008D01*
X12860944Y-14773008D02*
X12870467Y-14782531D01*
X12870467Y-14782531D02*
X12879991Y-14801579D01*
X12879991Y-14801579D02*
X12889515Y-14839674D01*
X12889515Y-14839674D02*
X12889515Y-14887293D01*
X12889515Y-14887293D02*
X12879991Y-14925388D01*
X12879991Y-14925388D02*
X12870467Y-14944436D01*
X12870467Y-14944436D02*
X12860944Y-14953960D01*
X12860944Y-14953960D02*
X12841896Y-14963484D01*
X12841896Y-14963484D02*
X12822848Y-14963484D01*
X12822848Y-14963484D02*
X12803801Y-14953960D01*
X12803801Y-14953960D02*
X12794277Y-14944436D01*
X12794277Y-14944436D02*
X12784753Y-14925388D01*
X12784753Y-14925388D02*
X12775229Y-14887293D01*
X12775229Y-14887293D02*
X12775229Y-14839674D01*
X12775229Y-14839674D02*
X12784753Y-14801579D01*
X12784753Y-14801579D02*
X12794277Y-14782531D01*
X12794277Y-14782531D02*
X12803801Y-14773008D01*
X12803801Y-14773008D02*
X12822848Y-14763484D01*
X13013325Y-14763484D02*
X13032372Y-14763484D01*
X13032372Y-14763484D02*
X13051420Y-14773008D01*
X13051420Y-14773008D02*
X13060944Y-14782531D01*
X13060944Y-14782531D02*
X13070467Y-14801579D01*
X13070467Y-14801579D02*
X13079991Y-14839674D01*
X13079991Y-14839674D02*
X13079991Y-14887293D01*
X13079991Y-14887293D02*
X13070467Y-14925388D01*
X13070467Y-14925388D02*
X13060944Y-14944436D01*
X13060944Y-14944436D02*
X13051420Y-14953960D01*
X13051420Y-14953960D02*
X13032372Y-14963484D01*
X13032372Y-14963484D02*
X13013325Y-14963484D01*
X13013325Y-14963484D02*
X12994277Y-14953960D01*
X12994277Y-14953960D02*
X12984753Y-14944436D01*
X12984753Y-14944436D02*
X12975229Y-14925388D01*
X12975229Y-14925388D02*
X12965706Y-14887293D01*
X12965706Y-14887293D02*
X12965706Y-14839674D01*
X12965706Y-14839674D02*
X12975229Y-14801579D01*
X12975229Y-14801579D02*
X12984753Y-14782531D01*
X12984753Y-14782531D02*
X12994277Y-14773008D01*
X12994277Y-14773008D02*
X13013325Y-14763484D01*
X13146658Y-14763484D02*
X13279991Y-14763484D01*
X13279991Y-14763484D02*
X13194277Y-14963484D01*
X13365706Y-14963484D02*
X13403801Y-14963484D01*
X13403801Y-14963484D02*
X13422848Y-14953960D01*
X13422848Y-14953960D02*
X13432372Y-14944436D01*
X13432372Y-14944436D02*
X13451420Y-14915865D01*
X13451420Y-14915865D02*
X13460944Y-14877769D01*
X13460944Y-14877769D02*
X13460944Y-14801579D01*
X13460944Y-14801579D02*
X13451420Y-14782531D01*
X13451420Y-14782531D02*
X13441896Y-14773008D01*
X13441896Y-14773008D02*
X13422848Y-14763484D01*
X13422848Y-14763484D02*
X13384753Y-14763484D01*
X13384753Y-14763484D02*
X13365706Y-14773008D01*
X13365706Y-14773008D02*
X13356182Y-14782531D01*
X13356182Y-14782531D02*
X13346658Y-14801579D01*
X13346658Y-14801579D02*
X13346658Y-14849198D01*
X13346658Y-14849198D02*
X13356182Y-14868246D01*
X13356182Y-14868246D02*
X13365706Y-14877769D01*
X13365706Y-14877769D02*
X13384753Y-14887293D01*
X13384753Y-14887293D02*
X13422848Y-14887293D01*
X13422848Y-14887293D02*
X13441896Y-14877769D01*
X13441896Y-14877769D02*
X13451420Y-14868246D01*
X13451420Y-14868246D02*
X13460944Y-14849198D01*
X13537134Y-14763484D02*
X13537134Y-14801579D01*
X13613325Y-14763484D02*
X13613325Y-14801579D01*
X13908563Y-15039674D02*
X13899039Y-15030150D01*
X13899039Y-15030150D02*
X13879991Y-15001579D01*
X13879991Y-15001579D02*
X13870468Y-14982531D01*
X13870468Y-14982531D02*
X13860944Y-14953960D01*
X13860944Y-14953960D02*
X13851420Y-14906341D01*
X13851420Y-14906341D02*
X13851420Y-14868246D01*
X13851420Y-14868246D02*
X13860944Y-14820627D01*
X13860944Y-14820627D02*
X13870468Y-14792055D01*
X13870468Y-14792055D02*
X13879991Y-14773008D01*
X13879991Y-14773008D02*
X13899039Y-14744436D01*
X13899039Y-14744436D02*
X13908563Y-14734912D01*
X14089515Y-14963484D02*
X13975229Y-14963484D01*
X14032372Y-14963484D02*
X14032372Y-14763484D01*
X14032372Y-14763484D02*
X14013325Y-14792055D01*
X14013325Y-14792055D02*
X13994277Y-14811103D01*
X13994277Y-14811103D02*
X13975229Y-14820627D01*
X14213325Y-14763484D02*
X14232372Y-14763484D01*
X14232372Y-14763484D02*
X14251420Y-14773008D01*
X14251420Y-14773008D02*
X14260944Y-14782531D01*
X14260944Y-14782531D02*
X14270468Y-14801579D01*
X14270468Y-14801579D02*
X14279991Y-14839674D01*
X14279991Y-14839674D02*
X14279991Y-14887293D01*
X14279991Y-14887293D02*
X14270468Y-14925388D01*
X14270468Y-14925388D02*
X14260944Y-14944436D01*
X14260944Y-14944436D02*
X14251420Y-14953960D01*
X14251420Y-14953960D02*
X14232372Y-14963484D01*
X14232372Y-14963484D02*
X14213325Y-14963484D01*
X14213325Y-14963484D02*
X14194277Y-14953960D01*
X14194277Y-14953960D02*
X14184753Y-14944436D01*
X14184753Y-14944436D02*
X14175229Y-14925388D01*
X14175229Y-14925388D02*
X14165706Y-14887293D01*
X14165706Y-14887293D02*
X14165706Y-14839674D01*
X14165706Y-14839674D02*
X14175229Y-14801579D01*
X14175229Y-14801579D02*
X14184753Y-14782531D01*
X14184753Y-14782531D02*
X14194277Y-14773008D01*
X14194277Y-14773008D02*
X14213325Y-14763484D01*
X14375229Y-14963484D02*
X14413325Y-14963484D01*
X14413325Y-14963484D02*
X14432372Y-14953960D01*
X14432372Y-14953960D02*
X14441896Y-14944436D01*
X14441896Y-14944436D02*
X14460944Y-14915865D01*
X14460944Y-14915865D02*
X14470468Y-14877769D01*
X14470468Y-14877769D02*
X14470468Y-14801579D01*
X14470468Y-14801579D02*
X14460944Y-14782531D01*
X14460944Y-14782531D02*
X14451420Y-14773008D01*
X14451420Y-14773008D02*
X14432372Y-14763484D01*
X14432372Y-14763484D02*
X14394277Y-14763484D01*
X14394277Y-14763484D02*
X14375229Y-14773008D01*
X14375229Y-14773008D02*
X14365706Y-14782531D01*
X14365706Y-14782531D02*
X14356182Y-14801579D01*
X14356182Y-14801579D02*
X14356182Y-14849198D01*
X14356182Y-14849198D02*
X14365706Y-14868246D01*
X14365706Y-14868246D02*
X14375229Y-14877769D01*
X14375229Y-14877769D02*
X14394277Y-14887293D01*
X14394277Y-14887293D02*
X14432372Y-14887293D01*
X14432372Y-14887293D02*
X14451420Y-14877769D01*
X14451420Y-14877769D02*
X14460944Y-14868246D01*
X14460944Y-14868246D02*
X14470468Y-14849198D01*
X14708563Y-14963484D02*
X14708563Y-14763484D01*
X14794277Y-14963484D02*
X14794277Y-14858722D01*
X14794277Y-14858722D02*
X14784753Y-14839674D01*
X14784753Y-14839674D02*
X14765706Y-14830150D01*
X14765706Y-14830150D02*
X14737134Y-14830150D01*
X14737134Y-14830150D02*
X14718087Y-14839674D01*
X14718087Y-14839674D02*
X14708563Y-14849198D01*
X14918087Y-14963484D02*
X14899039Y-14953960D01*
X14899039Y-14953960D02*
X14889515Y-14944436D01*
X14889515Y-14944436D02*
X14879991Y-14925388D01*
X14879991Y-14925388D02*
X14879991Y-14868246D01*
X14879991Y-14868246D02*
X14889515Y-14849198D01*
X14889515Y-14849198D02*
X14899039Y-14839674D01*
X14899039Y-14839674D02*
X14918087Y-14830150D01*
X14918087Y-14830150D02*
X14946658Y-14830150D01*
X14946658Y-14830150D02*
X14965706Y-14839674D01*
X14965706Y-14839674D02*
X14975230Y-14849198D01*
X14975230Y-14849198D02*
X14984753Y-14868246D01*
X14984753Y-14868246D02*
X14984753Y-14925388D01*
X14984753Y-14925388D02*
X14975230Y-14944436D01*
X14975230Y-14944436D02*
X14965706Y-14953960D01*
X14965706Y-14953960D02*
X14946658Y-14963484D01*
X14946658Y-14963484D02*
X14918087Y-14963484D01*
X15099039Y-14963484D02*
X15079991Y-14953960D01*
X15079991Y-14953960D02*
X15070468Y-14934912D01*
X15070468Y-14934912D02*
X15070468Y-14763484D01*
X15251420Y-14953960D02*
X15232372Y-14963484D01*
X15232372Y-14963484D02*
X15194277Y-14963484D01*
X15194277Y-14963484D02*
X15175230Y-14953960D01*
X15175230Y-14953960D02*
X15165706Y-14934912D01*
X15165706Y-14934912D02*
X15165706Y-14858722D01*
X15165706Y-14858722D02*
X15175230Y-14839674D01*
X15175230Y-14839674D02*
X15194277Y-14830150D01*
X15194277Y-14830150D02*
X15232372Y-14830150D01*
X15232372Y-14830150D02*
X15251420Y-14839674D01*
X15251420Y-14839674D02*
X15260944Y-14858722D01*
X15260944Y-14858722D02*
X15260944Y-14877769D01*
X15260944Y-14877769D02*
X15165706Y-14896817D01*
X15337134Y-14953960D02*
X15356182Y-14963484D01*
X15356182Y-14963484D02*
X15394277Y-14963484D01*
X15394277Y-14963484D02*
X15413325Y-14953960D01*
X15413325Y-14953960D02*
X15422849Y-14934912D01*
X15422849Y-14934912D02*
X15422849Y-14925388D01*
X15422849Y-14925388D02*
X15413325Y-14906341D01*
X15413325Y-14906341D02*
X15394277Y-14896817D01*
X15394277Y-14896817D02*
X15365706Y-14896817D01*
X15365706Y-14896817D02*
X15346658Y-14887293D01*
X15346658Y-14887293D02*
X15337134Y-14868246D01*
X15337134Y-14868246D02*
X15337134Y-14858722D01*
X15337134Y-14858722D02*
X15346658Y-14839674D01*
X15346658Y-14839674D02*
X15365706Y-14830150D01*
X15365706Y-14830150D02*
X15394277Y-14830150D01*
X15394277Y-14830150D02*
X15413325Y-14839674D01*
X15489515Y-15039674D02*
X15499039Y-15030150D01*
X15499039Y-15030150D02*
X15518087Y-15001579D01*
X15518087Y-15001579D02*
X15527611Y-14982531D01*
X15527611Y-14982531D02*
X15537134Y-14953960D01*
X15537134Y-14953960D02*
X15546658Y-14906341D01*
X15546658Y-14906341D02*
X15546658Y-14868246D01*
X15546658Y-14868246D02*
X15537134Y-14820627D01*
X15537134Y-14820627D02*
X15527611Y-14792055D01*
X15527611Y-14792055D02*
X15518087Y-14773008D01*
X15518087Y-14773008D02*
X15499039Y-14744436D01*
X15499039Y-14744436D02*
X15489515Y-14734912D01*
D10*
X10333500Y-15136000D02*
G75*
G02*
X10253500Y-15136000I-40000J0D01*
G01*
X10253500Y-15136000D02*
G75*
G02*
X10333500Y-15136000I40000J0D01*
G01*
D11*
X10632372Y-15027484D02*
X10651420Y-15027484D01*
X10651420Y-15027484D02*
X10670467Y-15037008D01*
X10670467Y-15037008D02*
X10679991Y-15046531D01*
X10679991Y-15046531D02*
X10689515Y-15065579D01*
X10689515Y-15065579D02*
X10699039Y-15103674D01*
X10699039Y-15103674D02*
X10699039Y-15151293D01*
X10699039Y-15151293D02*
X10689515Y-15189388D01*
X10689515Y-15189388D02*
X10679991Y-15208436D01*
X10679991Y-15208436D02*
X10670467Y-15217960D01*
X10670467Y-15217960D02*
X10651420Y-15227484D01*
X10651420Y-15227484D02*
X10632372Y-15227484D01*
X10632372Y-15227484D02*
X10613324Y-15217960D01*
X10613324Y-15217960D02*
X10603801Y-15208436D01*
X10603801Y-15208436D02*
X10594277Y-15189388D01*
X10594277Y-15189388D02*
X10584753Y-15151293D01*
X10584753Y-15151293D02*
X10584753Y-15103674D01*
X10584753Y-15103674D02*
X10594277Y-15065579D01*
X10594277Y-15065579D02*
X10603801Y-15046531D01*
X10603801Y-15046531D02*
X10613324Y-15037008D01*
X10613324Y-15037008D02*
X10632372Y-15027484D01*
X10784753Y-15208436D02*
X10794277Y-15217960D01*
X10794277Y-15217960D02*
X10784753Y-15227484D01*
X10784753Y-15227484D02*
X10775229Y-15217960D01*
X10775229Y-15217960D02*
X10784753Y-15208436D01*
X10784753Y-15208436D02*
X10784753Y-15227484D01*
X10908563Y-15113198D02*
X10889515Y-15103674D01*
X10889515Y-15103674D02*
X10879991Y-15094150D01*
X10879991Y-15094150D02*
X10870467Y-15075103D01*
X10870467Y-15075103D02*
X10870467Y-15065579D01*
X10870467Y-15065579D02*
X10879991Y-15046531D01*
X10879991Y-15046531D02*
X10889515Y-15037008D01*
X10889515Y-15037008D02*
X10908563Y-15027484D01*
X10908563Y-15027484D02*
X10946658Y-15027484D01*
X10946658Y-15027484D02*
X10965705Y-15037008D01*
X10965705Y-15037008D02*
X10975229Y-15046531D01*
X10975229Y-15046531D02*
X10984753Y-15065579D01*
X10984753Y-15065579D02*
X10984753Y-15075103D01*
X10984753Y-15075103D02*
X10975229Y-15094150D01*
X10975229Y-15094150D02*
X10965705Y-15103674D01*
X10965705Y-15103674D02*
X10946658Y-15113198D01*
X10946658Y-15113198D02*
X10908563Y-15113198D01*
X10908563Y-15113198D02*
X10889515Y-15122722D01*
X10889515Y-15122722D02*
X10879991Y-15132246D01*
X10879991Y-15132246D02*
X10870467Y-15151293D01*
X10870467Y-15151293D02*
X10870467Y-15189388D01*
X10870467Y-15189388D02*
X10879991Y-15208436D01*
X10879991Y-15208436D02*
X10889515Y-15217960D01*
X10889515Y-15217960D02*
X10908563Y-15227484D01*
X10908563Y-15227484D02*
X10946658Y-15227484D01*
X10946658Y-15227484D02*
X10965705Y-15217960D01*
X10965705Y-15217960D02*
X10975229Y-15208436D01*
X10975229Y-15208436D02*
X10984753Y-15189388D01*
X10984753Y-15189388D02*
X10984753Y-15151293D01*
X10984753Y-15151293D02*
X10975229Y-15132246D01*
X10975229Y-15132246D02*
X10965705Y-15122722D01*
X10965705Y-15122722D02*
X10946658Y-15113198D01*
X11108563Y-15027484D02*
X11127610Y-15027484D01*
X11127610Y-15027484D02*
X11146658Y-15037008D01*
X11146658Y-15037008D02*
X11156182Y-15046531D01*
X11156182Y-15046531D02*
X11165705Y-15065579D01*
X11165705Y-15065579D02*
X11175229Y-15103674D01*
X11175229Y-15103674D02*
X11175229Y-15151293D01*
X11175229Y-15151293D02*
X11165705Y-15189388D01*
X11165705Y-15189388D02*
X11156182Y-15208436D01*
X11156182Y-15208436D02*
X11146658Y-15217960D01*
X11146658Y-15217960D02*
X11127610Y-15227484D01*
X11127610Y-15227484D02*
X11108563Y-15227484D01*
X11108563Y-15227484D02*
X11089515Y-15217960D01*
X11089515Y-15217960D02*
X11079991Y-15208436D01*
X11079991Y-15208436D02*
X11070467Y-15189388D01*
X11070467Y-15189388D02*
X11060944Y-15151293D01*
X11060944Y-15151293D02*
X11060944Y-15103674D01*
X11060944Y-15103674D02*
X11070467Y-15065579D01*
X11070467Y-15065579D02*
X11079991Y-15046531D01*
X11079991Y-15046531D02*
X11089515Y-15037008D01*
X11089515Y-15037008D02*
X11108563Y-15027484D01*
X11299039Y-15027484D02*
X11318086Y-15027484D01*
X11318086Y-15027484D02*
X11337134Y-15037008D01*
X11337134Y-15037008D02*
X11346658Y-15046531D01*
X11346658Y-15046531D02*
X11356182Y-15065579D01*
X11356182Y-15065579D02*
X11365705Y-15103674D01*
X11365705Y-15103674D02*
X11365705Y-15151293D01*
X11365705Y-15151293D02*
X11356182Y-15189388D01*
X11356182Y-15189388D02*
X11346658Y-15208436D01*
X11346658Y-15208436D02*
X11337134Y-15217960D01*
X11337134Y-15217960D02*
X11318086Y-15227484D01*
X11318086Y-15227484D02*
X11299039Y-15227484D01*
X11299039Y-15227484D02*
X11279991Y-15217960D01*
X11279991Y-15217960D02*
X11270467Y-15208436D01*
X11270467Y-15208436D02*
X11260943Y-15189388D01*
X11260943Y-15189388D02*
X11251420Y-15151293D01*
X11251420Y-15151293D02*
X11251420Y-15103674D01*
X11251420Y-15103674D02*
X11260943Y-15065579D01*
X11260943Y-15065579D02*
X11270467Y-15046531D01*
X11270467Y-15046531D02*
X11279991Y-15037008D01*
X11279991Y-15037008D02*
X11299039Y-15027484D01*
X11451420Y-15227484D02*
X11451420Y-15094150D01*
X11451420Y-15113198D02*
X11460943Y-15103674D01*
X11460943Y-15103674D02*
X11479991Y-15094150D01*
X11479991Y-15094150D02*
X11508563Y-15094150D01*
X11508563Y-15094150D02*
X11527610Y-15103674D01*
X11527610Y-15103674D02*
X11537134Y-15122722D01*
X11537134Y-15122722D02*
X11537134Y-15227484D01*
X11537134Y-15122722D02*
X11546658Y-15103674D01*
X11546658Y-15103674D02*
X11565705Y-15094150D01*
X11565705Y-15094150D02*
X11594277Y-15094150D01*
X11594277Y-15094150D02*
X11613324Y-15103674D01*
X11613324Y-15103674D02*
X11622848Y-15122722D01*
X11622848Y-15122722D02*
X11622848Y-15227484D01*
X11718086Y-15227484D02*
X11718086Y-15094150D01*
X11718086Y-15113198D02*
X11727610Y-15103674D01*
X11727610Y-15103674D02*
X11746658Y-15094150D01*
X11746658Y-15094150D02*
X11775229Y-15094150D01*
X11775229Y-15094150D02*
X11794277Y-15103674D01*
X11794277Y-15103674D02*
X11803801Y-15122722D01*
X11803801Y-15122722D02*
X11803801Y-15227484D01*
X11803801Y-15122722D02*
X11813324Y-15103674D01*
X11813324Y-15103674D02*
X11832372Y-15094150D01*
X11832372Y-15094150D02*
X11860943Y-15094150D01*
X11860943Y-15094150D02*
X11879991Y-15103674D01*
X11879991Y-15103674D02*
X11889515Y-15122722D01*
X11889515Y-15122722D02*
X11889515Y-15227484D01*
X12279991Y-15017960D02*
X12108563Y-15275103D01*
X12537134Y-15027484D02*
X12556182Y-15027484D01*
X12556182Y-15027484D02*
X12575229Y-15037008D01*
X12575229Y-15037008D02*
X12584753Y-15046531D01*
X12584753Y-15046531D02*
X12594277Y-15065579D01*
X12594277Y-15065579D02*
X12603801Y-15103674D01*
X12603801Y-15103674D02*
X12603801Y-15151293D01*
X12603801Y-15151293D02*
X12594277Y-15189388D01*
X12594277Y-15189388D02*
X12584753Y-15208436D01*
X12584753Y-15208436D02*
X12575229Y-15217960D01*
X12575229Y-15217960D02*
X12556182Y-15227484D01*
X12556182Y-15227484D02*
X12537134Y-15227484D01*
X12537134Y-15227484D02*
X12518086Y-15217960D01*
X12518086Y-15217960D02*
X12508563Y-15208436D01*
X12508563Y-15208436D02*
X12499039Y-15189388D01*
X12499039Y-15189388D02*
X12489515Y-15151293D01*
X12489515Y-15151293D02*
X12489515Y-15103674D01*
X12489515Y-15103674D02*
X12499039Y-15065579D01*
X12499039Y-15065579D02*
X12508563Y-15046531D01*
X12508563Y-15046531D02*
X12518086Y-15037008D01*
X12518086Y-15037008D02*
X12537134Y-15027484D01*
X12689515Y-15208436D02*
X12699039Y-15217960D01*
X12699039Y-15217960D02*
X12689515Y-15227484D01*
X12689515Y-15227484D02*
X12679991Y-15217960D01*
X12679991Y-15217960D02*
X12689515Y-15208436D01*
X12689515Y-15208436D02*
X12689515Y-15227484D01*
X12822848Y-15027484D02*
X12841896Y-15027484D01*
X12841896Y-15027484D02*
X12860944Y-15037008D01*
X12860944Y-15037008D02*
X12870467Y-15046531D01*
X12870467Y-15046531D02*
X12879991Y-15065579D01*
X12879991Y-15065579D02*
X12889515Y-15103674D01*
X12889515Y-15103674D02*
X12889515Y-15151293D01*
X12889515Y-15151293D02*
X12879991Y-15189388D01*
X12879991Y-15189388D02*
X12870467Y-15208436D01*
X12870467Y-15208436D02*
X12860944Y-15217960D01*
X12860944Y-15217960D02*
X12841896Y-15227484D01*
X12841896Y-15227484D02*
X12822848Y-15227484D01*
X12822848Y-15227484D02*
X12803801Y-15217960D01*
X12803801Y-15217960D02*
X12794277Y-15208436D01*
X12794277Y-15208436D02*
X12784753Y-15189388D01*
X12784753Y-15189388D02*
X12775229Y-15151293D01*
X12775229Y-15151293D02*
X12775229Y-15103674D01*
X12775229Y-15103674D02*
X12784753Y-15065579D01*
X12784753Y-15065579D02*
X12794277Y-15046531D01*
X12794277Y-15046531D02*
X12803801Y-15037008D01*
X12803801Y-15037008D02*
X12822848Y-15027484D01*
X12956182Y-15027484D02*
X13079991Y-15027484D01*
X13079991Y-15027484D02*
X13013325Y-15103674D01*
X13013325Y-15103674D02*
X13041896Y-15103674D01*
X13041896Y-15103674D02*
X13060944Y-15113198D01*
X13060944Y-15113198D02*
X13070467Y-15122722D01*
X13070467Y-15122722D02*
X13079991Y-15141769D01*
X13079991Y-15141769D02*
X13079991Y-15189388D01*
X13079991Y-15189388D02*
X13070467Y-15208436D01*
X13070467Y-15208436D02*
X13060944Y-15217960D01*
X13060944Y-15217960D02*
X13041896Y-15227484D01*
X13041896Y-15227484D02*
X12984753Y-15227484D01*
X12984753Y-15227484D02*
X12965706Y-15217960D01*
X12965706Y-15217960D02*
X12956182Y-15208436D01*
X13270467Y-15227484D02*
X13156182Y-15227484D01*
X13213325Y-15227484D02*
X13213325Y-15027484D01*
X13213325Y-15027484D02*
X13194277Y-15056055D01*
X13194277Y-15056055D02*
X13175229Y-15075103D01*
X13175229Y-15075103D02*
X13156182Y-15084627D01*
X13451420Y-15027484D02*
X13356182Y-15027484D01*
X13356182Y-15027484D02*
X13346658Y-15122722D01*
X13346658Y-15122722D02*
X13356182Y-15113198D01*
X13356182Y-15113198D02*
X13375229Y-15103674D01*
X13375229Y-15103674D02*
X13422848Y-15103674D01*
X13422848Y-15103674D02*
X13441896Y-15113198D01*
X13441896Y-15113198D02*
X13451420Y-15122722D01*
X13451420Y-15122722D02*
X13460944Y-15141769D01*
X13460944Y-15141769D02*
X13460944Y-15189388D01*
X13460944Y-15189388D02*
X13451420Y-15208436D01*
X13451420Y-15208436D02*
X13441896Y-15217960D01*
X13441896Y-15217960D02*
X13422848Y-15227484D01*
X13422848Y-15227484D02*
X13375229Y-15227484D01*
X13375229Y-15227484D02*
X13356182Y-15217960D01*
X13356182Y-15217960D02*
X13346658Y-15208436D01*
X13537134Y-15027484D02*
X13537134Y-15065579D01*
X13613325Y-15027484D02*
X13613325Y-15065579D01*
X13908563Y-15303674D02*
X13899039Y-15294150D01*
X13899039Y-15294150D02*
X13879991Y-15265579D01*
X13879991Y-15265579D02*
X13870468Y-15246531D01*
X13870468Y-15246531D02*
X13860944Y-15217960D01*
X13860944Y-15217960D02*
X13851420Y-15170341D01*
X13851420Y-15170341D02*
X13851420Y-15132246D01*
X13851420Y-15132246D02*
X13860944Y-15084627D01*
X13860944Y-15084627D02*
X13870468Y-15056055D01*
X13870468Y-15056055D02*
X13879991Y-15037008D01*
X13879991Y-15037008D02*
X13899039Y-15008436D01*
X13899039Y-15008436D02*
X13908563Y-14998912D01*
X13975229Y-15046531D02*
X13984753Y-15037008D01*
X13984753Y-15037008D02*
X14003801Y-15027484D01*
X14003801Y-15027484D02*
X14051420Y-15027484D01*
X14051420Y-15027484D02*
X14070468Y-15037008D01*
X14070468Y-15037008D02*
X14079991Y-15046531D01*
X14079991Y-15046531D02*
X14089515Y-15065579D01*
X14089515Y-15065579D02*
X14089515Y-15084627D01*
X14089515Y-15084627D02*
X14079991Y-15113198D01*
X14079991Y-15113198D02*
X13965706Y-15227484D01*
X13965706Y-15227484D02*
X14089515Y-15227484D01*
X14213325Y-15027484D02*
X14232372Y-15027484D01*
X14232372Y-15027484D02*
X14251420Y-15037008D01*
X14251420Y-15037008D02*
X14260944Y-15046531D01*
X14260944Y-15046531D02*
X14270468Y-15065579D01*
X14270468Y-15065579D02*
X14279991Y-15103674D01*
X14279991Y-15103674D02*
X14279991Y-15151293D01*
X14279991Y-15151293D02*
X14270468Y-15189388D01*
X14270468Y-15189388D02*
X14260944Y-15208436D01*
X14260944Y-15208436D02*
X14251420Y-15217960D01*
X14251420Y-15217960D02*
X14232372Y-15227484D01*
X14232372Y-15227484D02*
X14213325Y-15227484D01*
X14213325Y-15227484D02*
X14194277Y-15217960D01*
X14194277Y-15217960D02*
X14184753Y-15208436D01*
X14184753Y-15208436D02*
X14175229Y-15189388D01*
X14175229Y-15189388D02*
X14165706Y-15151293D01*
X14165706Y-15151293D02*
X14165706Y-15103674D01*
X14165706Y-15103674D02*
X14175229Y-15065579D01*
X14175229Y-15065579D02*
X14184753Y-15046531D01*
X14184753Y-15046531D02*
X14194277Y-15037008D01*
X14194277Y-15037008D02*
X14213325Y-15027484D01*
X14403801Y-15027484D02*
X14422849Y-15027484D01*
X14422849Y-15027484D02*
X14441896Y-15037008D01*
X14441896Y-15037008D02*
X14451420Y-15046531D01*
X14451420Y-15046531D02*
X14460944Y-15065579D01*
X14460944Y-15065579D02*
X14470468Y-15103674D01*
X14470468Y-15103674D02*
X14470468Y-15151293D01*
X14470468Y-15151293D02*
X14460944Y-15189388D01*
X14460944Y-15189388D02*
X14451420Y-15208436D01*
X14451420Y-15208436D02*
X14441896Y-15217960D01*
X14441896Y-15217960D02*
X14422849Y-15227484D01*
X14422849Y-15227484D02*
X14403801Y-15227484D01*
X14403801Y-15227484D02*
X14384753Y-15217960D01*
X14384753Y-15217960D02*
X14375229Y-15208436D01*
X14375229Y-15208436D02*
X14365706Y-15189388D01*
X14365706Y-15189388D02*
X14356182Y-15151293D01*
X14356182Y-15151293D02*
X14356182Y-15103674D01*
X14356182Y-15103674D02*
X14365706Y-15065579D01*
X14365706Y-15065579D02*
X14375229Y-15046531D01*
X14375229Y-15046531D02*
X14384753Y-15037008D01*
X14384753Y-15037008D02*
X14403801Y-15027484D01*
X14708563Y-15227484D02*
X14708563Y-15027484D01*
X14794277Y-15227484D02*
X14794277Y-15122722D01*
X14794277Y-15122722D02*
X14784753Y-15103674D01*
X14784753Y-15103674D02*
X14765706Y-15094150D01*
X14765706Y-15094150D02*
X14737134Y-15094150D01*
X14737134Y-15094150D02*
X14718087Y-15103674D01*
X14718087Y-15103674D02*
X14708563Y-15113198D01*
X14918087Y-15227484D02*
X14899039Y-15217960D01*
X14899039Y-15217960D02*
X14889515Y-15208436D01*
X14889515Y-15208436D02*
X14879991Y-15189388D01*
X14879991Y-15189388D02*
X14879991Y-15132246D01*
X14879991Y-15132246D02*
X14889515Y-15113198D01*
X14889515Y-15113198D02*
X14899039Y-15103674D01*
X14899039Y-15103674D02*
X14918087Y-15094150D01*
X14918087Y-15094150D02*
X14946658Y-15094150D01*
X14946658Y-15094150D02*
X14965706Y-15103674D01*
X14965706Y-15103674D02*
X14975230Y-15113198D01*
X14975230Y-15113198D02*
X14984753Y-15132246D01*
X14984753Y-15132246D02*
X14984753Y-15189388D01*
X14984753Y-15189388D02*
X14975230Y-15208436D01*
X14975230Y-15208436D02*
X14965706Y-15217960D01*
X14965706Y-15217960D02*
X14946658Y-15227484D01*
X14946658Y-15227484D02*
X14918087Y-15227484D01*
X15099039Y-15227484D02*
X15079991Y-15217960D01*
X15079991Y-15217960D02*
X15070468Y-15198912D01*
X15070468Y-15198912D02*
X15070468Y-15027484D01*
X15251420Y-15217960D02*
X15232372Y-15227484D01*
X15232372Y-15227484D02*
X15194277Y-15227484D01*
X15194277Y-15227484D02*
X15175230Y-15217960D01*
X15175230Y-15217960D02*
X15165706Y-15198912D01*
X15165706Y-15198912D02*
X15165706Y-15122722D01*
X15165706Y-15122722D02*
X15175230Y-15103674D01*
X15175230Y-15103674D02*
X15194277Y-15094150D01*
X15194277Y-15094150D02*
X15232372Y-15094150D01*
X15232372Y-15094150D02*
X15251420Y-15103674D01*
X15251420Y-15103674D02*
X15260944Y-15122722D01*
X15260944Y-15122722D02*
X15260944Y-15141769D01*
X15260944Y-15141769D02*
X15165706Y-15160817D01*
X15337134Y-15217960D02*
X15356182Y-15227484D01*
X15356182Y-15227484D02*
X15394277Y-15227484D01*
X15394277Y-15227484D02*
X15413325Y-15217960D01*
X15413325Y-15217960D02*
X15422849Y-15198912D01*
X15422849Y-15198912D02*
X15422849Y-15189388D01*
X15422849Y-15189388D02*
X15413325Y-15170341D01*
X15413325Y-15170341D02*
X15394277Y-15160817D01*
X15394277Y-15160817D02*
X15365706Y-15160817D01*
X15365706Y-15160817D02*
X15346658Y-15151293D01*
X15346658Y-15151293D02*
X15337134Y-15132246D01*
X15337134Y-15132246D02*
X15337134Y-15122722D01*
X15337134Y-15122722D02*
X15346658Y-15103674D01*
X15346658Y-15103674D02*
X15365706Y-15094150D01*
X15365706Y-15094150D02*
X15394277Y-15094150D01*
X15394277Y-15094150D02*
X15413325Y-15103674D01*
X15489515Y-15303674D02*
X15499039Y-15294150D01*
X15499039Y-15294150D02*
X15518087Y-15265579D01*
X15518087Y-15265579D02*
X15527611Y-15246531D01*
X15527611Y-15246531D02*
X15537134Y-15217960D01*
X15537134Y-15217960D02*
X15546658Y-15170341D01*
X15546658Y-15170341D02*
X15546658Y-15132246D01*
X15546658Y-15132246D02*
X15537134Y-15084627D01*
X15537134Y-15084627D02*
X15527611Y-15056055D01*
X15527611Y-15056055D02*
X15518087Y-15037008D01*
X15518087Y-15037008D02*
X15499039Y-15008436D01*
X15499039Y-15008436D02*
X15489515Y-14998912D01*
D10*
X10288500Y-15355000D02*
X10288500Y-15445000D01*
X10243500Y-15400000D02*
X10333500Y-15400000D01*
D11*
X10632372Y-15291484D02*
X10651420Y-15291484D01*
X10651420Y-15291484D02*
X10670467Y-15301008D01*
X10670467Y-15301008D02*
X10679991Y-15310531D01*
X10679991Y-15310531D02*
X10689515Y-15329579D01*
X10689515Y-15329579D02*
X10699039Y-15367674D01*
X10699039Y-15367674D02*
X10699039Y-15415293D01*
X10699039Y-15415293D02*
X10689515Y-15453388D01*
X10689515Y-15453388D02*
X10679991Y-15472436D01*
X10679991Y-15472436D02*
X10670467Y-15481960D01*
X10670467Y-15481960D02*
X10651420Y-15491484D01*
X10651420Y-15491484D02*
X10632372Y-15491484D01*
X10632372Y-15491484D02*
X10613324Y-15481960D01*
X10613324Y-15481960D02*
X10603801Y-15472436D01*
X10603801Y-15472436D02*
X10594277Y-15453388D01*
X10594277Y-15453388D02*
X10584753Y-15415293D01*
X10584753Y-15415293D02*
X10584753Y-15367674D01*
X10584753Y-15367674D02*
X10594277Y-15329579D01*
X10594277Y-15329579D02*
X10603801Y-15310531D01*
X10603801Y-15310531D02*
X10613324Y-15301008D01*
X10613324Y-15301008D02*
X10632372Y-15291484D01*
X10784753Y-15472436D02*
X10794277Y-15481960D01*
X10794277Y-15481960D02*
X10784753Y-15491484D01*
X10784753Y-15491484D02*
X10775229Y-15481960D01*
X10775229Y-15481960D02*
X10784753Y-15472436D01*
X10784753Y-15472436D02*
X10784753Y-15491484D01*
X10889515Y-15491484D02*
X10927610Y-15491484D01*
X10927610Y-15491484D02*
X10946658Y-15481960D01*
X10946658Y-15481960D02*
X10956182Y-15472436D01*
X10956182Y-15472436D02*
X10975229Y-15443865D01*
X10975229Y-15443865D02*
X10984753Y-15405769D01*
X10984753Y-15405769D02*
X10984753Y-15329579D01*
X10984753Y-15329579D02*
X10975229Y-15310531D01*
X10975229Y-15310531D02*
X10965705Y-15301008D01*
X10965705Y-15301008D02*
X10946658Y-15291484D01*
X10946658Y-15291484D02*
X10908563Y-15291484D01*
X10908563Y-15291484D02*
X10889515Y-15301008D01*
X10889515Y-15301008D02*
X10879991Y-15310531D01*
X10879991Y-15310531D02*
X10870467Y-15329579D01*
X10870467Y-15329579D02*
X10870467Y-15377198D01*
X10870467Y-15377198D02*
X10879991Y-15396246D01*
X10879991Y-15396246D02*
X10889515Y-15405769D01*
X10889515Y-15405769D02*
X10908563Y-15415293D01*
X10908563Y-15415293D02*
X10946658Y-15415293D01*
X10946658Y-15415293D02*
X10965705Y-15405769D01*
X10965705Y-15405769D02*
X10975229Y-15396246D01*
X10975229Y-15396246D02*
X10984753Y-15377198D01*
X11108563Y-15291484D02*
X11127610Y-15291484D01*
X11127610Y-15291484D02*
X11146658Y-15301008D01*
X11146658Y-15301008D02*
X11156182Y-15310531D01*
X11156182Y-15310531D02*
X11165705Y-15329579D01*
X11165705Y-15329579D02*
X11175229Y-15367674D01*
X11175229Y-15367674D02*
X11175229Y-15415293D01*
X11175229Y-15415293D02*
X11165705Y-15453388D01*
X11165705Y-15453388D02*
X11156182Y-15472436D01*
X11156182Y-15472436D02*
X11146658Y-15481960D01*
X11146658Y-15481960D02*
X11127610Y-15491484D01*
X11127610Y-15491484D02*
X11108563Y-15491484D01*
X11108563Y-15491484D02*
X11089515Y-15481960D01*
X11089515Y-15481960D02*
X11079991Y-15472436D01*
X11079991Y-15472436D02*
X11070467Y-15453388D01*
X11070467Y-15453388D02*
X11060944Y-15415293D01*
X11060944Y-15415293D02*
X11060944Y-15367674D01*
X11060944Y-15367674D02*
X11070467Y-15329579D01*
X11070467Y-15329579D02*
X11079991Y-15310531D01*
X11079991Y-15310531D02*
X11089515Y-15301008D01*
X11089515Y-15301008D02*
X11108563Y-15291484D01*
X11299039Y-15291484D02*
X11318086Y-15291484D01*
X11318086Y-15291484D02*
X11337134Y-15301008D01*
X11337134Y-15301008D02*
X11346658Y-15310531D01*
X11346658Y-15310531D02*
X11356182Y-15329579D01*
X11356182Y-15329579D02*
X11365705Y-15367674D01*
X11365705Y-15367674D02*
X11365705Y-15415293D01*
X11365705Y-15415293D02*
X11356182Y-15453388D01*
X11356182Y-15453388D02*
X11346658Y-15472436D01*
X11346658Y-15472436D02*
X11337134Y-15481960D01*
X11337134Y-15481960D02*
X11318086Y-15491484D01*
X11318086Y-15491484D02*
X11299039Y-15491484D01*
X11299039Y-15491484D02*
X11279991Y-15481960D01*
X11279991Y-15481960D02*
X11270467Y-15472436D01*
X11270467Y-15472436D02*
X11260943Y-15453388D01*
X11260943Y-15453388D02*
X11251420Y-15415293D01*
X11251420Y-15415293D02*
X11251420Y-15367674D01*
X11251420Y-15367674D02*
X11260943Y-15329579D01*
X11260943Y-15329579D02*
X11270467Y-15310531D01*
X11270467Y-15310531D02*
X11279991Y-15301008D01*
X11279991Y-15301008D02*
X11299039Y-15291484D01*
X11451420Y-15491484D02*
X11451420Y-15358150D01*
X11451420Y-15377198D02*
X11460943Y-15367674D01*
X11460943Y-15367674D02*
X11479991Y-15358150D01*
X11479991Y-15358150D02*
X11508563Y-15358150D01*
X11508563Y-15358150D02*
X11527610Y-15367674D01*
X11527610Y-15367674D02*
X11537134Y-15386722D01*
X11537134Y-15386722D02*
X11537134Y-15491484D01*
X11537134Y-15386722D02*
X11546658Y-15367674D01*
X11546658Y-15367674D02*
X11565705Y-15358150D01*
X11565705Y-15358150D02*
X11594277Y-15358150D01*
X11594277Y-15358150D02*
X11613324Y-15367674D01*
X11613324Y-15367674D02*
X11622848Y-15386722D01*
X11622848Y-15386722D02*
X11622848Y-15491484D01*
X11718086Y-15491484D02*
X11718086Y-15358150D01*
X11718086Y-15377198D02*
X11727610Y-15367674D01*
X11727610Y-15367674D02*
X11746658Y-15358150D01*
X11746658Y-15358150D02*
X11775229Y-15358150D01*
X11775229Y-15358150D02*
X11794277Y-15367674D01*
X11794277Y-15367674D02*
X11803801Y-15386722D01*
X11803801Y-15386722D02*
X11803801Y-15491484D01*
X11803801Y-15386722D02*
X11813324Y-15367674D01*
X11813324Y-15367674D02*
X11832372Y-15358150D01*
X11832372Y-15358150D02*
X11860943Y-15358150D01*
X11860943Y-15358150D02*
X11879991Y-15367674D01*
X11879991Y-15367674D02*
X11889515Y-15386722D01*
X11889515Y-15386722D02*
X11889515Y-15491484D01*
X12279991Y-15281960D02*
X12108563Y-15539103D01*
X12537134Y-15291484D02*
X12556182Y-15291484D01*
X12556182Y-15291484D02*
X12575229Y-15301008D01*
X12575229Y-15301008D02*
X12584753Y-15310531D01*
X12584753Y-15310531D02*
X12594277Y-15329579D01*
X12594277Y-15329579D02*
X12603801Y-15367674D01*
X12603801Y-15367674D02*
X12603801Y-15415293D01*
X12603801Y-15415293D02*
X12594277Y-15453388D01*
X12594277Y-15453388D02*
X12584753Y-15472436D01*
X12584753Y-15472436D02*
X12575229Y-15481960D01*
X12575229Y-15481960D02*
X12556182Y-15491484D01*
X12556182Y-15491484D02*
X12537134Y-15491484D01*
X12537134Y-15491484D02*
X12518086Y-15481960D01*
X12518086Y-15481960D02*
X12508563Y-15472436D01*
X12508563Y-15472436D02*
X12499039Y-15453388D01*
X12499039Y-15453388D02*
X12489515Y-15415293D01*
X12489515Y-15415293D02*
X12489515Y-15367674D01*
X12489515Y-15367674D02*
X12499039Y-15329579D01*
X12499039Y-15329579D02*
X12508563Y-15310531D01*
X12508563Y-15310531D02*
X12518086Y-15301008D01*
X12518086Y-15301008D02*
X12537134Y-15291484D01*
X12689515Y-15472436D02*
X12699039Y-15481960D01*
X12699039Y-15481960D02*
X12689515Y-15491484D01*
X12689515Y-15491484D02*
X12679991Y-15481960D01*
X12679991Y-15481960D02*
X12689515Y-15472436D01*
X12689515Y-15472436D02*
X12689515Y-15491484D01*
X12822848Y-15291484D02*
X12841896Y-15291484D01*
X12841896Y-15291484D02*
X12860944Y-15301008D01*
X12860944Y-15301008D02*
X12870467Y-15310531D01*
X12870467Y-15310531D02*
X12879991Y-15329579D01*
X12879991Y-15329579D02*
X12889515Y-15367674D01*
X12889515Y-15367674D02*
X12889515Y-15415293D01*
X12889515Y-15415293D02*
X12879991Y-15453388D01*
X12879991Y-15453388D02*
X12870467Y-15472436D01*
X12870467Y-15472436D02*
X12860944Y-15481960D01*
X12860944Y-15481960D02*
X12841896Y-15491484D01*
X12841896Y-15491484D02*
X12822848Y-15491484D01*
X12822848Y-15491484D02*
X12803801Y-15481960D01*
X12803801Y-15481960D02*
X12794277Y-15472436D01*
X12794277Y-15472436D02*
X12784753Y-15453388D01*
X12784753Y-15453388D02*
X12775229Y-15415293D01*
X12775229Y-15415293D02*
X12775229Y-15367674D01*
X12775229Y-15367674D02*
X12784753Y-15329579D01*
X12784753Y-15329579D02*
X12794277Y-15310531D01*
X12794277Y-15310531D02*
X12803801Y-15301008D01*
X12803801Y-15301008D02*
X12822848Y-15291484D01*
X12956182Y-15291484D02*
X13079991Y-15291484D01*
X13079991Y-15291484D02*
X13013325Y-15367674D01*
X13013325Y-15367674D02*
X13041896Y-15367674D01*
X13041896Y-15367674D02*
X13060944Y-15377198D01*
X13060944Y-15377198D02*
X13070467Y-15386722D01*
X13070467Y-15386722D02*
X13079991Y-15405769D01*
X13079991Y-15405769D02*
X13079991Y-15453388D01*
X13079991Y-15453388D02*
X13070467Y-15472436D01*
X13070467Y-15472436D02*
X13060944Y-15481960D01*
X13060944Y-15481960D02*
X13041896Y-15491484D01*
X13041896Y-15491484D02*
X12984753Y-15491484D01*
X12984753Y-15491484D02*
X12965706Y-15481960D01*
X12965706Y-15481960D02*
X12956182Y-15472436D01*
X13260944Y-15291484D02*
X13165706Y-15291484D01*
X13165706Y-15291484D02*
X13156182Y-15386722D01*
X13156182Y-15386722D02*
X13165706Y-15377198D01*
X13165706Y-15377198D02*
X13184753Y-15367674D01*
X13184753Y-15367674D02*
X13232372Y-15367674D01*
X13232372Y-15367674D02*
X13251420Y-15377198D01*
X13251420Y-15377198D02*
X13260944Y-15386722D01*
X13260944Y-15386722D02*
X13270467Y-15405769D01*
X13270467Y-15405769D02*
X13270467Y-15453388D01*
X13270467Y-15453388D02*
X13260944Y-15472436D01*
X13260944Y-15472436D02*
X13251420Y-15481960D01*
X13251420Y-15481960D02*
X13232372Y-15491484D01*
X13232372Y-15491484D02*
X13184753Y-15491484D01*
X13184753Y-15491484D02*
X13165706Y-15481960D01*
X13165706Y-15481960D02*
X13156182Y-15472436D01*
X13441896Y-15358150D02*
X13441896Y-15491484D01*
X13394277Y-15281960D02*
X13346658Y-15424817D01*
X13346658Y-15424817D02*
X13470467Y-15424817D01*
X13537134Y-15291484D02*
X13537134Y-15329579D01*
X13613325Y-15291484D02*
X13613325Y-15329579D01*
X13908563Y-15567674D02*
X13899039Y-15558150D01*
X13899039Y-15558150D02*
X13879991Y-15529579D01*
X13879991Y-15529579D02*
X13870468Y-15510531D01*
X13870468Y-15510531D02*
X13860944Y-15481960D01*
X13860944Y-15481960D02*
X13851420Y-15434341D01*
X13851420Y-15434341D02*
X13851420Y-15396246D01*
X13851420Y-15396246D02*
X13860944Y-15348627D01*
X13860944Y-15348627D02*
X13870468Y-15320055D01*
X13870468Y-15320055D02*
X13879991Y-15301008D01*
X13879991Y-15301008D02*
X13899039Y-15272436D01*
X13899039Y-15272436D02*
X13908563Y-15262912D01*
X14079991Y-15291484D02*
X13984753Y-15291484D01*
X13984753Y-15291484D02*
X13975229Y-15386722D01*
X13975229Y-15386722D02*
X13984753Y-15377198D01*
X13984753Y-15377198D02*
X14003801Y-15367674D01*
X14003801Y-15367674D02*
X14051420Y-15367674D01*
X14051420Y-15367674D02*
X14070468Y-15377198D01*
X14070468Y-15377198D02*
X14079991Y-15386722D01*
X14079991Y-15386722D02*
X14089515Y-15405769D01*
X14089515Y-15405769D02*
X14089515Y-15453388D01*
X14089515Y-15453388D02*
X14079991Y-15472436D01*
X14079991Y-15472436D02*
X14070468Y-15481960D01*
X14070468Y-15481960D02*
X14051420Y-15491484D01*
X14051420Y-15491484D02*
X14003801Y-15491484D01*
X14003801Y-15491484D02*
X13984753Y-15481960D01*
X13984753Y-15481960D02*
X13975229Y-15472436D01*
X14327610Y-15491484D02*
X14327610Y-15291484D01*
X14413325Y-15491484D02*
X14413325Y-15386722D01*
X14413325Y-15386722D02*
X14403801Y-15367674D01*
X14403801Y-15367674D02*
X14384753Y-15358150D01*
X14384753Y-15358150D02*
X14356182Y-15358150D01*
X14356182Y-15358150D02*
X14337134Y-15367674D01*
X14337134Y-15367674D02*
X14327610Y-15377198D01*
X14537134Y-15491484D02*
X14518087Y-15481960D01*
X14518087Y-15481960D02*
X14508563Y-15472436D01*
X14508563Y-15472436D02*
X14499039Y-15453388D01*
X14499039Y-15453388D02*
X14499039Y-15396246D01*
X14499039Y-15396246D02*
X14508563Y-15377198D01*
X14508563Y-15377198D02*
X14518087Y-15367674D01*
X14518087Y-15367674D02*
X14537134Y-15358150D01*
X14537134Y-15358150D02*
X14565706Y-15358150D01*
X14565706Y-15358150D02*
X14584753Y-15367674D01*
X14584753Y-15367674D02*
X14594277Y-15377198D01*
X14594277Y-15377198D02*
X14603801Y-15396246D01*
X14603801Y-15396246D02*
X14603801Y-15453388D01*
X14603801Y-15453388D02*
X14594277Y-15472436D01*
X14594277Y-15472436D02*
X14584753Y-15481960D01*
X14584753Y-15481960D02*
X14565706Y-15491484D01*
X14565706Y-15491484D02*
X14537134Y-15491484D01*
X14718087Y-15491484D02*
X14699039Y-15481960D01*
X14699039Y-15481960D02*
X14689515Y-15462912D01*
X14689515Y-15462912D02*
X14689515Y-15291484D01*
X14870468Y-15481960D02*
X14851420Y-15491484D01*
X14851420Y-15491484D02*
X14813325Y-15491484D01*
X14813325Y-15491484D02*
X14794277Y-15481960D01*
X14794277Y-15481960D02*
X14784753Y-15462912D01*
X14784753Y-15462912D02*
X14784753Y-15386722D01*
X14784753Y-15386722D02*
X14794277Y-15367674D01*
X14794277Y-15367674D02*
X14813325Y-15358150D01*
X14813325Y-15358150D02*
X14851420Y-15358150D01*
X14851420Y-15358150D02*
X14870468Y-15367674D01*
X14870468Y-15367674D02*
X14879991Y-15386722D01*
X14879991Y-15386722D02*
X14879991Y-15405769D01*
X14879991Y-15405769D02*
X14784753Y-15424817D01*
X14956182Y-15481960D02*
X14975230Y-15491484D01*
X14975230Y-15491484D02*
X15013325Y-15491484D01*
X15013325Y-15491484D02*
X15032372Y-15481960D01*
X15032372Y-15481960D02*
X15041896Y-15462912D01*
X15041896Y-15462912D02*
X15041896Y-15453388D01*
X15041896Y-15453388D02*
X15032372Y-15434341D01*
X15032372Y-15434341D02*
X15013325Y-15424817D01*
X15013325Y-15424817D02*
X14984753Y-15424817D01*
X14984753Y-15424817D02*
X14965706Y-15415293D01*
X14965706Y-15415293D02*
X14956182Y-15396246D01*
X14956182Y-15396246D02*
X14956182Y-15386722D01*
X14956182Y-15386722D02*
X14965706Y-15367674D01*
X14965706Y-15367674D02*
X14984753Y-15358150D01*
X14984753Y-15358150D02*
X15013325Y-15358150D01*
X15013325Y-15358150D02*
X15032372Y-15367674D01*
X15108563Y-15567674D02*
X15118087Y-15558150D01*
X15118087Y-15558150D02*
X15137134Y-15529579D01*
X15137134Y-15529579D02*
X15146658Y-15510531D01*
X15146658Y-15510531D02*
X15156182Y-15481960D01*
X15156182Y-15481960D02*
X15165706Y-15434341D01*
X15165706Y-15434341D02*
X15165706Y-15396246D01*
X15165706Y-15396246D02*
X15156182Y-15348627D01*
X15156182Y-15348627D02*
X15146658Y-15320055D01*
X15146658Y-15320055D02*
X15137134Y-15301008D01*
X15137134Y-15301008D02*
X15118087Y-15272436D01*
X15118087Y-15272436D02*
X15108563Y-15262912D01*
D10*
X10320320Y-15695820D02*
X10320320Y-15632180D01*
X10256680Y-15632180D01*
X10256680Y-15695820D01*
X10320320Y-15695820D01*
D11*
X10632372Y-15555484D02*
X10651420Y-15555484D01*
X10651420Y-15555484D02*
X10670467Y-15565008D01*
X10670467Y-15565008D02*
X10679991Y-15574531D01*
X10679991Y-15574531D02*
X10689515Y-15593579D01*
X10689515Y-15593579D02*
X10699039Y-15631674D01*
X10699039Y-15631674D02*
X10699039Y-15679293D01*
X10699039Y-15679293D02*
X10689515Y-15717388D01*
X10689515Y-15717388D02*
X10679991Y-15736436D01*
X10679991Y-15736436D02*
X10670467Y-15745960D01*
X10670467Y-15745960D02*
X10651420Y-15755484D01*
X10651420Y-15755484D02*
X10632372Y-15755484D01*
X10632372Y-15755484D02*
X10613324Y-15745960D01*
X10613324Y-15745960D02*
X10603801Y-15736436D01*
X10603801Y-15736436D02*
X10594277Y-15717388D01*
X10594277Y-15717388D02*
X10584753Y-15679293D01*
X10584753Y-15679293D02*
X10584753Y-15631674D01*
X10584753Y-15631674D02*
X10594277Y-15593579D01*
X10594277Y-15593579D02*
X10603801Y-15574531D01*
X10603801Y-15574531D02*
X10613324Y-15565008D01*
X10613324Y-15565008D02*
X10632372Y-15555484D01*
X10784753Y-15736436D02*
X10794277Y-15745960D01*
X10794277Y-15745960D02*
X10784753Y-15755484D01*
X10784753Y-15755484D02*
X10775229Y-15745960D01*
X10775229Y-15745960D02*
X10784753Y-15736436D01*
X10784753Y-15736436D02*
X10784753Y-15755484D01*
X10889515Y-15755484D02*
X10927610Y-15755484D01*
X10927610Y-15755484D02*
X10946658Y-15745960D01*
X10946658Y-15745960D02*
X10956182Y-15736436D01*
X10956182Y-15736436D02*
X10975229Y-15707865D01*
X10975229Y-15707865D02*
X10984753Y-15669769D01*
X10984753Y-15669769D02*
X10984753Y-15593579D01*
X10984753Y-15593579D02*
X10975229Y-15574531D01*
X10975229Y-15574531D02*
X10965705Y-15565008D01*
X10965705Y-15565008D02*
X10946658Y-15555484D01*
X10946658Y-15555484D02*
X10908563Y-15555484D01*
X10908563Y-15555484D02*
X10889515Y-15565008D01*
X10889515Y-15565008D02*
X10879991Y-15574531D01*
X10879991Y-15574531D02*
X10870467Y-15593579D01*
X10870467Y-15593579D02*
X10870467Y-15641198D01*
X10870467Y-15641198D02*
X10879991Y-15660246D01*
X10879991Y-15660246D02*
X10889515Y-15669769D01*
X10889515Y-15669769D02*
X10908563Y-15679293D01*
X10908563Y-15679293D02*
X10946658Y-15679293D01*
X10946658Y-15679293D02*
X10965705Y-15669769D01*
X10965705Y-15669769D02*
X10975229Y-15660246D01*
X10975229Y-15660246D02*
X10984753Y-15641198D01*
X11108563Y-15555484D02*
X11127610Y-15555484D01*
X11127610Y-15555484D02*
X11146658Y-15565008D01*
X11146658Y-15565008D02*
X11156182Y-15574531D01*
X11156182Y-15574531D02*
X11165705Y-15593579D01*
X11165705Y-15593579D02*
X11175229Y-15631674D01*
X11175229Y-15631674D02*
X11175229Y-15679293D01*
X11175229Y-15679293D02*
X11165705Y-15717388D01*
X11165705Y-15717388D02*
X11156182Y-15736436D01*
X11156182Y-15736436D02*
X11146658Y-15745960D01*
X11146658Y-15745960D02*
X11127610Y-15755484D01*
X11127610Y-15755484D02*
X11108563Y-15755484D01*
X11108563Y-15755484D02*
X11089515Y-15745960D01*
X11089515Y-15745960D02*
X11079991Y-15736436D01*
X11079991Y-15736436D02*
X11070467Y-15717388D01*
X11070467Y-15717388D02*
X11060944Y-15679293D01*
X11060944Y-15679293D02*
X11060944Y-15631674D01*
X11060944Y-15631674D02*
X11070467Y-15593579D01*
X11070467Y-15593579D02*
X11079991Y-15574531D01*
X11079991Y-15574531D02*
X11089515Y-15565008D01*
X11089515Y-15565008D02*
X11108563Y-15555484D01*
X11299039Y-15555484D02*
X11318086Y-15555484D01*
X11318086Y-15555484D02*
X11337134Y-15565008D01*
X11337134Y-15565008D02*
X11346658Y-15574531D01*
X11346658Y-15574531D02*
X11356182Y-15593579D01*
X11356182Y-15593579D02*
X11365705Y-15631674D01*
X11365705Y-15631674D02*
X11365705Y-15679293D01*
X11365705Y-15679293D02*
X11356182Y-15717388D01*
X11356182Y-15717388D02*
X11346658Y-15736436D01*
X11346658Y-15736436D02*
X11337134Y-15745960D01*
X11337134Y-15745960D02*
X11318086Y-15755484D01*
X11318086Y-15755484D02*
X11299039Y-15755484D01*
X11299039Y-15755484D02*
X11279991Y-15745960D01*
X11279991Y-15745960D02*
X11270467Y-15736436D01*
X11270467Y-15736436D02*
X11260943Y-15717388D01*
X11260943Y-15717388D02*
X11251420Y-15679293D01*
X11251420Y-15679293D02*
X11251420Y-15631674D01*
X11251420Y-15631674D02*
X11260943Y-15593579D01*
X11260943Y-15593579D02*
X11270467Y-15574531D01*
X11270467Y-15574531D02*
X11279991Y-15565008D01*
X11279991Y-15565008D02*
X11299039Y-15555484D01*
X11451420Y-15755484D02*
X11451420Y-15622150D01*
X11451420Y-15641198D02*
X11460943Y-15631674D01*
X11460943Y-15631674D02*
X11479991Y-15622150D01*
X11479991Y-15622150D02*
X11508563Y-15622150D01*
X11508563Y-15622150D02*
X11527610Y-15631674D01*
X11527610Y-15631674D02*
X11537134Y-15650722D01*
X11537134Y-15650722D02*
X11537134Y-15755484D01*
X11537134Y-15650722D02*
X11546658Y-15631674D01*
X11546658Y-15631674D02*
X11565705Y-15622150D01*
X11565705Y-15622150D02*
X11594277Y-15622150D01*
X11594277Y-15622150D02*
X11613324Y-15631674D01*
X11613324Y-15631674D02*
X11622848Y-15650722D01*
X11622848Y-15650722D02*
X11622848Y-15755484D01*
X11718086Y-15755484D02*
X11718086Y-15622150D01*
X11718086Y-15641198D02*
X11727610Y-15631674D01*
X11727610Y-15631674D02*
X11746658Y-15622150D01*
X11746658Y-15622150D02*
X11775229Y-15622150D01*
X11775229Y-15622150D02*
X11794277Y-15631674D01*
X11794277Y-15631674D02*
X11803801Y-15650722D01*
X11803801Y-15650722D02*
X11803801Y-15755484D01*
X11803801Y-15650722D02*
X11813324Y-15631674D01*
X11813324Y-15631674D02*
X11832372Y-15622150D01*
X11832372Y-15622150D02*
X11860943Y-15622150D01*
X11860943Y-15622150D02*
X11879991Y-15631674D01*
X11879991Y-15631674D02*
X11889515Y-15650722D01*
X11889515Y-15650722D02*
X11889515Y-15755484D01*
X12279991Y-15545960D02*
X12108563Y-15803103D01*
X12537134Y-15555484D02*
X12556182Y-15555484D01*
X12556182Y-15555484D02*
X12575229Y-15565008D01*
X12575229Y-15565008D02*
X12584753Y-15574531D01*
X12584753Y-15574531D02*
X12594277Y-15593579D01*
X12594277Y-15593579D02*
X12603801Y-15631674D01*
X12603801Y-15631674D02*
X12603801Y-15679293D01*
X12603801Y-15679293D02*
X12594277Y-15717388D01*
X12594277Y-15717388D02*
X12584753Y-15736436D01*
X12584753Y-15736436D02*
X12575229Y-15745960D01*
X12575229Y-15745960D02*
X12556182Y-15755484D01*
X12556182Y-15755484D02*
X12537134Y-15755484D01*
X12537134Y-15755484D02*
X12518086Y-15745960D01*
X12518086Y-15745960D02*
X12508563Y-15736436D01*
X12508563Y-15736436D02*
X12499039Y-15717388D01*
X12499039Y-15717388D02*
X12489515Y-15679293D01*
X12489515Y-15679293D02*
X12489515Y-15631674D01*
X12489515Y-15631674D02*
X12499039Y-15593579D01*
X12499039Y-15593579D02*
X12508563Y-15574531D01*
X12508563Y-15574531D02*
X12518086Y-15565008D01*
X12518086Y-15565008D02*
X12537134Y-15555484D01*
X12689515Y-15736436D02*
X12699039Y-15745960D01*
X12699039Y-15745960D02*
X12689515Y-15755484D01*
X12689515Y-15755484D02*
X12679991Y-15745960D01*
X12679991Y-15745960D02*
X12689515Y-15736436D01*
X12689515Y-15736436D02*
X12689515Y-15755484D01*
X12822848Y-15555484D02*
X12841896Y-15555484D01*
X12841896Y-15555484D02*
X12860944Y-15565008D01*
X12860944Y-15565008D02*
X12870467Y-15574531D01*
X12870467Y-15574531D02*
X12879991Y-15593579D01*
X12879991Y-15593579D02*
X12889515Y-15631674D01*
X12889515Y-15631674D02*
X12889515Y-15679293D01*
X12889515Y-15679293D02*
X12879991Y-15717388D01*
X12879991Y-15717388D02*
X12870467Y-15736436D01*
X12870467Y-15736436D02*
X12860944Y-15745960D01*
X12860944Y-15745960D02*
X12841896Y-15755484D01*
X12841896Y-15755484D02*
X12822848Y-15755484D01*
X12822848Y-15755484D02*
X12803801Y-15745960D01*
X12803801Y-15745960D02*
X12794277Y-15736436D01*
X12794277Y-15736436D02*
X12784753Y-15717388D01*
X12784753Y-15717388D02*
X12775229Y-15679293D01*
X12775229Y-15679293D02*
X12775229Y-15631674D01*
X12775229Y-15631674D02*
X12784753Y-15593579D01*
X12784753Y-15593579D02*
X12794277Y-15574531D01*
X12794277Y-15574531D02*
X12803801Y-15565008D01*
X12803801Y-15565008D02*
X12822848Y-15555484D01*
X12956182Y-15555484D02*
X13079991Y-15555484D01*
X13079991Y-15555484D02*
X13013325Y-15631674D01*
X13013325Y-15631674D02*
X13041896Y-15631674D01*
X13041896Y-15631674D02*
X13060944Y-15641198D01*
X13060944Y-15641198D02*
X13070467Y-15650722D01*
X13070467Y-15650722D02*
X13079991Y-15669769D01*
X13079991Y-15669769D02*
X13079991Y-15717388D01*
X13079991Y-15717388D02*
X13070467Y-15736436D01*
X13070467Y-15736436D02*
X13060944Y-15745960D01*
X13060944Y-15745960D02*
X13041896Y-15755484D01*
X13041896Y-15755484D02*
X12984753Y-15755484D01*
X12984753Y-15755484D02*
X12965706Y-15745960D01*
X12965706Y-15745960D02*
X12956182Y-15736436D01*
X13260944Y-15555484D02*
X13165706Y-15555484D01*
X13165706Y-15555484D02*
X13156182Y-15650722D01*
X13156182Y-15650722D02*
X13165706Y-15641198D01*
X13165706Y-15641198D02*
X13184753Y-15631674D01*
X13184753Y-15631674D02*
X13232372Y-15631674D01*
X13232372Y-15631674D02*
X13251420Y-15641198D01*
X13251420Y-15641198D02*
X13260944Y-15650722D01*
X13260944Y-15650722D02*
X13270467Y-15669769D01*
X13270467Y-15669769D02*
X13270467Y-15717388D01*
X13270467Y-15717388D02*
X13260944Y-15736436D01*
X13260944Y-15736436D02*
X13251420Y-15745960D01*
X13251420Y-15745960D02*
X13232372Y-15755484D01*
X13232372Y-15755484D02*
X13184753Y-15755484D01*
X13184753Y-15755484D02*
X13165706Y-15745960D01*
X13165706Y-15745960D02*
X13156182Y-15736436D01*
X13441896Y-15622150D02*
X13441896Y-15755484D01*
X13394277Y-15545960D02*
X13346658Y-15688817D01*
X13346658Y-15688817D02*
X13470467Y-15688817D01*
X13537134Y-15555484D02*
X13537134Y-15593579D01*
X13613325Y-15555484D02*
X13613325Y-15593579D01*
X13908563Y-15831674D02*
X13899039Y-15822150D01*
X13899039Y-15822150D02*
X13879991Y-15793579D01*
X13879991Y-15793579D02*
X13870468Y-15774531D01*
X13870468Y-15774531D02*
X13860944Y-15745960D01*
X13860944Y-15745960D02*
X13851420Y-15698341D01*
X13851420Y-15698341D02*
X13851420Y-15660246D01*
X13851420Y-15660246D02*
X13860944Y-15612627D01*
X13860944Y-15612627D02*
X13870468Y-15584055D01*
X13870468Y-15584055D02*
X13879991Y-15565008D01*
X13879991Y-15565008D02*
X13899039Y-15536436D01*
X13899039Y-15536436D02*
X13908563Y-15526912D01*
X14070468Y-15555484D02*
X14032372Y-15555484D01*
X14032372Y-15555484D02*
X14013325Y-15565008D01*
X14013325Y-15565008D02*
X14003801Y-15574531D01*
X14003801Y-15574531D02*
X13984753Y-15603103D01*
X13984753Y-15603103D02*
X13975229Y-15641198D01*
X13975229Y-15641198D02*
X13975229Y-15717388D01*
X13975229Y-15717388D02*
X13984753Y-15736436D01*
X13984753Y-15736436D02*
X13994277Y-15745960D01*
X13994277Y-15745960D02*
X14013325Y-15755484D01*
X14013325Y-15755484D02*
X14051420Y-15755484D01*
X14051420Y-15755484D02*
X14070468Y-15745960D01*
X14070468Y-15745960D02*
X14079991Y-15736436D01*
X14079991Y-15736436D02*
X14089515Y-15717388D01*
X14089515Y-15717388D02*
X14089515Y-15669769D01*
X14089515Y-15669769D02*
X14079991Y-15650722D01*
X14079991Y-15650722D02*
X14070468Y-15641198D01*
X14070468Y-15641198D02*
X14051420Y-15631674D01*
X14051420Y-15631674D02*
X14013325Y-15631674D01*
X14013325Y-15631674D02*
X13994277Y-15641198D01*
X13994277Y-15641198D02*
X13984753Y-15650722D01*
X13984753Y-15650722D02*
X13975229Y-15669769D01*
X14327610Y-15755484D02*
X14327610Y-15555484D01*
X14413325Y-15755484D02*
X14413325Y-15650722D01*
X14413325Y-15650722D02*
X14403801Y-15631674D01*
X14403801Y-15631674D02*
X14384753Y-15622150D01*
X14384753Y-15622150D02*
X14356182Y-15622150D01*
X14356182Y-15622150D02*
X14337134Y-15631674D01*
X14337134Y-15631674D02*
X14327610Y-15641198D01*
X14537134Y-15755484D02*
X14518087Y-15745960D01*
X14518087Y-15745960D02*
X14508563Y-15736436D01*
X14508563Y-15736436D02*
X14499039Y-15717388D01*
X14499039Y-15717388D02*
X14499039Y-15660246D01*
X14499039Y-15660246D02*
X14508563Y-15641198D01*
X14508563Y-15641198D02*
X14518087Y-15631674D01*
X14518087Y-15631674D02*
X14537134Y-15622150D01*
X14537134Y-15622150D02*
X14565706Y-15622150D01*
X14565706Y-15622150D02*
X14584753Y-15631674D01*
X14584753Y-15631674D02*
X14594277Y-15641198D01*
X14594277Y-15641198D02*
X14603801Y-15660246D01*
X14603801Y-15660246D02*
X14603801Y-15717388D01*
X14603801Y-15717388D02*
X14594277Y-15736436D01*
X14594277Y-15736436D02*
X14584753Y-15745960D01*
X14584753Y-15745960D02*
X14565706Y-15755484D01*
X14565706Y-15755484D02*
X14537134Y-15755484D01*
X14718087Y-15755484D02*
X14699039Y-15745960D01*
X14699039Y-15745960D02*
X14689515Y-15726912D01*
X14689515Y-15726912D02*
X14689515Y-15555484D01*
X14870468Y-15745960D02*
X14851420Y-15755484D01*
X14851420Y-15755484D02*
X14813325Y-15755484D01*
X14813325Y-15755484D02*
X14794277Y-15745960D01*
X14794277Y-15745960D02*
X14784753Y-15726912D01*
X14784753Y-15726912D02*
X14784753Y-15650722D01*
X14784753Y-15650722D02*
X14794277Y-15631674D01*
X14794277Y-15631674D02*
X14813325Y-15622150D01*
X14813325Y-15622150D02*
X14851420Y-15622150D01*
X14851420Y-15622150D02*
X14870468Y-15631674D01*
X14870468Y-15631674D02*
X14879991Y-15650722D01*
X14879991Y-15650722D02*
X14879991Y-15669769D01*
X14879991Y-15669769D02*
X14784753Y-15688817D01*
X14956182Y-15745960D02*
X14975230Y-15755484D01*
X14975230Y-15755484D02*
X15013325Y-15755484D01*
X15013325Y-15755484D02*
X15032372Y-15745960D01*
X15032372Y-15745960D02*
X15041896Y-15726912D01*
X15041896Y-15726912D02*
X15041896Y-15717388D01*
X15041896Y-15717388D02*
X15032372Y-15698341D01*
X15032372Y-15698341D02*
X15013325Y-15688817D01*
X15013325Y-15688817D02*
X14984753Y-15688817D01*
X14984753Y-15688817D02*
X14965706Y-15679293D01*
X14965706Y-15679293D02*
X14956182Y-15660246D01*
X14956182Y-15660246D02*
X14956182Y-15650722D01*
X14956182Y-15650722D02*
X14965706Y-15631674D01*
X14965706Y-15631674D02*
X14984753Y-15622150D01*
X14984753Y-15622150D02*
X15013325Y-15622150D01*
X15013325Y-15622150D02*
X15032372Y-15631674D01*
X15108563Y-15831674D02*
X15118087Y-15822150D01*
X15118087Y-15822150D02*
X15137134Y-15793579D01*
X15137134Y-15793579D02*
X15146658Y-15774531D01*
X15146658Y-15774531D02*
X15156182Y-15745960D01*
X15156182Y-15745960D02*
X15165706Y-15698341D01*
X15165706Y-15698341D02*
X15165706Y-15660246D01*
X15165706Y-15660246D02*
X15156182Y-15612627D01*
X15156182Y-15612627D02*
X15146658Y-15584055D01*
X15146658Y-15584055D02*
X15137134Y-15565008D01*
X15137134Y-15565008D02*
X15118087Y-15536436D01*
X15118087Y-15536436D02*
X15108563Y-15526912D01*
D10*
X10283500Y-15978000D02*
X10333500Y-15928000D01*
X10283500Y-15878000D01*
X10233500Y-15928000D01*
X10283500Y-15978000D01*
D11*
X10699039Y-16019484D02*
X10584753Y-16019484D01*
X10641896Y-16019484D02*
X10641896Y-15819484D01*
X10641896Y-15819484D02*
X10622848Y-15848055D01*
X10622848Y-15848055D02*
X10603801Y-15867103D01*
X10603801Y-15867103D02*
X10584753Y-15876627D01*
X10784753Y-16000436D02*
X10794277Y-16009960D01*
X10794277Y-16009960D02*
X10784753Y-16019484D01*
X10784753Y-16019484D02*
X10775229Y-16009960D01*
X10775229Y-16009960D02*
X10784753Y-16000436D01*
X10784753Y-16000436D02*
X10784753Y-16019484D01*
X10918086Y-15819484D02*
X10937134Y-15819484D01*
X10937134Y-15819484D02*
X10956182Y-15829008D01*
X10956182Y-15829008D02*
X10965705Y-15838531D01*
X10965705Y-15838531D02*
X10975229Y-15857579D01*
X10975229Y-15857579D02*
X10984753Y-15895674D01*
X10984753Y-15895674D02*
X10984753Y-15943293D01*
X10984753Y-15943293D02*
X10975229Y-15981388D01*
X10975229Y-15981388D02*
X10965705Y-16000436D01*
X10965705Y-16000436D02*
X10956182Y-16009960D01*
X10956182Y-16009960D02*
X10937134Y-16019484D01*
X10937134Y-16019484D02*
X10918086Y-16019484D01*
X10918086Y-16019484D02*
X10899039Y-16009960D01*
X10899039Y-16009960D02*
X10889515Y-16000436D01*
X10889515Y-16000436D02*
X10879991Y-15981388D01*
X10879991Y-15981388D02*
X10870467Y-15943293D01*
X10870467Y-15943293D02*
X10870467Y-15895674D01*
X10870467Y-15895674D02*
X10879991Y-15857579D01*
X10879991Y-15857579D02*
X10889515Y-15838531D01*
X10889515Y-15838531D02*
X10899039Y-15829008D01*
X10899039Y-15829008D02*
X10918086Y-15819484D01*
X11108563Y-15819484D02*
X11127610Y-15819484D01*
X11127610Y-15819484D02*
X11146658Y-15829008D01*
X11146658Y-15829008D02*
X11156182Y-15838531D01*
X11156182Y-15838531D02*
X11165705Y-15857579D01*
X11165705Y-15857579D02*
X11175229Y-15895674D01*
X11175229Y-15895674D02*
X11175229Y-15943293D01*
X11175229Y-15943293D02*
X11165705Y-15981388D01*
X11165705Y-15981388D02*
X11156182Y-16000436D01*
X11156182Y-16000436D02*
X11146658Y-16009960D01*
X11146658Y-16009960D02*
X11127610Y-16019484D01*
X11127610Y-16019484D02*
X11108563Y-16019484D01*
X11108563Y-16019484D02*
X11089515Y-16009960D01*
X11089515Y-16009960D02*
X11079991Y-16000436D01*
X11079991Y-16000436D02*
X11070467Y-15981388D01*
X11070467Y-15981388D02*
X11060944Y-15943293D01*
X11060944Y-15943293D02*
X11060944Y-15895674D01*
X11060944Y-15895674D02*
X11070467Y-15857579D01*
X11070467Y-15857579D02*
X11079991Y-15838531D01*
X11079991Y-15838531D02*
X11089515Y-15829008D01*
X11089515Y-15829008D02*
X11108563Y-15819484D01*
X11299039Y-15819484D02*
X11318086Y-15819484D01*
X11318086Y-15819484D02*
X11337134Y-15829008D01*
X11337134Y-15829008D02*
X11346658Y-15838531D01*
X11346658Y-15838531D02*
X11356182Y-15857579D01*
X11356182Y-15857579D02*
X11365705Y-15895674D01*
X11365705Y-15895674D02*
X11365705Y-15943293D01*
X11365705Y-15943293D02*
X11356182Y-15981388D01*
X11356182Y-15981388D02*
X11346658Y-16000436D01*
X11346658Y-16000436D02*
X11337134Y-16009960D01*
X11337134Y-16009960D02*
X11318086Y-16019484D01*
X11318086Y-16019484D02*
X11299039Y-16019484D01*
X11299039Y-16019484D02*
X11279991Y-16009960D01*
X11279991Y-16009960D02*
X11270467Y-16000436D01*
X11270467Y-16000436D02*
X11260943Y-15981388D01*
X11260943Y-15981388D02*
X11251420Y-15943293D01*
X11251420Y-15943293D02*
X11251420Y-15895674D01*
X11251420Y-15895674D02*
X11260943Y-15857579D01*
X11260943Y-15857579D02*
X11270467Y-15838531D01*
X11270467Y-15838531D02*
X11279991Y-15829008D01*
X11279991Y-15829008D02*
X11299039Y-15819484D01*
X11451420Y-16019484D02*
X11451420Y-15886150D01*
X11451420Y-15905198D02*
X11460943Y-15895674D01*
X11460943Y-15895674D02*
X11479991Y-15886150D01*
X11479991Y-15886150D02*
X11508563Y-15886150D01*
X11508563Y-15886150D02*
X11527610Y-15895674D01*
X11527610Y-15895674D02*
X11537134Y-15914722D01*
X11537134Y-15914722D02*
X11537134Y-16019484D01*
X11537134Y-15914722D02*
X11546658Y-15895674D01*
X11546658Y-15895674D02*
X11565705Y-15886150D01*
X11565705Y-15886150D02*
X11594277Y-15886150D01*
X11594277Y-15886150D02*
X11613324Y-15895674D01*
X11613324Y-15895674D02*
X11622848Y-15914722D01*
X11622848Y-15914722D02*
X11622848Y-16019484D01*
X11718086Y-16019484D02*
X11718086Y-15886150D01*
X11718086Y-15905198D02*
X11727610Y-15895674D01*
X11727610Y-15895674D02*
X11746658Y-15886150D01*
X11746658Y-15886150D02*
X11775229Y-15886150D01*
X11775229Y-15886150D02*
X11794277Y-15895674D01*
X11794277Y-15895674D02*
X11803801Y-15914722D01*
X11803801Y-15914722D02*
X11803801Y-16019484D01*
X11803801Y-15914722D02*
X11813324Y-15895674D01*
X11813324Y-15895674D02*
X11832372Y-15886150D01*
X11832372Y-15886150D02*
X11860943Y-15886150D01*
X11860943Y-15886150D02*
X11879991Y-15895674D01*
X11879991Y-15895674D02*
X11889515Y-15914722D01*
X11889515Y-15914722D02*
X11889515Y-16019484D01*
X12279991Y-15809960D02*
X12108563Y-16067103D01*
X12537134Y-15819484D02*
X12556182Y-15819484D01*
X12556182Y-15819484D02*
X12575229Y-15829008D01*
X12575229Y-15829008D02*
X12584753Y-15838531D01*
X12584753Y-15838531D02*
X12594277Y-15857579D01*
X12594277Y-15857579D02*
X12603801Y-15895674D01*
X12603801Y-15895674D02*
X12603801Y-15943293D01*
X12603801Y-15943293D02*
X12594277Y-15981388D01*
X12594277Y-15981388D02*
X12584753Y-16000436D01*
X12584753Y-16000436D02*
X12575229Y-16009960D01*
X12575229Y-16009960D02*
X12556182Y-16019484D01*
X12556182Y-16019484D02*
X12537134Y-16019484D01*
X12537134Y-16019484D02*
X12518086Y-16009960D01*
X12518086Y-16009960D02*
X12508563Y-16000436D01*
X12508563Y-16000436D02*
X12499039Y-15981388D01*
X12499039Y-15981388D02*
X12489515Y-15943293D01*
X12489515Y-15943293D02*
X12489515Y-15895674D01*
X12489515Y-15895674D02*
X12499039Y-15857579D01*
X12499039Y-15857579D02*
X12508563Y-15838531D01*
X12508563Y-15838531D02*
X12518086Y-15829008D01*
X12518086Y-15829008D02*
X12537134Y-15819484D01*
X12689515Y-16000436D02*
X12699039Y-16009960D01*
X12699039Y-16009960D02*
X12689515Y-16019484D01*
X12689515Y-16019484D02*
X12679991Y-16009960D01*
X12679991Y-16009960D02*
X12689515Y-16000436D01*
X12689515Y-16000436D02*
X12689515Y-16019484D01*
X12822848Y-15819484D02*
X12841896Y-15819484D01*
X12841896Y-15819484D02*
X12860944Y-15829008D01*
X12860944Y-15829008D02*
X12870467Y-15838531D01*
X12870467Y-15838531D02*
X12879991Y-15857579D01*
X12879991Y-15857579D02*
X12889515Y-15895674D01*
X12889515Y-15895674D02*
X12889515Y-15943293D01*
X12889515Y-15943293D02*
X12879991Y-15981388D01*
X12879991Y-15981388D02*
X12870467Y-16000436D01*
X12870467Y-16000436D02*
X12860944Y-16009960D01*
X12860944Y-16009960D02*
X12841896Y-16019484D01*
X12841896Y-16019484D02*
X12822848Y-16019484D01*
X12822848Y-16019484D02*
X12803801Y-16009960D01*
X12803801Y-16009960D02*
X12794277Y-16000436D01*
X12794277Y-16000436D02*
X12784753Y-15981388D01*
X12784753Y-15981388D02*
X12775229Y-15943293D01*
X12775229Y-15943293D02*
X12775229Y-15895674D01*
X12775229Y-15895674D02*
X12784753Y-15857579D01*
X12784753Y-15857579D02*
X12794277Y-15838531D01*
X12794277Y-15838531D02*
X12803801Y-15829008D01*
X12803801Y-15829008D02*
X12822848Y-15819484D01*
X12956182Y-15819484D02*
X13079991Y-15819484D01*
X13079991Y-15819484D02*
X13013325Y-15895674D01*
X13013325Y-15895674D02*
X13041896Y-15895674D01*
X13041896Y-15895674D02*
X13060944Y-15905198D01*
X13060944Y-15905198D02*
X13070467Y-15914722D01*
X13070467Y-15914722D02*
X13079991Y-15933769D01*
X13079991Y-15933769D02*
X13079991Y-15981388D01*
X13079991Y-15981388D02*
X13070467Y-16000436D01*
X13070467Y-16000436D02*
X13060944Y-16009960D01*
X13060944Y-16009960D02*
X13041896Y-16019484D01*
X13041896Y-16019484D02*
X12984753Y-16019484D01*
X12984753Y-16019484D02*
X12965706Y-16009960D01*
X12965706Y-16009960D02*
X12956182Y-16000436D01*
X13175229Y-16019484D02*
X13213325Y-16019484D01*
X13213325Y-16019484D02*
X13232372Y-16009960D01*
X13232372Y-16009960D02*
X13241896Y-16000436D01*
X13241896Y-16000436D02*
X13260944Y-15971865D01*
X13260944Y-15971865D02*
X13270467Y-15933769D01*
X13270467Y-15933769D02*
X13270467Y-15857579D01*
X13270467Y-15857579D02*
X13260944Y-15838531D01*
X13260944Y-15838531D02*
X13251420Y-15829008D01*
X13251420Y-15829008D02*
X13232372Y-15819484D01*
X13232372Y-15819484D02*
X13194277Y-15819484D01*
X13194277Y-15819484D02*
X13175229Y-15829008D01*
X13175229Y-15829008D02*
X13165706Y-15838531D01*
X13165706Y-15838531D02*
X13156182Y-15857579D01*
X13156182Y-15857579D02*
X13156182Y-15905198D01*
X13156182Y-15905198D02*
X13165706Y-15924246D01*
X13165706Y-15924246D02*
X13175229Y-15933769D01*
X13175229Y-15933769D02*
X13194277Y-15943293D01*
X13194277Y-15943293D02*
X13232372Y-15943293D01*
X13232372Y-15943293D02*
X13251420Y-15933769D01*
X13251420Y-15933769D02*
X13260944Y-15924246D01*
X13260944Y-15924246D02*
X13270467Y-15905198D01*
X13441896Y-15886150D02*
X13441896Y-16019484D01*
X13394277Y-15809960D02*
X13346658Y-15952817D01*
X13346658Y-15952817D02*
X13470467Y-15952817D01*
X13537134Y-15819484D02*
X13537134Y-15857579D01*
X13613325Y-15819484D02*
X13613325Y-15857579D01*
X13908563Y-16095674D02*
X13899039Y-16086150D01*
X13899039Y-16086150D02*
X13879991Y-16057579D01*
X13879991Y-16057579D02*
X13870468Y-16038531D01*
X13870468Y-16038531D02*
X13860944Y-16009960D01*
X13860944Y-16009960D02*
X13851420Y-15962341D01*
X13851420Y-15962341D02*
X13851420Y-15924246D01*
X13851420Y-15924246D02*
X13860944Y-15876627D01*
X13860944Y-15876627D02*
X13870468Y-15848055D01*
X13870468Y-15848055D02*
X13879991Y-15829008D01*
X13879991Y-15829008D02*
X13899039Y-15800436D01*
X13899039Y-15800436D02*
X13908563Y-15790912D01*
X13975229Y-15838531D02*
X13984753Y-15829008D01*
X13984753Y-15829008D02*
X14003801Y-15819484D01*
X14003801Y-15819484D02*
X14051420Y-15819484D01*
X14051420Y-15819484D02*
X14070468Y-15829008D01*
X14070468Y-15829008D02*
X14079991Y-15838531D01*
X14079991Y-15838531D02*
X14089515Y-15857579D01*
X14089515Y-15857579D02*
X14089515Y-15876627D01*
X14089515Y-15876627D02*
X14079991Y-15905198D01*
X14079991Y-15905198D02*
X13965706Y-16019484D01*
X13965706Y-16019484D02*
X14089515Y-16019484D01*
X14260944Y-15819484D02*
X14222848Y-15819484D01*
X14222848Y-15819484D02*
X14203801Y-15829008D01*
X14203801Y-15829008D02*
X14194277Y-15838531D01*
X14194277Y-15838531D02*
X14175229Y-15867103D01*
X14175229Y-15867103D02*
X14165706Y-15905198D01*
X14165706Y-15905198D02*
X14165706Y-15981388D01*
X14165706Y-15981388D02*
X14175229Y-16000436D01*
X14175229Y-16000436D02*
X14184753Y-16009960D01*
X14184753Y-16009960D02*
X14203801Y-16019484D01*
X14203801Y-16019484D02*
X14241896Y-16019484D01*
X14241896Y-16019484D02*
X14260944Y-16009960D01*
X14260944Y-16009960D02*
X14270468Y-16000436D01*
X14270468Y-16000436D02*
X14279991Y-15981388D01*
X14279991Y-15981388D02*
X14279991Y-15933769D01*
X14279991Y-15933769D02*
X14270468Y-15914722D01*
X14270468Y-15914722D02*
X14260944Y-15905198D01*
X14260944Y-15905198D02*
X14241896Y-15895674D01*
X14241896Y-15895674D02*
X14203801Y-15895674D01*
X14203801Y-15895674D02*
X14184753Y-15905198D01*
X14184753Y-15905198D02*
X14175229Y-15914722D01*
X14175229Y-15914722D02*
X14165706Y-15933769D01*
X14518087Y-16019484D02*
X14518087Y-15819484D01*
X14603801Y-16019484D02*
X14603801Y-15914722D01*
X14603801Y-15914722D02*
X14594277Y-15895674D01*
X14594277Y-15895674D02*
X14575230Y-15886150D01*
X14575230Y-15886150D02*
X14546658Y-15886150D01*
X14546658Y-15886150D02*
X14527610Y-15895674D01*
X14527610Y-15895674D02*
X14518087Y-15905198D01*
X14727610Y-16019484D02*
X14708563Y-16009960D01*
X14708563Y-16009960D02*
X14699039Y-16000436D01*
X14699039Y-16000436D02*
X14689515Y-15981388D01*
X14689515Y-15981388D02*
X14689515Y-15924246D01*
X14689515Y-15924246D02*
X14699039Y-15905198D01*
X14699039Y-15905198D02*
X14708563Y-15895674D01*
X14708563Y-15895674D02*
X14727610Y-15886150D01*
X14727610Y-15886150D02*
X14756182Y-15886150D01*
X14756182Y-15886150D02*
X14775230Y-15895674D01*
X14775230Y-15895674D02*
X14784753Y-15905198D01*
X14784753Y-15905198D02*
X14794277Y-15924246D01*
X14794277Y-15924246D02*
X14794277Y-15981388D01*
X14794277Y-15981388D02*
X14784753Y-16000436D01*
X14784753Y-16000436D02*
X14775230Y-16009960D01*
X14775230Y-16009960D02*
X14756182Y-16019484D01*
X14756182Y-16019484D02*
X14727610Y-16019484D01*
X14908563Y-16019484D02*
X14889515Y-16009960D01*
X14889515Y-16009960D02*
X14879991Y-15990912D01*
X14879991Y-15990912D02*
X14879991Y-15819484D01*
X15060944Y-16009960D02*
X15041896Y-16019484D01*
X15041896Y-16019484D02*
X15003801Y-16019484D01*
X15003801Y-16019484D02*
X14984753Y-16009960D01*
X14984753Y-16009960D02*
X14975230Y-15990912D01*
X14975230Y-15990912D02*
X14975230Y-15914722D01*
X14975230Y-15914722D02*
X14984753Y-15895674D01*
X14984753Y-15895674D02*
X15003801Y-15886150D01*
X15003801Y-15886150D02*
X15041896Y-15886150D01*
X15041896Y-15886150D02*
X15060944Y-15895674D01*
X15060944Y-15895674D02*
X15070468Y-15914722D01*
X15070468Y-15914722D02*
X15070468Y-15933769D01*
X15070468Y-15933769D02*
X14975230Y-15952817D01*
X15146658Y-16009960D02*
X15165706Y-16019484D01*
X15165706Y-16019484D02*
X15203801Y-16019484D01*
X15203801Y-16019484D02*
X15222849Y-16009960D01*
X15222849Y-16009960D02*
X15232372Y-15990912D01*
X15232372Y-15990912D02*
X15232372Y-15981388D01*
X15232372Y-15981388D02*
X15222849Y-15962341D01*
X15222849Y-15962341D02*
X15203801Y-15952817D01*
X15203801Y-15952817D02*
X15175230Y-15952817D01*
X15175230Y-15952817D02*
X15156182Y-15943293D01*
X15156182Y-15943293D02*
X15146658Y-15924246D01*
X15146658Y-15924246D02*
X15146658Y-15914722D01*
X15146658Y-15914722D02*
X15156182Y-15895674D01*
X15156182Y-15895674D02*
X15175230Y-15886150D01*
X15175230Y-15886150D02*
X15203801Y-15886150D01*
X15203801Y-15886150D02*
X15222849Y-15895674D01*
X15299039Y-16095674D02*
X15308563Y-16086150D01*
X15308563Y-16086150D02*
X15327611Y-16057579D01*
X15327611Y-16057579D02*
X15337134Y-16038531D01*
X15337134Y-16038531D02*
X15346658Y-16009960D01*
X15346658Y-16009960D02*
X15356182Y-15962341D01*
X15356182Y-15962341D02*
X15356182Y-15924246D01*
X15356182Y-15924246D02*
X15346658Y-15876627D01*
X15346658Y-15876627D02*
X15337134Y-15848055D01*
X15337134Y-15848055D02*
X15327611Y-15829008D01*
X15327611Y-15829008D02*
X15308563Y-15800436D01*
X15308563Y-15800436D02*
X15299039Y-15790912D01*
M02*
